<svg width="114" height="117" viewBox="0 0 114 117" fill="none" xmlns="http://www.w3.org/2000/svg">
<path d="M36.2424 36.8542C34.9662 36.5261 33.8007 35.8485 32.8704 34.8937C31.9401 33.9389 31.2798 32.7427 30.9601 31.4329L30.8481 30.9779L30.7368 31.4329C30.4169 32.7428 29.7565 33.939 28.826 34.8938C27.8955 35.8486 26.7298 36.5262 25.4534 36.8542L25.0107 36.9687L25.4534 37.0827C26.7299 37.4107 27.8957 38.0884 28.8262 39.0433C29.7567 39.9982 30.4171 41.1946 30.7368 42.5047L30.8481 42.9597L30.9601 42.5047C31.2797 41.1947 31.9398 39.9984 32.8702 39.0435C33.8005 38.0885 34.9661 37.4108 36.2424 37.0827L36.6866 36.9687L36.2424 36.8542ZM39.7626 24.5057C38.857 24.2729 38.0301 23.792 37.37 23.1145C36.7099 22.437 36.2414 21.5882 36.0146 20.6588L35.9354 20.3359L35.8563 20.6588C35.6293 21.5883 35.1607 22.4371 34.5004 23.1146C33.8401 23.7921 33.013 24.2729 32.1072 24.5057L31.7931 24.5868L32.1072 24.6677C33.013 24.9004 33.8402 25.3812 34.5005 26.0587C35.1608 26.7363 35.6294 27.5852 35.8563 28.5147L35.9354 28.8376L36.0146 28.5147C36.2413 27.5853 36.7098 26.7364 37.3699 26.0589C38.03 25.3813 38.857 24.9005 39.7626 24.6677L40.0779 24.5868L39.7626 24.5057Z" fill="#FFBE1B"/>
<path d="M83.7552 68.9178C82.5849 68.6163 81.5163 67.9946 80.6632 67.1189C79.8101 66.2433 79.2044 65.1466 78.9106 63.9455L78.8084 63.5273L78.7071 63.9455C78.4133 65.1468 77.8074 66.2437 76.954 67.1193C76.1006 67.995 75.0317 68.6166 73.8612 68.9178L73.4551 69.0222L73.8612 69.1267C75.0318 69.4277 76.1008 70.0492 76.9543 70.9249C77.8077 71.8006 78.4135 72.8976 78.7071 74.0989L78.8084 74.5167L78.9106 74.0989C79.2041 72.8978 79.8097 71.8009 80.6629 70.9252C81.5161 70.0496 82.5848 69.4279 83.7552 69.1267L84.1631 69.0222L83.7552 68.9178Z" fill="#FFBE1B"/>
<path d="M43.2627 79.2773L45.9065 94.3628C46.0034 95.0086 46.3223 95.5975 46.8055 96.0229C47.2887 96.4484 47.9043 96.6823 48.541 96.6825H65.4593C66.7752 96.6825 67.8943 95.6973 68.0942 94.3628L70.7383 79.2773H43.2627Z" fill="#0F0F10" fill-opacity="0.92"/>
<path d="M71.1921 71.3164H42.8086C41.3831 71.3164 40.2275 72.5024 40.2275 73.9658V76.6271C40.2275 78.0903 41.3831 79.2765 42.8086 79.2765H71.1921C72.6176 79.2765 73.7734 78.0905 73.7734 76.6271V73.9656C73.7734 72.5024 72.6176 71.3164 71.1921 71.3164Z" fill="#111111"/>
<path d="M63.7829 58.6239C61.3659 59.899 59.6753 62.0834 58.5591 64.0496V68.7702C60.8641 69.3082 64.9808 69.8379 68.4763 67.9937C73.6506 65.2637 75.4982 58.3659 75.4982 58.3659C75.4982 58.3659 68.9572 55.8938 63.7829 58.6239ZM50.2182 58.6239C45.0439 55.8938 38.5029 58.3659 38.5029 58.3659C38.5029 58.3659 40.3505 65.2639 45.5248 67.9937C49.0203 69.8379 53.1368 69.3082 55.442 68.7702V64.0496C54.3258 62.0834 52.6351 59.899 50.2182 58.6239Z" fill="#FE815F"/>
<path d="M56.9991 21.1641C47.1626 21.1641 39.1875 29.3481 39.1875 39.4453C39.1875 49.5416 47.1626 57.7259 56.9991 57.7259C66.8374 57.7259 74.8125 49.5418 74.8125 39.4453C74.8125 29.3481 66.8374 21.1641 56.9991 21.1641Z" fill="#FFBE1B"/>
<path d="M56.9991 57.7301C56.4791 57.7285 55.9594 57.7039 55.4414 57.6562V71.319H58.5586V57.6562C58.0443 57.702 57.525 57.7301 56.9991 57.7301Z" fill="#F99359"/>
<path d="M57.0002 25.7227C49.6162 25.7227 43.6299 31.8658 43.6299 39.4448C43.6299 47.0231 49.6162 53.1672 57.0002 53.1672C64.3853 53.1672 70.3714 47.0231 70.3714 39.4448C70.3714 31.8658 64.3853 25.7227 57.0002 25.7227Z" fill="#FFE37B"/>
<path d="M62.3905 40.3013C61.9133 39.7371 61.2738 39.3646 60.4694 39.1875C60.692 39.0861 60.8468 39.0132 60.9336 38.9682C61.0198 38.9245 61.1752 38.813 61.3972 38.6352C62.0536 38.1277 62.3809 37.353 62.3809 36.3119C62.3809 35.4481 62.0908 34.6746 61.5092 33.9895C61.1875 33.6207 60.7081 33.3291 60.0706 33.112C59.8716 33.0464 59.6691 32.9928 59.4641 32.9513V31.2578H57.1883V32.7889H55.6618V31.2578H53.3856V32.7889H50.8945V35.3023H52.7499V43.5871H50.8945V46.101H53.3856V47.633H55.6618V46.101H57.1883V47.633H59.4641V46.0444C60.7014 45.9075 61.6085 45.5174 62.1774 44.8641C62.7952 44.1534 63.105 43.3342 63.105 42.4069C63.1047 41.5684 62.8663 40.8678 62.3905 40.3013ZM55.6453 35.3019H57.0372C57.8906 35.3019 58.496 35.3974 58.8547 35.5877C59.2141 35.7779 59.3928 36.1682 59.3928 36.7593C59.3928 37.3491 59.1982 37.7342 58.8086 37.9113C58.4185 38.0888 57.8218 38.1779 57.0187 38.1779H55.6456V35.3019H55.6453ZM59.4959 43.2727C59.0802 43.4825 58.4586 43.5867 57.6301 43.5867H55.6453V40.5214H57.3522C58.3168 40.5214 59.0186 40.6196 59.4576 40.8157C59.8974 41.0134 60.1174 41.4194 60.1174 42.0353C60.1174 42.6509 59.9101 43.0634 59.4959 43.2727Z" fill="white"/>
<path d="M40.0857 81.7884C39.1739 81.5538 38.3411 81.0697 37.6764 80.3875C37.0116 79.7054 36.5397 78.8508 36.311 77.915L36.2322 77.5898L36.1529 77.915C35.9244 78.8509 35.4526 79.7055 34.7879 80.3877C34.1231 81.0699 33.2903 81.554 32.3785 81.7884L32.0625 81.8702L32.3785 81.9524C33.2903 82.1866 34.123 82.6705 34.7878 83.3525C35.4525 84.0345 35.9244 84.8889 36.1529 85.8246L36.2322 86.1498L36.311 85.8246C36.5397 84.889 37.0117 84.0346 37.6765 83.3527C38.3412 82.6707 39.1739 82.1868 40.0857 81.9524L40.4028 81.8702L40.0857 81.7884Z" fill="#FFBE1B"/>
</svg>
