<svg width="295" height="289" viewBox="0 0 295 289" fill="none" xmlns="http://www.w3.org/2000/svg">
<path d="M149.334 90.8849C146.189 90.0771 143.316 88.4087 141.023 86.0578C138.73 83.707 137.102 80.7619 136.314 77.537L136.038 76.4168L135.764 77.537C134.975 80.7622 133.347 83.7074 131.054 86.0583C128.76 88.4091 125.887 90.0774 122.74 90.8849L121.649 91.1668L122.74 91.4476C125.887 92.2551 128.76 93.9236 131.054 96.2748C133.348 98.626 134.976 101.572 135.764 104.797L136.038 105.917L136.314 104.797C137.102 101.572 138.729 98.6264 141.022 96.2752C143.315 93.924 146.188 92.2554 149.334 91.4476L150.429 91.1668L149.334 90.8849ZM158.011 60.4812C155.779 59.9081 153.741 58.7242 152.114 57.0561C150.487 55.388 149.332 53.2982 148.773 51.0098L148.578 50.2148L148.383 51.0098C147.823 53.2984 146.668 55.3883 145.041 57.0564C143.413 58.7245 141.374 59.9082 139.142 60.4812L138.367 60.681L139.142 60.8802C141.374 61.4531 143.413 62.6368 145.041 64.3051C146.669 65.9733 147.824 68.0634 148.383 70.3521L148.578 71.1471L148.773 70.3521C149.332 68.0636 150.486 65.9737 152.114 64.3054C153.741 62.6372 155.779 61.4533 158.011 60.8802L158.789 60.681L158.011 60.4812Z" fill="#FFBE1B"/>
<path d="M266.45 169.827C263.566 169.084 260.932 167.554 258.829 165.398C256.726 163.242 255.233 160.541 254.509 157.584L254.257 156.555L254.007 157.584C253.283 160.542 251.79 163.243 249.686 165.399C247.583 167.555 244.948 169.085 242.063 169.827L241.062 170.084L242.063 170.341C244.948 171.082 247.583 172.612 249.687 174.768C251.79 176.924 253.284 179.625 254.007 182.583L254.257 183.612L254.509 182.583C255.232 179.626 256.725 176.925 258.828 174.769C260.931 172.613 263.566 171.083 266.45 170.341L267.456 170.084L266.45 169.827Z" fill="#FFBE1B"/>
<path d="M170.659 215.245L166.638 195.332H234.363L230.34 215.245H170.659Z" fill="#111111"/>
<path d="M235.482 175.73H165.519C162.006 175.73 159.157 178.651 159.157 182.254V188.806C159.157 192.409 162.006 195.329 165.519 195.329H235.482C238.996 195.329 241.845 192.409 241.845 188.806V182.253C241.845 178.651 238.996 175.73 235.482 175.73Z" fill="#363D47"/>
<path d="M217.219 144.482C211.262 147.621 207.094 153 204.343 157.841V169.463C210.025 170.788 220.172 172.092 228.788 167.552C241.542 160.83 246.096 143.847 246.096 143.847C246.096 143.847 229.973 137.76 217.219 144.482ZM183.783 144.482C171.029 137.76 154.906 143.847 154.906 143.847C154.906 143.847 159.46 160.83 172.215 167.552C180.831 172.092 190.977 170.788 196.659 169.463V157.841C193.908 153 189.741 147.621 183.783 144.482Z" fill="#F47A1B"/>
<path d="M200.498 52.25C176.252 52.25 156.594 72.4002 156.594 97.2608C156.594 122.119 176.252 142.27 200.498 142.27C224.748 142.27 244.406 122.12 244.406 97.2608C244.406 72.4002 224.748 52.25 200.498 52.25Z" fill="#FFBE1B"/>
<path d="M200.498 142.279C199.216 142.276 197.935 142.215 196.658 142.098V175.737H204.342V142.098C203.074 142.21 201.794 142.279 200.498 142.279Z" fill="#F47A1B"/>
<path d="M200.5 63.4766C182.299 63.4766 167.543 78.6019 167.543 97.2622C167.543 115.921 182.299 131.048 200.5 131.048C218.703 131.048 233.458 115.921 233.458 97.2622C233.458 78.6019 218.703 63.4766 200.5 63.4766Z" fill="#FFE37B"/>
<path d="M213.787 99.3678C212.611 97.9787 211.034 97.0616 209.051 96.6256C209.6 96.3757 209.982 96.1963 210.196 96.0854C210.408 95.978 210.791 95.7034 211.338 95.2657C212.956 94.0161 213.763 92.1087 213.763 89.5454C213.763 87.4186 213.048 85.5141 211.614 83.8273C210.821 82.9192 209.64 82.2013 208.068 81.6668C207.578 81.5054 207.079 81.3733 206.573 81.2712V77.1016H200.964V80.8712H197.201V77.1016H191.59V80.8712H185.45V87.0596H190.024V107.458H185.45V113.648H191.59V117.419H197.201V113.648H200.964V117.419H206.573V113.508C209.623 113.171 211.859 112.211 213.261 110.602C214.784 108.852 215.548 106.835 215.548 104.552C215.547 102.488 214.959 100.763 213.787 99.3678ZM197.161 87.0585H200.591C202.695 87.0585 204.187 87.2937 205.071 87.7624C205.957 88.2305 206.398 89.1915 206.398 90.647C206.398 92.0992 205.918 93.0472 204.958 93.4832C203.996 93.9204 202.525 94.1398 200.546 94.1398H197.161V87.0585H197.161ZM206.652 106.684C205.627 107.2 204.095 107.457 202.053 107.457H197.161V99.9097H201.368C203.745 99.9097 205.475 100.152 206.558 100.634C207.641 101.121 208.184 102.121 208.184 103.637C208.184 105.153 207.673 106.168 206.652 106.684Z" fill="white"/>
<path d="M158.808 201.513C156.56 200.936 154.508 199.744 152.869 198.064C151.23 196.384 150.067 194.28 149.503 191.976L149.309 191.176L149.114 191.976C148.551 194.281 147.388 196.385 145.749 198.064C144.111 199.744 142.058 200.936 139.81 201.513L139.031 201.715L139.81 201.917C142.058 202.494 144.11 203.685 145.749 205.364C147.387 207.043 148.55 209.147 149.114 211.451L149.309 212.252L149.503 211.451C150.067 209.147 151.231 207.044 152.869 205.365C154.508 203.686 156.56 202.494 158.808 201.917L159.589 201.715L158.808 201.513Z" fill="#FFBE1B"/>
<path d="M56.5069 123.397C54.5171 122.886 52.6999 121.831 51.2494 120.344C49.7989 118.857 48.7695 116.994 48.271 114.954L48.0964 114.245L47.9228 114.954C47.4241 116.994 46.3944 118.857 44.9436 120.344C43.4928 121.831 41.6754 122.886 39.6853 123.397L38.9951 123.575L39.6853 123.753C41.6755 124.264 43.4931 125.319 44.9439 126.806C46.3948 128.294 47.4244 130.157 47.9228 132.197L48.0964 132.906L48.271 132.197C48.7693 130.157 49.7986 128.294 51.2491 126.807C52.6996 125.319 54.5169 124.264 56.5069 123.753L57.1995 123.575L56.5069 123.397ZM61.9954 104.166C60.5835 103.803 59.2941 103.054 58.2649 101.999C57.2357 100.944 56.5053 99.6222 56.1518 98.1747L56.0282 97.6719L55.9049 98.1747C55.551 99.6223 54.8203 100.944 53.7908 101.999C52.7614 103.055 51.4717 103.803 50.0596 104.166L49.5697 104.292L50.0596 104.418C51.4718 104.78 52.7615 105.529 53.7911 106.584C54.8206 107.64 55.5512 108.962 55.9049 110.409L56.0282 110.912L56.1518 110.409C56.5052 108.962 57.2355 107.64 58.2647 106.585C59.2939 105.529 60.5834 104.781 61.9954 104.418L62.4869 104.292L61.9954 104.166Z" fill="#FFBE1B"/>
<path d="M130.587 173.329C128.762 172.859 127.096 171.891 125.766 170.527C124.436 169.163 123.491 167.455 123.033 165.585L122.874 164.934L122.716 165.585C122.258 167.456 121.313 169.164 119.983 170.528C118.652 171.891 116.986 172.859 115.161 173.329L114.527 173.491L115.161 173.654C116.986 174.123 118.652 175.091 119.983 176.454C121.314 177.818 122.258 179.527 122.716 181.398L122.874 182.048L123.033 181.398C123.491 179.527 124.435 177.819 125.765 176.455C127.096 175.091 128.762 174.123 130.587 173.654L131.223 173.491L130.587 173.329Z" fill="#FFBE1B"/>
<path d="M69.9955 202.057L67.4521 189.461H110.291L107.746 202.057H69.9955Z" fill="#111111"/>
<path d="M110.999 177.062H66.7449C64.5224 177.062 62.7207 178.91 62.7207 181.189V185.333C62.7207 187.612 64.5224 189.459 66.7449 189.459H110.999C113.221 189.459 115.023 187.612 115.023 185.333V181.188C115.023 178.91 113.221 177.062 110.999 177.062Z" fill="#363D47"/>
<path d="M99.4463 157.297C95.6779 159.283 93.042 162.684 91.3017 165.746V173.098C94.8955 173.936 101.314 174.761 106.764 171.889C114.831 167.637 117.712 156.895 117.712 156.895C117.712 156.895 107.514 153.045 99.4463 157.297ZM78.297 157.297C70.2296 153.045 60.0312 156.895 60.0312 156.895C60.0312 156.895 62.9119 167.638 70.9794 171.889C76.4294 174.761 82.8475 173.936 86.4416 173.098V165.746C84.7013 162.684 82.0654 159.283 78.297 157.297Z" fill="#F47A1B"/>
<path d="M88.8695 98.957C73.5329 98.957 61.0986 111.703 61.0986 127.428C61.0986 143.152 73.5329 155.898 88.8695 155.898C104.209 155.898 116.643 143.152 116.643 127.428C116.643 111.703 104.209 98.957 88.8695 98.957Z" fill="#FFBE1B"/>
<path d="M88.8701 155.904C88.0593 155.902 87.249 155.863 86.4414 155.789V177.067H91.3015V155.789C90.4996 155.86 89.6901 155.904 88.8701 155.904Z" fill="#F47A1B"/>
<path d="M88.8706 106.059C77.358 106.059 68.0244 115.626 68.0244 127.429C68.0244 139.231 77.358 148.8 88.8706 148.8C100.385 148.8 109.718 139.231 109.718 127.429C109.718 115.626 100.385 106.059 88.8706 106.059Z" fill="#FFE37B"/>
<path d="M62.4995 193.371C61.0779 193.005 59.7795 192.251 58.7431 191.189C57.7066 190.127 56.9708 188.796 56.6143 187.338L56.4914 186.832L56.3678 187.338C56.0116 188.796 55.276 190.127 54.2395 191.189C53.203 192.252 51.9046 193.006 50.4828 193.371L49.9902 193.498L50.4828 193.626C51.9045 193.991 53.2029 194.745 54.2393 195.807C55.2758 196.869 56.0115 198.199 56.3678 199.657L56.4914 200.163L56.6143 199.657C56.9709 198.2 57.7067 196.869 58.7432 195.807C59.7797 194.745 61.078 193.991 62.4995 193.626L62.9939 193.498L62.4995 193.371Z" fill="#FFBE1B"/>
<path d="M85.7568 132H80.9668V124.729H85.7568V125.589H81.9336V127.581H85.7568V128.44H81.9336V131.141H85.7568V132ZM92.4805 125.589H89.8828V132H88.916V125.589H86.3184V124.729H92.4805V125.589ZM99.0186 132H98.0518V128.44H94.4238V132H93.457V124.729H94.4238V127.581H98.0518V124.729H99.0186V132Z" fill="black"/>
</svg>
