<svg width="1133" height="504" viewBox="0 0 1133 504" fill="none" xmlns="http://www.w3.org/2000/svg">
<mask id="mask0" mask-type="alpha" maskUnits="userSpaceOnUse" x="0" y="0" width="1132" height="504">
<rect width="1132" height="504" rx="20" fill="#FBFAF9"/>
</mask>
<g mask="url(#mask0)">
<path fill-rule="evenodd" clip-rule="evenodd" d="M1117.58 -122.071C1177.81 -138.788 1241.15 -194.596 1295.66 -163.986C1348.72 -134.182 1343.02 -54.102 1346.76 6.64627C1349.75 55.1355 1323.46 97.3759 1314.7 145.161C1303.94 203.854 1333.97 277.995 1289.69 317.994C1246.03 357.432 1175.9 330.964 1117.58 323.221C1066.98 316.504 1014.99 308.963 975.757 276.317C937.938 244.85 930.773 192.88 908.315 149.107C880.009 93.9341 804.472 44.4567 827.204 -13.2368C850.402 -72.1122 940.014 -59.5209 999.269 -81.7301C1039.26 -96.7205 1076.42 -110.649 1117.58 -122.071Z" fill="#FAF2EB"/>
</g>
<g opacity="0.1" clip-path="url(#clip0)">
<path fill-rule="evenodd" clip-rule="evenodd" d="M1090.03 0C1096.08 6.8875 1104.2 12.2113 1113.47 15.1271C1119.71 17.0864 1126.14 18.0402 1132.63 18.5004V19.0877C1126.09 18.6276 1119.6 17.6651 1113.3 15.6862C1103.75 12.6824 1095.41 7.15574 1089.26 0L1090.03 0Z" fill="#222222"/>
<path fill-rule="evenodd" clip-rule="evenodd" d="M1076.49 0C1076.66 0.239796 1076.82 0.479824 1076.99 0.71962C1086.23 13.5745 1099.84 22.5256 1116.36 26.6049C1121.74 27.9338 1127.27 28.8657 1132.63 29.5912V30.181C1127.23 29.4554 1121.65 28.5154 1116.22 27.1749C1099.57 23.0621 1085.84 14.0317 1076.52 1.06139C1076.26 0.708752 1076.02 0.355648 1075.78 0L1076.49 0Z" fill="#222222"/>
<path fill-rule="evenodd" clip-rule="evenodd" d="M1132.63 43.0355C1131.38 42.6831 1130.13 42.3355 1128.9 41.9944C1115.77 38.3415 1102.21 34.5647 1090.4 27.2621C1079.23 20.3492 1070.73 10.8903 1062.53 0L1063.26 0C1071.34 10.6926 1079.73 19.9739 1090.7 26.7626C1102.44 34.0229 1115.97 37.7882 1129.05 41.4297C1130.23 41.7569 1131.43 42.0904 1132.63 42.4264V43.0355Z" fill="#222222"/>
<path fill-rule="evenodd" clip-rule="evenodd" d="M995.73 14.0178C996.874 9.21609 998.686 4.48537 1001.02 0L1001.68 0C999.296 4.52191 997.453 9.30118 996.295 14.1558C992.837 28.6565 994.565 44.1225 1001.9 64.3022C1008.4 82.1933 1015.8 98.0883 1023.9 111.547C1030.55 122.604 1038.77 131.555 1047.47 141.031C1049.72 143.484 1052.05 146.019 1054.33 148.573C1056.69 151.221 1059.05 153.956 1061.33 156.601C1064.51 160.304 1067.81 164.129 1071.17 167.78C1071.83 168.482 1072.49 169.222 1073.17 169.978C1077.47 174.754 1082.34 180.165 1088.12 182.214C1089.7 182.774 1091.31 183.062 1092.92 183.062H1092.92C1104.41 183.056 1113.8 168.666 1117.31 162.478C1123.63 151.323 1128.29 139.19 1132.63 127.236V128.938C1128.43 140.427 1123.89 152.039 1117.81 162.769C1113.39 170.565 1104.29 183.643 1092.92 183.643H1092.92C1091.25 183.643 1089.57 183.349 1087.92 182.768C1082.01 180.668 1077.09 175.198 1072.74 170.371C1072.06 169.616 1071.4 168.88 1070.75 168.177C1067.38 164.522 1064.08 160.691 1060.89 156.988C1058.61 154.343 1056.26 151.61 1053.9 148.963C1051.62 146.414 1049.29 143.879 1047.04 141.429C1038.32 131.93 1030.08 122.959 1023.4 111.852C1015.28 98.3593 1007.86 82.4303 1001.35 64.5027C993.978 44.2104 992.245 28.6398 995.73 14.0178Z" fill="#222222"/>
<path fill-rule="evenodd" clip-rule="evenodd" d="M1132.63 62.1035C1132.23 61.6179 1131.81 61.1411 1131.34 60.678C1125.83 55.1735 1118.63 51.8402 1111.68 48.6167C1110.71 48.1674 1109.75 47.7218 1108.79 47.2702C1096.75 41.596 1081.15 33.4808 1067.22 21.004C1064.83 18.8558 1062.47 16.4567 1059.99 13.916C1054.94 8.76447 1049.78 3.50052 1043.91 0L1045.03 0C1050.62 3.52295 1055.56 8.56399 1060.4 13.5068C1062.88 16.0388 1065.23 18.4299 1067.61 20.5665C1081.48 32.9952 1097.04 41.0822 1109.04 46.7395C1109.99 47.1911 1110.96 47.6367 1111.92 48.083C1118.92 51.3291 1126.16 54.6854 1131.75 60.2629C1132.06 60.5683 1132.35 60.8817 1132.63 61.2001V62.1035Z" fill="#222222"/>
<path fill-rule="evenodd" clip-rule="evenodd" d="M1004.68 16.9534C1006.82 10.5769 1010.97 4.16927 1016.62 0L1017.63 0C1011.74 4.06752 1007.42 10.619 1005.23 17.1395C1001.31 28.7952 1001.87 42.3582 1006.96 58.606C1011.69 73.7245 1019.13 89.7636 1028.47 104.987C1036.7 118.395 1047.13 128.822 1060.25 140.353C1060.83 140.867 1061.44 141.404 1062.07 141.957C1070.44 149.375 1081.9 159.537 1093.07 159.537H1093.07C1094.84 159.537 1096.56 159.271 1098.19 158.752C1109.31 155.19 1115.71 143.958 1120.98 132.348C1126 121.296 1129.53 109.602 1132.63 97.9551V100.202C1129.66 111.177 1126.25 122.163 1121.51 132.593C1116.19 144.322 1109.7 155.678 1098.36 159.311C1096.68 159.847 1094.9 160.121 1093.07 160.121C1093.07 160.121 1093.07 160.121 1093.07 160.121C1081.68 160.121 1070.12 149.877 1061.68 142.397C1061.05 141.843 1060.45 141.308 1059.87 140.797C1046.7 129.229 1036.24 118.765 1027.98 105.295C1018.61 90.0316 1011.15 73.9479 1006.4 58.7813C1001.28 42.4118 1000.71 28.727 1004.68 16.9534Z" fill="#222222"/>
<path fill-rule="evenodd" clip-rule="evenodd" d="M1031.51 15.7216C1038.2 15.7216 1046.16 19.312 1055.16 26.3917C1068.57 36.9402 1082.85 46.0807 1096.28 54.3877C1097.09 54.8875 1097.91 55.3874 1098.73 55.8869C1104.02 59.1076 1109.5 62.4414 1113.6 67.0905C1119.36 73.6168 1120.79 82.0795 1120.98 88.03C1121.03 89.675 1121.02 91.4736 1120.94 93.5282C1118.53 108.831 1114.77 124.44 1103.72 134.721C1099.75 138.413 1095.09 140.287 1089.87 140.287H1089.87C1080.25 140.287 1070.37 134.055 1063.77 129.366C1041.66 113.655 1024.75 88.2837 1016.16 57.9333C1013.14 47.2859 1010.08 32.0032 1018.23 22.2453C1021.85 17.9176 1026.31 15.7216 1031.51 15.7216ZM1089.87 140.87H1089.87C1095.24 140.87 1100.03 138.945 1104.11 135.148C1115.29 124.746 1119.08 109.024 1121.51 93.583C1121.6 91.4799 1121.61 89.6676 1121.56 88.0078C1121.37 81.9613 1119.91 73.3552 1114.03 66.699C1109.87 61.9851 1104.36 58.6287 1099.02 55.3825C1098.21 54.883 1097.39 54.3859 1096.58 53.8866C1083.17 45.5874 1068.9 36.4585 1055.51 25.9273C1046.41 18.7656 1038.33 15.1328 1031.51 15.1328C1026.13 15.1328 1021.52 17.3997 1017.78 21.8649C1009.45 31.8379 1012.55 47.3152 1015.6 58.0922C1024.23 88.5697 1041.22 114.054 1063.44 129.844C1070.1 134.578 1080.09 140.87 1089.87 140.87Z" fill="#222222"/>
<path opacity="0.7" fill-rule="evenodd" clip-rule="evenodd" d="M1106.88 99.3241C1105.76 106.214 1102.5 118.276 1093.22 122.279C1090.66 123.382 1087.91 123.941 1085.03 123.941C1077.25 123.941 1068.39 119.921 1058.67 111.99C1042.94 99.1488 1030.72 77.0013 1027.54 55.5653C1026.55 48.8531 1026.5 40.1786 1031.96 36.9493C1033.66 35.9446 1035.62 35.4335 1037.8 35.4335C1045.22 35.4335 1054.01 41.3047 1059.83 45.1889C1060.48 45.6266 1061.11 46.0417 1061.7 46.4286C1065.07 48.6415 1068.55 50.7891 1071.92 52.8638C1078.75 57.0672 1085.8 61.4139 1092.16 66.481C1096.72 70.1168 1100.52 74.4665 1104.1 80.1629C1107.31 85.2723 1107.12 91.6654 1106.92 97.8477C1106.91 98.3414 1106.89 98.8355 1106.88 99.3241ZM1085.03 126.286H1085.04C1088.22 126.283 1091.28 125.662 1094.13 124.431C1104.48 119.974 1108.01 106.973 1109.19 99.6193L1109.2 99.4644C1109.22 98.9534 1109.23 98.4396 1109.25 97.9202C1109.44 91.6878 1109.66 84.625 1106.07 78.909C1102.34 72.9809 1098.38 68.4474 1093.6 64.6426C1087.13 59.4883 1080.02 55.1044 1073.14 50.8646C1069.78 48.7955 1066.31 46.659 1062.97 44.4655C1062.38 44.0819 1061.77 43.6696 1061.12 43.2348C1055.06 39.1955 1045.92 33.0898 1037.79 33.0898C1035.2 33.0898 1032.84 33.7082 1030.78 34.9275C1025.5 38.0523 1023.64 45.1118 1025.24 55.9091C1028.5 77.8927 1041.05 100.622 1057.21 113.809C1067.34 122.089 1076.71 126.286 1085.03 126.286Z" fill="#222222"/>
<path fill-rule="evenodd" clip-rule="evenodd" d="M1053.52 61.8821C1059.22 61.8821 1067 65.8706 1069.94 67.3725C1076.91 70.9456 1092.91 80.9641 1090.8 96.7712C1088.69 104.5 1083.24 106.129 1079.05 106.129C1075.04 106.132 1070.29 104.605 1066.01 101.94C1060.48 98.4993 1055.73 93.48 1052.28 87.4222C1050.5 84.3004 1044.9 73.5149 1047.4 65.7665C1048.23 63.1893 1050.29 61.8821 1053.52 61.8821ZM1079.05 106.715C1083.45 106.715 1089.15 105.01 1091.37 96.8864C1093.54 80.6695 1077.29 70.4794 1070.2 66.8494C1067.23 65.3309 1059.36 61.2969 1053.52 61.2969C1050.01 61.2969 1047.76 62.7391 1046.84 65.5848C1044.26 73.5619 1049.97 84.5393 1051.77 87.7122C1055.27 93.8544 1060.09 98.9468 1065.7 102.439C1070.07 105.157 1074.94 106.715 1079.05 106.715Z" fill="#222222"/>
</g>
<defs>
<clipPath id="clip0">
<rect width="139" height="216" fill="white" transform="translate(994)"/>
</clipPath>
</defs>
</svg>
