<svg width="321" height="262" viewBox="0 0 321 262" fill="none" xmlns="http://www.w3.org/2000/svg">
<g filter="url(#filter0_f)">
<ellipse cx="47.3857" cy="130.539" rx="47.3857" ry="64.2771" fill="#FAD1BA"/>
</g>
<g filter="url(#filter1_f)">
<ellipse cx="183.428" cy="135.338" rx="15.2857" ry="20.6508" fill="#FAD1BA"/>
</g>
<g filter="url(#filter2_f)">
<ellipse cx="294.506" cy="80.953" rx="26.4953" ry="36.0545" fill="#FAD1BA"/>
</g>
<g filter="url(#filter3_b)">
<path d="M25 176.171V54.63C25 39 29.3594 39 37.9743 39C46.5893 39 288.223 62.5617 295.385 62.5617C302.547 62.5617 304 62.5617 304 80.0579V145.844C304 157.042 302.858 160.774 295.385 160.774C287.912 160.774 44.6172 196 36.3136 196C28.01 196 25 193.434 25 176.171Z" fill="url(#paint0_linear)" fill-opacity="0.6"/>
<path d="M25.6888 176.171V54.63C25.6888 50.7465 25.9604 47.8791 26.4844 45.7592C27.0071 43.6445 27.7693 42.3206 28.7178 41.4653C29.6649 40.6113 30.871 40.1581 32.4153 39.9253C33.9738 39.6904 35.8048 39.6888 37.9743 39.6888C39.0125 39.6888 43.6867 40.0524 51.1553 40.6986C58.5989 41.3427 68.7709 42.2629 80.7589 43.3674C104.735 45.5762 135.969 48.5213 167.16 51.4665C170.038 51.7383 172.916 52.0101 175.788 52.2814C204.036 54.9491 231.691 57.5609 253.291 59.566C265.189 60.6704 275.25 61.5909 282.561 62.2353C289.845 62.8774 294.45 63.2504 295.385 63.2504C297.206 63.2504 298.546 63.2547 299.592 63.5049C300.578 63.7405 301.259 64.1849 301.781 65.0922C302.335 66.0544 302.73 67.5733 302.976 70.012C303.22 72.4358 303.311 75.6872 303.311 80.0579V145.844C303.311 148.637 303.24 150.938 303.021 152.821C302.801 154.709 302.438 156.13 301.885 157.189C301.342 158.227 300.61 158.931 299.6 159.389C298.568 159.856 297.206 160.085 295.385 160.085C294.867 160.085 293.428 160.23 291.255 160.486C289.056 160.744 286.052 161.123 282.359 161.605C274.972 162.568 264.821 163.945 252.826 165.596C230.102 168.724 200.754 172.84 171.036 177.008L166.065 177.705C134.667 182.108 103.244 186.511 79.1521 189.814C67.1059 191.465 56.894 192.84 49.4349 193.803C45.7051 194.285 42.6658 194.663 40.4306 194.92C38.1721 195.18 36.7832 195.311 36.3136 195.311C32.2022 195.311 29.7094 194.668 28.1232 192.188C27.3008 190.902 26.6856 189.069 26.2808 186.447C25.8766 183.829 25.6888 180.472 25.6888 176.171Z" stroke="white" stroke-opacity="0.3" stroke-width="1.37752" stroke-linecap="round" stroke-linejoin="round" style="mix-blend-mode:overlay"/>
</g>
<defs>
<filter id="filter0_f" x="-66.2078" y="0.0538788" width="227.187" height="260.97" filterUnits="userSpaceOnUse" color-interpolation-filters="sRGB">
<feFlood flood-opacity="0" result="BackgroundImageFix"/>
<feBlend mode="normal" in="SourceGraphic" in2="BackgroundImageFix" result="shape"/>
<feGaussianBlur stdDeviation="33.1039" result="effect1_foregroundBlur"/>
</filter>
<filter id="filter1_f" x="149.854" y="96.3993" width="67.1479" height="77.878" filterUnits="userSpaceOnUse" color-interpolation-filters="sRGB">
<feFlood flood-opacity="0" result="BackgroundImageFix"/>
<feBlend mode="normal" in="SourceGraphic" in2="BackgroundImageFix" result="shape"/>
<feGaussianBlur stdDeviation="9.14412" result="effect1_foregroundBlur"/>
</filter>
<filter id="filter2_f" x="247.571" y="24.4586" width="93.8701" height="112.989" filterUnits="userSpaceOnUse" color-interpolation-filters="sRGB">
<feFlood flood-opacity="0" result="BackgroundImageFix"/>
<feBlend mode="normal" in="SourceGraphic" in2="BackgroundImageFix" result="shape"/>
<feGaussianBlur stdDeviation="10.2199" result="effect1_foregroundBlur"/>
</filter>
<filter id="filter3_b" x="-16.3256" y="-2.32563" width="361.651" height="239.651" filterUnits="userSpaceOnUse" color-interpolation-filters="sRGB">
<feFlood flood-opacity="0" result="BackgroundImageFix"/>
<feGaussianBlur in="BackgroundImage" stdDeviation="20.6628"/>
<feComposite in2="SourceAlpha" operator="in" result="effect1_backgroundBlur"/>
<feBlend mode="normal" in="SourceGraphic" in2="effect1_backgroundBlur" result="shape"/>
</filter>
<linearGradient id="paint0_linear" x1="25" y1="129.96" x2="298.847" y2="127.542" gradientUnits="userSpaceOnUse">
<stop stop-color="white" stop-opacity="0.7"/>
<stop offset="1" stop-color="white" stop-opacity="0.2"/>
</linearGradient>
</defs>
</svg>
