<svg width="1184" height="576" viewBox="0 0 1184 576" fill="none" xmlns="http://www.w3.org/2000/svg">
<g filter="url(#filter0_f)">
<circle cx="1014.49" cy="169.487" r="89.487" fill="#FAD1BA"/>
</g>
<g filter="url(#filter1_f)">
<circle cx="179.487" cy="396.487" r="89.487" fill="#F88340"/>
</g>
<g filter="url(#filter2_f)">
<circle cx="688.978" cy="391.43" r="31.145" fill="#F88340"/>
</g>
<g filter="url(#filter3_f)">
<circle cx="463.067" cy="206.753" r="21.9331" fill="#F88340"/>
</g>
<g filter="url(#filter4_bd)">
<path d="M186.439 395.911V119.541C186.439 101.783 189.657 93.1095 195.845 88.8027C198.952 86.6403 202.855 85.5425 207.596 84.991C212.338 84.4393 217.872 84.4387 224.225 84.4387C230.55 84.4387 279.777 87.785 350.434 92.8089C421.074 97.8317 513.101 104.529 604.995 111.226C613.476 111.844 621.956 112.462 630.418 113.079C713.642 119.145 795.12 125.083 858.755 129.643C928.844 134.664 977.322 138.015 982.618 138.015C987.909 138.015 992.086 138.017 995.406 138.63C998.704 139.238 1001.1 140.44 1002.87 142.812C1004.66 145.207 1005.84 148.845 1006.57 154.417C1007.29 159.982 1007.56 167.418 1007.56 177.361V326.951C1007.56 333.311 1007.35 338.589 1006.7 342.932C1006.04 347.276 1004.95 350.651 1003.2 353.228C999.739 358.341 993.596 360.462 982.618 360.462C979.837 360.462 966.195 361.717 944.459 363.906C922.702 366.096 892.8 369.225 857.46 372.98C790.497 380.094 704.011 389.456 616.435 398.935L601.846 400.514C509.34 410.527 416.758 420.539 345.774 428.048C310.282 431.803 280.19 434.932 258.207 437.122C236.206 439.314 222.362 440.561 219.333 440.561C207.098 440.561 198.964 439.091 193.83 432.896C191.255 429.789 189.404 425.456 188.198 419.43C186.993 413.404 186.439 405.712 186.439 395.911Z" stroke="white" stroke-opacity="0.3" stroke-width="0.877323" stroke-linecap="round" stroke-linejoin="round" style="mix-blend-mode:overlay"/>
<path d="M186.439 395.911V119.541C186.439 101.783 189.657 93.1095 195.845 88.8027C198.952 86.6403 202.855 85.5425 207.596 84.991C212.338 84.4393 217.872 84.4387 224.225 84.4387C230.55 84.4387 279.777 87.785 350.434 92.8089C421.074 97.8317 513.101 104.529 604.995 111.226C613.476 111.844 621.956 112.462 630.418 113.079C713.642 119.145 795.12 125.083 858.755 129.643C928.844 134.664 977.322 138.015 982.618 138.015C987.909 138.015 992.086 138.017 995.406 138.63C998.704 139.238 1001.1 140.44 1002.87 142.812C1004.66 145.207 1005.84 148.845 1006.57 154.417C1007.29 159.982 1007.56 167.418 1007.56 177.361V326.951C1007.56 333.311 1007.35 338.589 1006.7 342.932C1006.04 347.276 1004.95 350.651 1003.2 353.228C999.739 358.341 993.596 360.462 982.618 360.462C979.837 360.462 966.195 361.717 944.459 363.906C922.702 366.096 892.8 369.225 857.46 372.98C790.497 380.094 704.011 389.456 616.435 398.935L601.846 400.514C509.34 410.527 416.758 420.539 345.774 428.048C310.282 431.803 280.19 434.932 258.207 437.122C236.206 439.314 222.362 440.561 219.333 440.561C207.098 440.561 198.964 439.091 193.83 432.896C191.255 429.789 189.404 425.456 188.198 419.43C186.993 413.404 186.439 405.712 186.439 395.911Z" stroke="url(#paint0_linear)" stroke-opacity="0.1" stroke-width="0.877323" stroke-linecap="round" stroke-linejoin="round"/>
</g>
<g filter="url(#filter5_b)">
<path d="M187 395.911V119.541C187 84 199.844 84 225.225 84C250.607 84 962.518 137.577 983.618 137.577C1004.72 137.577 1009 137.577 1009 177.361V326.951C1009 352.413 1005.64 360.9 983.618 360.9C961.6 360.9 244.797 441 220.333 441C195.868 441 187 435.165 187 395.911Z" fill="url(#paint1_linear)" fill-opacity="0.6"/>
<path d="M187.439 395.911V119.541C187.439 101.783 190.657 93.1095 196.845 88.8027C199.952 86.6403 203.855 85.5425 208.596 84.991C213.338 84.4393 218.872 84.4387 225.225 84.4387C231.55 84.4387 280.777 87.785 351.434 92.8089C422.074 97.8317 514.101 104.529 605.995 111.226C614.475 111.844 622.953 112.462 631.413 113.078C714.639 119.144 796.119 125.083 859.756 129.643C929.844 134.664 978.322 138.015 983.618 138.015C988.909 138.015 993.086 138.017 996.406 138.63C999.704 139.238 1002.1 140.44 1003.87 142.812C1005.66 145.207 1006.84 148.845 1007.57 154.417C1008.29 159.982 1008.56 167.418 1008.56 177.361V326.951C1008.56 333.311 1008.35 338.589 1007.7 342.932C1007.04 347.276 1005.95 350.651 1004.2 353.228C1000.74 358.341 994.596 360.462 983.618 360.462C980.837 360.462 967.195 361.717 945.459 363.906C923.702 366.096 893.8 369.225 858.46 372.98C791.496 380.094 705.008 389.456 617.429 398.936L602.846 400.514C510.34 410.527 417.758 420.539 346.774 428.048C311.282 431.803 281.19 434.932 259.207 437.122C237.206 439.314 223.362 440.561 220.333 440.561C208.098 440.561 199.964 439.091 194.83 432.896C192.255 429.789 190.404 425.456 189.198 419.43C187.993 413.404 187.439 405.712 187.439 395.911Z" stroke="white" stroke-opacity="0.3" stroke-width="0.877323" stroke-linecap="round" stroke-linejoin="round" style="mix-blend-mode:overlay"/>
</g>
<defs>
<filter id="filter0_f" x="845" y="0" width="338.974" height="338.974" filterUnits="userSpaceOnUse" color-interpolation-filters="sRGB">
<feFlood flood-opacity="0" result="BackgroundImageFix"/>
<feBlend mode="normal" in="SourceGraphic" in2="BackgroundImageFix" result="shape"/>
<feGaussianBlur stdDeviation="40" result="effect1_foregroundBlur"/>
</filter>
<filter id="filter1_f" x="0" y="217" width="358.974" height="358.974" filterUnits="userSpaceOnUse" color-interpolation-filters="sRGB">
<feFlood flood-opacity="0" result="BackgroundImageFix"/>
<feBlend mode="normal" in="SourceGraphic" in2="BackgroundImageFix" result="shape"/>
<feGaussianBlur stdDeviation="45" result="effect1_foregroundBlur"/>
</filter>
<filter id="filter2_f" x="570.101" y="272.553" width="237.755" height="237.755" filterUnits="userSpaceOnUse" color-interpolation-filters="sRGB">
<feFlood flood-opacity="0" result="BackgroundImageFix"/>
<feBlend mode="normal" in="SourceGraphic" in2="BackgroundImageFix" result="shape"/>
<feGaussianBlur stdDeviation="43.8662" result="effect1_foregroundBlur"/>
</filter>
<filter id="filter3_f" x="353.401" y="97.088" width="219.331" height="219.331" filterUnits="userSpaceOnUse" color-interpolation-filters="sRGB">
<feFlood flood-opacity="0" result="BackgroundImageFix"/>
<feBlend mode="normal" in="SourceGraphic" in2="BackgroundImageFix" result="shape"/>
<feGaussianBlur stdDeviation="43.8662" result="effect1_foregroundBlur"/>
</filter>
<filter id="filter4_bd" x="159.68" y="57.6803" width="874.639" height="409.639" filterUnits="userSpaceOnUse" color-interpolation-filters="sRGB">
<feFlood flood-opacity="0" result="BackgroundImageFix"/>
<feGaussianBlur in="BackgroundImage" stdDeviation="13.1599"/>
<feComposite in2="SourceAlpha" operator="in" result="effect1_backgroundBlur"/>
<feColorMatrix in="SourceAlpha" type="matrix" values="0 0 0 0 0 0 0 0 0 0 0 0 0 0 0 0 0 0 127 0"/>
<feOffset dy="3.50929"/>
<feGaussianBlur stdDeviation="1.75465"/>
<feColorMatrix type="matrix" values="0 0 0 0 0 0 0 0 0 0 0 0 0 0 0 0 0 0 0.2 0"/>
<feBlend mode="normal" in2="effect1_backgroundBlur" result="effect2_dropShadow"/>
<feBlend mode="normal" in="SourceGraphic" in2="effect2_dropShadow" result="shape"/>
</filter>
<filter id="filter5_b" x="160.68" y="57.6803" width="874.639" height="409.639" filterUnits="userSpaceOnUse" color-interpolation-filters="sRGB">
<feFlood flood-opacity="0" result="BackgroundImageFix"/>
<feGaussianBlur in="BackgroundImage" stdDeviation="13.1599"/>
<feComposite in2="SourceAlpha" operator="in" result="effect1_backgroundBlur"/>
<feBlend mode="normal" in="SourceGraphic" in2="effect1_backgroundBlur" result="shape"/>
</filter>
<linearGradient id="paint0_linear" x1="1019.35" y1="223.967" x2="542.365" y2="226.98" gradientUnits="userSpaceOnUse">
<stop/>
<stop offset="1" stop-opacity="0"/>
</linearGradient>
<linearGradient id="paint1_linear" x1="187" y1="290.833" x2="993.775" y2="281.603" gradientUnits="userSpaceOnUse">
<stop stop-color="white" stop-opacity="0.7"/>
<stop offset="1" stop-color="white" stop-opacity="0.2"/>
</linearGradient>
</defs>
</svg>
