<svg width="1132" height="506" viewBox="0 0 1132 506" fill="none" xmlns="http://www.w3.org/2000/svg">
<mask id="mask0" mask-type="alpha" maskUnits="userSpaceOnUse" x="0" y="0" width="1132" height="506">
<rect width="1132" height="506" rx="20" transform="matrix(1 0 0 -1 0 506)" fill="#FBFAF9"/>
</mask>
<g mask="url(#mask0)">
<path fill-rule="evenodd" clip-rule="evenodd" d="M1113.58 628.071C1173.81 644.788 1237.15 700.596 1291.66 669.986C1344.72 640.182 1339.02 560.102 1342.76 499.354C1345.75 450.864 1319.46 408.624 1310.7 360.839C1299.94 302.146 1329.97 228.005 1285.69 188.006C1242.03 148.568 1171.9 175.036 1113.58 182.779C1062.98 189.496 1010.99 197.037 971.757 229.683C933.938 261.15 926.773 313.12 904.315 356.893C876.009 412.066 800.472 461.543 823.204 519.237C846.402 578.112 936.014 565.521 995.269 587.73C1035.26 602.72 1072.42 616.649 1113.58 628.071Z" fill="#FAF2EB"/>
<g opacity="0.1" clip-path="url(#clip0)">
<path fill-rule="evenodd" clip-rule="evenodd" d="M1089.21 504.969C1095.26 498.081 1103.38 492.757 1112.65 489.842C1118.88 487.882 1125.32 486.929 1131.8 486.468V485.881C1125.27 486.341 1118.77 487.304 1112.48 489.283C1102.93 492.286 1094.59 497.813 1088.43 504.969H1089.21Z" fill="#222222"/>
<path fill-rule="evenodd" clip-rule="evenodd" d="M1075.67 504.969C1075.83 504.729 1075.99 504.489 1076.17 504.249C1085.41 491.394 1099.02 482.443 1115.53 478.364C1120.92 477.035 1126.45 476.103 1131.8 475.378V474.788C1126.4 475.513 1120.83 476.453 1115.4 477.794C1098.74 481.907 1085.02 490.937 1075.7 503.907C1075.44 504.26 1075.2 504.613 1074.95 504.969H1075.67Z" fill="#222222"/>
<path fill-rule="evenodd" clip-rule="evenodd" d="M1131.8 461.933C1130.55 462.286 1129.31 462.633 1128.07 462.974C1114.95 466.627 1101.38 470.404 1089.58 477.707C1078.4 484.62 1069.91 494.078 1061.71 504.969H1062.44C1070.52 494.276 1078.91 484.995 1089.88 478.206C1101.62 470.946 1115.15 467.181 1128.23 463.539C1129.41 463.212 1130.6 462.878 1131.8 462.542V461.933Z" fill="#222222"/>
<path fill-rule="evenodd" clip-rule="evenodd" d="M994.908 490.951C996.052 495.753 997.864 500.483 1000.2 504.969H1000.85C998.473 500.447 996.63 495.668 995.473 490.813C992.015 476.312 993.743 460.846 1001.07 440.667C1007.57 422.775 1014.98 406.88 1023.07 393.422C1029.73 382.365 1037.95 373.414 1046.65 363.938C1048.9 361.485 1051.23 358.95 1053.51 356.396C1055.87 353.748 1058.23 351.013 1060.5 348.367C1063.69 344.664 1066.99 340.84 1070.35 337.189C1071 336.487 1071.67 335.747 1072.35 334.991C1076.65 330.215 1081.52 324.804 1087.29 322.754C1088.88 322.195 1090.49 321.907 1092.1 321.907H1092.1C1103.58 321.913 1112.98 336.303 1116.48 342.49C1122.8 353.646 1127.47 365.779 1131.8 377.733V376.031C1127.61 364.542 1123.07 352.929 1116.99 342.2C1112.57 334.403 1103.46 321.326 1092.1 321.326H1092.1C1090.43 321.326 1088.74 321.619 1087.1 322.201C1081.19 324.301 1076.26 329.771 1071.92 334.598C1071.24 335.352 1070.58 336.089 1069.93 336.791C1066.55 340.447 1063.26 344.277 1060.06 347.981C1057.79 350.626 1055.43 353.358 1053.07 356.006C1050.8 358.555 1048.47 361.09 1046.22 363.54C1037.5 373.038 1029.26 382.01 1022.58 393.117C1014.46 406.609 1007.04 422.538 1000.53 440.466C993.156 460.758 991.422 476.329 994.908 490.951Z" fill="#222222"/>
<path fill-rule="evenodd" clip-rule="evenodd" d="M1131.8 442.865C1131.41 443.351 1130.99 443.828 1130.52 444.291C1125.01 449.795 1117.81 453.129 1110.85 456.352C1109.89 456.801 1108.93 457.247 1107.97 457.699C1095.93 463.373 1080.32 471.488 1066.4 483.965C1064 486.113 1061.65 488.512 1059.17 491.053C1054.12 496.204 1048.96 501.468 1043.08 504.969H1044.21C1049.79 501.446 1054.74 496.405 1059.58 491.462C1062.06 488.93 1064.4 486.539 1066.79 484.402C1080.66 471.974 1096.21 463.887 1108.22 458.229C1109.17 457.778 1110.13 457.332 1111.1 456.886C1118.1 453.64 1125.34 450.283 1130.93 444.706C1131.24 444.4 1131.53 444.087 1131.8 443.769V442.865Z" fill="#222222"/>
<path fill-rule="evenodd" clip-rule="evenodd" d="M1003.85 488.015C1006 494.392 1010.14 500.799 1015.79 504.969H1016.8C1010.91 500.901 1006.6 494.35 1004.4 487.829C1000.48 476.174 1001.05 462.611 1006.13 446.363C1010.87 431.244 1018.31 415.205 1027.65 399.982C1035.88 386.574 1046.3 376.147 1059.43 364.616C1060.01 364.102 1060.62 363.565 1061.24 363.012C1069.61 355.594 1081.08 345.432 1092.25 345.432H1092.25C1094.02 345.432 1095.74 345.697 1097.36 346.217C1108.48 349.779 1114.89 361.011 1120.16 372.621C1125.18 383.672 1128.71 395.367 1131.8 407.014V404.766C1128.84 393.792 1125.42 382.806 1120.69 372.375C1115.37 360.647 1108.88 349.291 1097.54 345.658C1095.86 345.121 1094.08 344.847 1092.25 344.847C1092.25 344.847 1092.25 344.847 1092.25 344.847C1080.86 344.847 1069.3 355.091 1060.86 362.572C1060.23 363.125 1059.63 363.661 1059.05 364.172C1045.88 375.74 1035.42 386.204 1027.16 399.674C1017.79 414.937 1010.33 431.021 1005.58 446.187C1000.46 462.557 999.891 476.242 1003.85 488.015Z" fill="#222222"/>
<path fill-rule="evenodd" clip-rule="evenodd" d="M1030.69 489.247C1037.38 489.247 1045.34 485.657 1054.34 478.577C1067.75 468.029 1082.03 458.888 1095.46 450.581C1096.26 450.081 1097.08 449.581 1097.9 449.082C1103.2 445.861 1108.67 442.527 1112.78 437.878C1118.54 431.352 1119.97 422.889 1120.16 416.939C1120.21 415.294 1120.2 413.495 1120.11 411.441C1117.7 396.138 1113.95 380.528 1102.9 370.248C1098.93 366.556 1094.27 364.681 1089.05 364.681H1089.05C1079.43 364.681 1069.55 370.914 1062.95 375.603C1040.84 391.314 1023.93 416.685 1015.34 447.035C1012.32 457.683 1009.26 472.966 1017.41 482.723C1021.03 487.051 1025.49 489.247 1030.69 489.247ZM1089.04 364.099H1089.05C1094.42 364.099 1099.21 366.024 1103.29 369.821C1114.47 380.223 1118.26 395.945 1120.69 411.386C1120.78 413.489 1120.79 415.301 1120.74 416.961C1120.55 423.007 1119.08 431.614 1113.21 438.27C1109.05 442.984 1103.53 446.34 1098.2 449.586C1097.38 450.086 1096.57 450.583 1095.76 451.082C1082.34 459.381 1068.08 468.51 1054.69 479.041C1045.59 486.203 1037.51 489.836 1030.68 489.836C1025.31 489.836 1020.69 487.569 1016.96 483.104C1008.63 473.131 1011.72 457.654 1014.77 446.877C1023.4 416.399 1040.39 390.915 1062.61 375.125C1069.27 370.391 1079.26 364.099 1089.04 364.099Z" fill="#222222"/>
<path opacity="0.7" fill-rule="evenodd" clip-rule="evenodd" d="M1106.06 405.645C1104.94 398.755 1101.68 386.693 1092.4 382.69C1089.83 381.586 1087.08 381.027 1084.21 381.027C1076.43 381.027 1067.56 385.047 1057.85 392.979C1042.12 405.82 1029.9 427.967 1026.72 449.403C1025.72 456.116 1025.68 464.79 1031.14 468.019C1032.84 469.024 1034.8 469.535 1036.97 469.535C1044.4 469.535 1053.19 463.664 1059.01 459.78C1059.66 459.342 1060.29 458.927 1060.87 458.54C1064.24 456.327 1067.73 454.18 1071.1 452.105C1077.92 447.902 1084.98 443.555 1091.34 438.488C1095.9 434.852 1099.7 430.502 1103.28 424.806C1106.49 419.696 1106.29 413.303 1106.1 407.121C1106.09 406.627 1106.07 406.133 1106.06 405.645ZM1084.21 378.683H1084.21C1087.4 378.686 1090.46 379.306 1093.31 380.537C1103.65 384.994 1107.19 397.996 1108.37 405.349L1108.38 405.504C1108.4 406.015 1108.41 406.529 1108.43 407.049C1108.62 413.281 1108.84 420.344 1105.25 426.06C1101.52 431.988 1097.56 436.521 1092.78 440.326C1086.31 445.48 1079.19 449.864 1072.31 454.104C1068.96 456.173 1065.48 458.31 1062.15 460.503C1061.56 460.887 1060.94 461.299 1060.29 461.734C1054.24 465.773 1045.1 471.879 1036.97 471.879C1034.38 471.879 1032.02 471.261 1029.96 470.041C1024.68 466.916 1022.82 459.857 1024.42 449.06C1027.68 427.076 1040.23 404.347 1056.38 391.159C1066.52 382.88 1075.88 378.683 1084.21 378.683Z" fill="#222222"/>
<path fill-rule="evenodd" clip-rule="evenodd" d="M1052.7 443.087C1058.4 443.087 1066.18 439.098 1069.11 437.596C1076.09 434.023 1092.09 424.005 1089.98 408.198C1087.87 400.469 1082.42 398.84 1078.23 398.84C1074.22 398.837 1069.47 400.364 1065.19 403.029C1059.66 406.469 1054.91 411.489 1051.46 417.547C1049.68 420.668 1044.07 431.454 1046.58 439.202C1047.41 441.779 1049.47 443.087 1052.7 443.087ZM1078.22 398.254C1082.62 398.254 1088.33 399.959 1090.55 408.082C1092.71 424.299 1076.46 434.489 1069.38 438.119C1066.41 439.638 1058.54 443.672 1052.7 443.672C1049.19 443.672 1046.94 442.23 1046.02 439.384C1043.44 431.407 1049.15 420.429 1050.95 417.257C1054.45 411.114 1059.27 406.022 1064.88 402.53C1069.25 399.812 1074.11 398.254 1078.22 398.254Z" fill="#222222"/>
</g>
</g>
<defs>
<clipPath id="clip0">
<rect width="163.028" height="215.969" fill="white" transform="matrix(1 0 0 -1 993.178 504.969)"/>
</clipPath>
</defs>
</svg>
