<svg width="344" height="341" viewBox="0 0 344 341" fill="none" xmlns="http://www.w3.org/2000/svg">
<g opacity="0.3">
<path opacity="0.3" d="M343.908 239.78V230.756L341.407 229.364C340.698 233.631 335.684 236.428 331.494 237.021L302.941 253.715L290.475 258.214L250.707 237.691L251.622 237.163C248.219 235.577 246.388 231.942 244.558 228.629L241.877 230.227L240.291 230.679V239.934C240.291 241.7 241.451 243.466 243.784 244.82L283.63 267.83C288.297 270.524 295.889 270.524 300.556 267.83L340.402 244.833C342.696 243.505 343.856 241.778 343.895 240.037C343.908 239.934 343.908 239.857 343.908 239.78Z" fill="url(#paint0_linear)"/>
<path opacity="0.3" d="M331.494 237.004L302.941 253.697L292.1 257.616V269.824C295.168 269.824 298.223 269.154 300.556 267.8L340.402 244.803C342.696 243.475 343.857 241.748 343.895 240.007C343.895 239.93 343.895 239.853 343.895 239.775V230.752L341.614 229.488H341.369C340.608 233.665 335.645 236.424 331.494 237.004Z" fill="#FE815F"/>
<g opacity="0.3">
<path opacity="0.3" d="M283.642 258.639L243.797 235.629C239.13 232.935 239.13 228.552 243.797 225.858L283.642 202.86C288.309 200.166 295.902 200.166 300.568 202.86L340.414 225.871C345.08 228.565 345.08 232.948 340.414 235.642L300.568 258.639C295.902 261.334 288.309 261.334 283.642 258.639Z" fill="url(#paint1_linear)"/>
</g>
<g opacity="0.3">
<path opacity="0.3" d="M283.642 258.639L243.797 235.629C239.13 232.935 239.13 228.552 243.797 225.858L283.642 202.86C288.309 200.166 295.902 200.166 300.568 202.86L340.414 225.871C345.08 228.565 345.08 232.948 340.414 235.642L300.568 258.639C295.902 261.334 288.309 261.334 283.642 258.639Z" fill="#FE815F"/>
</g>
</g>
<path d="M292.098 229.558C289.378 229.558 286.658 228.965 284.583 227.766L244.737 204.756C242.675 203.557 241.527 201.945 241.527 200.218C241.527 198.491 242.662 196.879 244.737 195.681L284.583 172.683C288.721 170.298 295.463 170.298 299.601 172.683L339.447 195.693C341.509 196.892 342.656 198.504 342.656 200.231C342.656 201.958 341.522 203.57 339.447 204.769L299.601 227.766C297.538 228.965 294.818 229.558 292.098 229.558ZM292.098 171.587C289.507 171.587 286.916 172.155 284.944 173.302L245.098 196.299C243.255 197.369 242.236 198.761 242.236 200.231C242.236 201.701 243.255 203.093 245.098 204.163L284.944 227.173C288.888 229.455 295.321 229.455 299.266 227.173L339.111 204.176C340.955 203.106 341.973 201.713 341.973 200.244C341.973 198.774 340.955 197.382 339.111 196.312L299.266 173.302C297.293 172.155 294.689 171.587 292.098 171.587Z" fill="#F88340"/>
<path opacity="0.4" d="M343.906 191.398V177.76L341.405 176.368C340.696 180.634 335.682 183.432 331.492 184.025L302.939 200.718L290.473 205.217L250.705 184.695L251.62 184.167C248.217 182.581 246.386 178.946 244.556 175.633L241.875 177.231L240.289 177.682V191.553C240.289 193.319 241.449 195.085 243.782 196.439L283.628 219.449C288.295 222.143 295.887 222.143 300.554 219.449L340.4 196.452C342.694 195.124 343.854 193.396 343.893 191.656C343.906 191.553 343.906 191.476 343.906 191.398Z" fill="#F88340"/>
<path d="M343.905 179.276V170.252L341.404 168.86C340.695 173.127 335.681 175.924 331.491 176.517L302.938 193.211L290.472 197.71L250.704 177.187L251.619 176.659C248.216 175.073 246.385 171.438 244.555 168.125L241.874 169.723L240.288 170.175V179.43C240.288 181.196 241.448 182.962 243.782 184.316L283.627 207.326C288.294 210.02 295.887 210.02 300.553 207.326L340.399 184.329C342.693 183.001 343.854 181.274 343.892 179.533C343.905 179.43 343.905 179.353 343.905 179.276Z" fill="url(#paint2_linear)"/>
<path opacity="0.3" d="M331.492 176.519L302.939 193.213L292.098 197.132V209.34C295.166 209.34 298.221 208.669 300.554 207.316L340.4 184.318C342.694 182.991 343.855 181.263 343.893 179.523C343.893 179.446 343.893 179.368 343.893 179.291V170.267L341.612 169.004H341.367C340.606 173.181 335.643 175.939 331.492 176.519Z" fill="#FE815F"/>
<path d="M283.641 198.135L243.795 175.125C239.128 172.431 239.128 168.048 243.795 165.354L283.641 142.357C288.307 139.662 295.9 139.662 300.566 142.357L340.412 165.367C345.079 168.061 345.079 172.444 340.412 175.138L300.566 198.135C295.9 200.83 288.307 200.83 283.641 198.135Z" fill="url(#paint3_linear)"/>
<path d="M340.399 175.132L300.553 198.129C295.887 200.824 288.294 200.824 283.627 198.129L243.782 175.119C241.693 173.92 240.546 172.373 240.327 170.801C240.056 172.747 241.203 174.758 243.782 176.254L283.627 199.264C288.294 201.958 295.887 201.958 300.553 199.264L340.399 176.254C342.977 174.758 344.124 172.76 343.854 170.801C343.634 172.386 342.487 173.92 340.399 175.132Z" fill="white"/>
<g opacity="0.3">
<path opacity="0.3" d="M129.212 239.78V230.756L126.711 229.364C126.002 233.631 120.987 236.428 116.798 237.021L88.2445 253.715L75.779 258.214L36.0106 237.691L36.9258 237.163C33.5226 235.577 31.6921 231.942 29.8616 228.629L27.1803 230.227L25.5947 230.679V239.934C25.5947 241.7 26.7549 243.466 29.0882 244.82L68.9339 267.83C73.6004 270.524 81.1932 270.524 85.8597 267.83L125.705 244.833C128 243.505 129.16 241.778 129.199 240.037C129.212 239.934 129.212 239.857 129.212 239.78Z" fill="url(#paint4_linear)"/>
<path opacity="0.3" d="M116.798 237.004L88.2446 253.697L77.4033 257.616V269.824C80.4714 269.824 83.5265 269.154 85.8597 267.8L125.705 244.803C128 243.475 129.16 241.748 129.199 240.007C129.199 239.93 129.199 239.853 129.199 239.775V230.752L126.917 229.488H126.672C125.912 233.665 120.949 236.424 116.798 237.004Z" fill="#FE815F"/>
<g opacity="0.3">
<path opacity="0.3" d="M68.9462 258.639L29.1005 235.629C24.434 232.935 24.434 228.552 29.1005 225.858L68.9462 202.86C73.6127 200.166 81.2055 200.166 85.872 202.86L125.718 225.871C130.384 228.565 130.384 232.948 125.718 235.642L85.872 258.639C81.2055 261.334 73.6127 261.334 68.9462 258.639Z" fill="url(#paint5_linear)"/>
</g>
<g opacity="0.3">
<path opacity="0.3" d="M68.9462 258.639L29.1005 235.629C24.434 232.935 24.434 228.552 29.1005 225.858L68.9462 202.86C73.6127 200.166 81.2055 200.166 85.872 202.86L125.718 225.871C130.384 228.565 130.384 232.948 125.718 235.642L85.872 258.639C81.2055 261.334 73.6127 261.334 68.9462 258.639Z" fill="#FE815F"/>
</g>
</g>
<path d="M77.405 229.558C74.685 229.558 71.965 228.965 69.8896 227.766L30.0438 204.756C27.9813 203.557 26.834 201.945 26.834 200.218C26.834 198.491 27.9684 196.879 30.0438 195.681L69.8896 172.683C74.0275 170.298 80.7695 170.298 84.9075 172.683L124.753 195.693C126.816 196.892 127.963 198.504 127.963 200.231C127.963 201.958 126.829 203.57 124.753 204.769L84.9075 227.766C82.8449 228.965 80.1249 229.558 77.405 229.558ZM70.2505 227.16C74.1951 229.442 80.6277 229.442 84.5723 227.16L124.418 204.163C126.261 203.093 127.28 201.701 127.28 200.231C127.28 198.761 126.261 197.369 124.418 196.299L84.5723 173.289C80.6277 171.007 74.1951 171.007 70.2505 173.289L30.4048 196.286C28.5614 197.356 27.543 198.749 27.543 200.218C27.543 201.688 28.5614 203.08 30.4048 204.15L70.2505 227.16Z" fill="#F88340"/>
<path opacity="0.4" d="M129.214 191.398V177.76L126.713 176.368C126.004 180.634 120.989 183.432 116.8 184.025L88.2464 200.718L75.7809 205.217L36.0125 184.695L36.9278 184.167C33.5246 182.581 31.6941 178.946 29.8636 175.633L27.1823 177.231L25.5967 177.682V191.553C25.5967 193.319 26.7569 195.085 29.0901 196.439L68.9359 219.449C73.6024 222.143 81.1951 222.143 85.8616 219.449L125.707 196.452C128.002 195.124 129.162 193.396 129.201 191.656C129.214 191.553 129.214 191.476 129.214 191.398Z" fill="#F88340"/>
<path d="M129.215 179.276V170.252L126.714 168.86C126.005 173.127 120.99 175.924 116.801 176.517L88.2474 193.211L75.7819 197.71L36.0135 177.187L36.9288 176.659C33.5256 175.073 31.695 171.438 29.8645 168.125L27.1832 169.723L25.5977 170.175V179.43C25.5977 181.196 26.7578 182.962 29.0911 184.316L68.9368 207.326C73.6033 210.02 81.1961 210.02 85.8626 207.326L125.708 184.329C128.003 183.001 129.163 181.274 129.202 179.533C129.215 179.43 129.215 179.353 129.215 179.276Z" fill="url(#paint6_linear)"/>
<path opacity="0.3" d="M116.801 176.519L88.2475 193.213L77.4062 197.132V209.34C80.4743 209.34 83.5294 208.669 85.8627 207.316L125.708 184.318C128.003 182.991 129.163 181.263 129.202 179.523C129.202 179.446 129.202 179.368 129.202 179.291V170.267L126.92 169.004H126.675C125.915 173.181 120.952 175.939 116.801 176.519Z" fill="#FE815F"/>
<path d="M68.9491 198.135L29.1034 175.125C24.4369 172.431 24.4369 168.048 29.1034 165.354L68.9491 142.357C73.6157 139.662 81.2084 139.662 85.8749 142.357L125.721 165.367C130.387 168.061 130.387 172.444 125.721 175.138L85.8749 198.135C81.2084 200.83 73.6157 200.83 68.9491 198.135Z" fill="url(#paint7_linear)"/>
<path d="M68.9491 198.135L29.1034 175.125C24.4369 172.431 24.4369 168.048 29.1034 165.354L68.9491 142.357C73.6157 139.662 81.2084 139.662 85.8749 142.357L125.721 165.367C130.387 168.061 130.387 172.444 125.721 175.138L85.8749 198.135C81.2084 200.83 73.6157 200.83 68.9491 198.135Z" fill="#0E0D11"/>
<g opacity="0.51">
<path opacity="0.51" d="M68.9491 198.135L29.1034 175.125C24.4369 172.431 24.4369 168.048 29.1034 165.354L68.9491 142.357C73.6157 139.662 81.2084 139.662 85.8749 142.357L125.721 165.367C130.387 168.061 130.387 172.444 125.721 175.138L85.8749 198.135C81.2084 200.83 73.6157 200.83 68.9491 198.135Z" fill="#2B2B2B"/>
</g>
<path d="M125.708 175.132L85.8627 198.129C81.1962 200.824 73.6034 200.824 68.9369 198.129L29.0912 175.119C27.0028 173.92 25.8556 172.373 25.6364 170.801C25.3657 172.747 26.513 174.758 29.0912 176.254L68.9369 199.264C73.6034 201.958 81.1962 201.958 85.8627 199.264L125.708 176.254C128.287 174.758 129.434 172.76 129.163 170.801C128.944 172.386 127.797 173.92 125.708 175.132Z" fill="white"/>
<g opacity="0.3">
<path opacity="0.3" d="M235.96 310.389V301.365L233.459 299.973C232.75 304.24 227.735 307.037 223.546 307.63L194.993 324.324L182.527 328.823L142.759 308.301L143.674 307.772C140.271 306.186 138.44 302.551 136.61 299.238L133.928 300.837L132.343 301.288V310.544C132.343 312.31 133.503 314.076 135.836 315.429L175.682 338.439C180.348 341.134 187.941 341.134 192.608 338.439L232.453 315.442C234.748 314.114 235.908 312.387 235.947 310.647C235.96 310.544 235.96 310.466 235.96 310.389Z" fill="url(#paint8_linear)"/>
<path opacity="0.3" d="M223.56 307.629L195.006 324.322L184.165 328.241V340.449C187.233 340.449 190.288 339.779 192.621 338.425L232.467 315.428C234.762 314.1 235.922 312.373 235.961 310.632C235.961 310.555 235.961 310.478 235.961 310.4V301.377L233.679 300.113H233.434C232.661 304.29 227.71 307.049 223.56 307.629Z" fill="#FE815F"/>
<g opacity="0.3">
<path opacity="0.3" d="M175.694 329.245L135.849 306.235C131.182 303.54 131.182 299.158 135.849 296.463L175.694 273.466C180.361 270.772 187.953 270.772 192.62 273.466L232.466 296.463C237.132 299.158 237.132 303.54 232.466 306.235L192.62 329.232C187.953 331.939 180.361 331.939 175.694 329.245Z" fill="url(#paint9_linear)"/>
</g>
<g opacity="0.3">
<path opacity="0.3" d="M175.694 329.245L135.849 306.235C131.182 303.54 131.182 299.158 135.849 296.463L175.694 273.466C180.361 270.772 187.953 270.772 192.62 273.466L232.466 296.463C237.132 299.158 237.132 303.54 232.466 306.235L192.62 329.232C187.953 331.939 180.361 331.939 175.694 329.245Z" fill="#FE815F"/>
</g>
</g>
<path d="M184.164 295.777C181.444 295.777 178.724 295.184 176.648 293.985L136.803 270.988C134.74 269.789 133.593 268.178 133.593 266.45C133.593 264.723 134.727 263.112 136.803 261.913L176.648 238.915C180.786 236.518 187.528 236.518 191.666 238.915L231.512 261.913C233.575 263.112 234.722 264.723 234.722 266.45C234.722 268.178 233.587 269.789 231.512 270.988L191.666 293.985C189.604 295.184 186.884 295.777 184.164 295.777ZM184.151 237.794C181.56 237.794 178.969 238.361 176.996 239.508L137.151 262.506C135.307 263.576 134.289 264.968 134.289 266.438C134.289 267.907 135.307 269.299 137.151 270.369L176.996 293.367C180.941 295.648 187.374 295.648 191.318 293.367L231.164 270.369C233.007 269.299 234.026 267.907 234.026 266.438C234.026 264.968 233.007 263.563 231.164 262.506L191.318 239.508C189.346 238.374 186.755 237.794 184.151 237.794Z" fill="#F88340"/>
<path opacity="0.4" d="M235.959 257.621V243.982L233.458 242.59C232.749 246.857 227.734 249.654 223.545 250.247L194.992 266.941L182.526 271.44L142.758 250.918L143.673 250.389C140.27 248.804 138.439 245.168 136.609 241.855L133.927 243.454L132.342 243.905V257.776C132.342 259.542 133.502 261.308 135.835 262.661L175.681 285.672C180.347 288.366 187.94 288.366 192.607 285.672L232.452 262.674C234.747 261.347 235.907 259.619 235.946 257.879C235.959 257.763 235.959 257.686 235.959 257.621Z" fill="#F88340"/>
<path d="M235.959 245.487V236.463L233.458 235.071C232.749 239.325 227.734 242.135 223.545 242.728L194.992 259.422L182.526 263.921L142.758 243.398L143.673 242.87C140.27 241.284 138.439 237.649 136.609 234.336L133.927 235.934L132.342 236.386V245.641C132.342 247.407 133.502 249.173 135.835 250.527L175.681 273.537C180.347 276.231 187.94 276.231 192.607 273.537L232.452 250.54C234.747 249.212 235.907 247.485 235.946 245.744C235.959 245.641 235.959 245.564 235.959 245.487Z" fill="url(#paint10_linear)"/>
<path opacity="0.3" d="M223.559 242.715L195.005 259.408L184.164 263.327V275.535C187.232 275.535 190.287 274.865 192.62 273.511L232.466 250.514C234.761 249.186 235.921 247.458 235.96 245.718C235.96 245.641 235.96 245.563 235.96 245.486V236.463L233.678 235.199H233.433C232.66 239.376 227.709 242.135 223.559 242.715Z" fill="#FE815F"/>
<path d="M175.693 264.343L135.848 241.332C131.181 238.638 131.181 234.255 135.848 231.561L175.693 208.564C180.36 205.869 187.953 205.869 192.619 208.564L232.465 231.574C237.131 234.268 237.131 238.651 232.465 241.345L192.619 264.343C187.953 267.037 180.36 267.037 175.693 264.343Z" fill="url(#paint11_linear)"/>
<path d="M184.163 260.167C181.701 260.167 179.252 259.625 177.383 258.543L146.251 240.573C144.382 239.49 143.351 238.033 143.338 236.461C143.338 234.888 144.369 233.418 146.251 232.335L177.383 214.366C181.121 212.213 187.206 212.2 190.957 214.366L222.088 232.335C223.97 233.418 225.002 234.875 225.002 236.448C225.002 238.02 223.97 239.49 222.101 240.573L190.97 258.543C189.075 259.625 186.613 260.167 184.163 260.167ZM177.718 257.937C181.263 259.986 187.038 259.986 190.583 257.937L221.715 239.967C223.365 239.013 224.28 237.762 224.28 236.448C224.28 235.133 223.365 233.882 221.715 232.928L190.583 214.958C187.038 212.909 181.263 212.909 177.718 214.958L146.586 232.928C144.936 233.882 144.021 235.133 144.021 236.448C144.021 237.762 144.936 239.013 146.586 239.967L177.718 257.937Z" fill="white"/>
<path d="M232.465 241.335L192.619 264.333C187.953 267.027 180.36 267.027 175.694 264.333L135.848 241.322C133.76 240.124 132.612 238.577 132.393 237.004C132.123 238.95 133.27 240.961 135.848 242.457L175.694 265.467C180.36 268.161 187.953 268.161 192.619 265.467L232.465 242.47C235.043 240.974 236.191 238.976 235.92 237.017C235.701 238.589 234.541 240.136 232.465 241.335Z" fill="white"/>
<g opacity="0.3">
<path opacity="0.3" d="M235.961 171.135V162.111L233.46 160.719C232.751 164.986 227.736 167.783 223.547 168.376L194.994 185.07L182.528 189.569L142.76 169.047L143.675 168.518C140.272 166.933 138.441 163.297 136.611 159.984L133.929 161.583L132.344 162.034V171.29C132.344 173.056 133.504 174.822 135.837 176.175L175.683 199.173C180.349 201.867 187.942 201.867 192.609 199.173L232.454 176.175C234.749 174.848 235.909 173.12 235.948 171.38C235.961 171.277 235.961 171.199 235.961 171.135Z" fill="url(#paint12_linear)"/>
<path opacity="0.3" d="M223.561 168.363L195.007 185.057L184.166 188.976V201.183C187.234 201.183 190.289 200.513 192.622 199.159L232.468 176.162C234.763 174.834 235.923 173.107 235.962 171.367C235.962 171.289 235.962 171.212 235.962 171.135V162.111L233.68 160.848H233.435C232.662 165.024 227.711 167.783 223.561 168.363Z" fill="#FE815F"/>
<g opacity="0.3">
<path opacity="0.3" d="M175.695 189.995L135.849 166.985C131.183 164.29 131.183 159.908 135.849 157.213L175.695 134.216C180.362 131.522 187.954 131.522 192.621 134.216L232.467 157.226C237.133 159.92 237.133 164.303 232.467 166.998L192.621 189.995C187.954 192.689 180.362 192.689 175.695 189.995Z" fill="url(#paint13_linear)"/>
</g>
<g opacity="0.3">
<path opacity="0.3" d="M175.695 189.995L135.849 166.985C131.183 164.29 131.183 159.908 135.849 157.213L175.695 134.216C180.362 131.522 187.954 131.522 192.621 134.216L232.467 157.226C237.133 159.92 237.133 164.303 232.467 166.998L192.621 189.995C187.954 192.689 180.362 192.689 175.695 189.995Z" fill="#FE815F"/>
</g>
</g>
<path d="M184.164 162.43C181.444 162.43 178.724 161.837 176.648 160.638L136.803 137.628C134.74 136.429 133.593 134.817 133.593 133.09C133.593 131.363 134.727 129.751 136.803 128.553L176.648 105.555C180.786 103.17 187.528 103.157 191.666 105.555L231.512 128.553C233.575 129.751 234.722 131.363 234.722 133.09C234.722 134.817 233.587 136.429 231.512 137.628L191.666 160.625C189.604 161.824 186.884 162.43 184.164 162.43ZM184.151 104.447C181.56 104.447 178.969 105.014 176.996 106.161L137.151 129.158C135.307 130.228 134.289 131.621 134.289 133.09C134.289 134.56 135.307 135.965 137.151 137.022L176.996 160.032C180.941 162.314 187.374 162.314 191.318 160.032L231.164 137.035C233.007 135.965 234.026 134.573 234.026 133.103C234.026 131.633 233.007 130.228 231.164 129.171L191.318 106.174C189.346 105.014 186.755 104.447 184.151 104.447Z" fill="#F88340"/>
<path opacity="0.4" d="M235.961 124.254V110.615L233.46 109.223C232.751 113.49 227.736 116.287 223.547 116.88L194.994 133.574L182.528 138.073L142.76 117.551L143.675 117.022C140.272 115.436 138.441 111.801 136.611 108.488L133.929 110.087L132.344 110.538V124.409C132.344 126.175 133.504 127.941 135.837 129.294L175.683 152.304C180.349 154.999 187.942 154.999 192.609 152.304L232.454 129.307C234.749 127.979 235.909 126.252 235.948 124.512C235.961 124.409 235.961 124.331 235.961 124.254Z" fill="#F88340"/>
<path d="M235.961 112.119V103.096L233.46 101.704C232.751 105.97 227.736 108.768 223.547 109.361L194.994 126.054L182.528 130.553L142.76 110.031L143.675 109.503C140.272 107.917 138.441 104.282 136.611 100.969L133.929 102.567L132.344 103.018V112.274C132.344 114.04 133.504 115.806 135.837 117.16L175.683 140.17C180.349 142.864 187.942 142.864 192.609 140.17L232.454 117.173C234.749 115.845 235.909 114.117 235.948 112.377C235.961 112.274 235.961 112.197 235.961 112.119Z" fill="url(#paint14_linear)"/>
<path opacity="0.3" d="M223.561 109.363L195.007 126.057L184.166 129.976V142.183C187.234 142.183 190.289 141.513 192.622 140.159L232.468 117.162C234.763 115.834 235.923 114.107 235.962 112.367C235.962 112.289 235.962 112.212 235.962 112.135V103.111L233.68 101.848H233.435C232.662 106.024 227.711 108.783 223.561 109.363Z" fill="#FE815F"/>
<path d="M143.686 109.5L181.444 87.701C182.939 86.8374 185.363 86.8374 186.858 87.701L223.958 109.113L223.546 109.358C227.735 108.778 232.75 105.967 233.459 101.701L191.821 78.5485L179.704 75.3516L169.842 81.1525L136.609 100.966C138.466 104.279 140.296 107.914 143.686 109.5Z" fill="url(#paint15_linear)"/>
<path opacity="0.3" d="M184.166 76.5246L179.718 75.3516L169.857 81.1525L136.624 100.966C138.467 104.279 140.298 107.914 143.688 109.5L181.446 87.701C182.193 87.2756 183.173 87.0565 184.153 87.0565V76.5246H184.166Z" fill="#FE815F"/>
<path d="M175.696 130.978L135.85 107.981C131.184 105.287 131.184 100.904 135.85 98.2094L175.696 75.2121C180.363 72.5179 187.955 72.5179 192.622 75.2121L232.468 98.2094C237.134 100.904 237.134 105.287 232.468 107.981L192.622 130.978C187.955 133.672 180.363 133.672 175.696 130.978ZM186.873 78.525C185.377 77.6613 182.954 77.6613 181.458 78.525L141.613 101.522C140.117 102.386 140.117 103.791 141.613 104.655L181.458 127.665C182.954 128.529 185.377 128.529 186.873 127.665L226.718 104.668C228.214 103.804 228.214 102.399 226.718 101.535L186.873 78.525Z" fill="url(#paint16_linear)"/>
<path d="M226.717 101.545L186.872 78.5345C185.376 77.6708 182.953 77.6708 181.457 78.5345L141.612 101.532C140.619 102.112 140.284 102.924 140.619 103.659C140.787 103.298 141.109 102.95 141.612 102.653L181.457 79.656C182.953 78.7923 185.376 78.7923 186.872 79.656L226.717 102.666C227.22 102.95 227.542 103.298 227.71 103.672C228.032 102.937 227.71 102.112 226.717 101.545Z" fill="white"/>
<path d="M232.467 107.99L192.621 130.988C187.955 133.682 180.362 133.682 175.696 130.988L135.85 107.99C133.762 106.791 132.614 105.245 132.395 103.672C132.124 105.618 133.272 107.629 135.85 109.125L175.696 132.135C180.362 134.829 187.955 134.829 192.621 132.135L232.467 109.138C235.045 107.642 236.193 105.644 235.922 103.685C235.703 105.245 234.543 106.791 232.467 107.99Z" fill="white"/>
<path d="M176.831 130.336L136.985 107.326C132.937 104.993 132.937 101.19 136.985 98.8567L176.831 75.8593C180.879 73.5261 187.453 73.5261 191.501 75.8593L231.346 98.8696C235.394 101.203 235.394 105.006 231.346 107.339L191.501 130.336C187.453 132.669 180.866 132.669 176.831 130.336ZM187.994 77.8832C185.88 76.6585 182.438 76.6585 180.324 77.8832L140.478 100.881C138.364 102.105 138.364 104.09 140.478 105.302L180.324 128.299C182.438 129.524 185.88 129.524 187.994 128.299L227.84 105.302C229.954 104.077 229.954 102.092 227.84 100.881L187.994 77.8832Z" fill="url(#paint17_linear)"/>
<path opacity="0.4" d="M186.873 78.5306C185.377 77.6669 182.954 77.6669 181.458 78.5306L141.613 101.528C140.117 102.392 140.117 103.797 141.613 104.66L181.458 127.671C182.954 128.534 185.377 128.534 186.873 127.671L226.718 104.673C228.214 103.81 228.214 102.405 226.718 101.541L186.873 78.5306Z" fill="#F88340"/>
<g clip-path="url(#clip0)">
<path opacity="0.4" d="M76.618 187.832C69.4345 187.832 62.251 186.255 56.7841 183.097C51.4652 180.027 48.5352 175.935 48.5352 171.58C48.5352 167.225 51.4652 163.132 56.7841 160.062C67.7221 153.75 85.5138 153.75 96.4518 160.062C101.771 163.132 104.701 167.225 104.701 171.58C104.701 175.935 101.771 180.023 96.4518 183.097C90.9849 186.251 83.8014 187.832 76.618 187.832ZM76.618 155.551C69.4768 155.551 62.3356 157.12 56.8983 160.257C51.6512 163.284 48.7635 167.305 48.7635 171.576C48.7635 175.846 51.6512 179.867 56.8983 182.894C67.7728 189.173 85.4631 189.173 96.3376 182.894C101.585 179.867 104.472 175.846 104.472 171.576C104.472 167.305 101.585 163.284 96.3376 160.257C90.9004 157.12 83.7592 155.551 76.618 155.551Z" fill="#FBFAF9"/>
<path opacity="0.2" d="M76.6179 192.185C67.5021 192.185 58.3907 190.181 51.4482 186.177C44.7087 182.283 40.9922 177.099 40.9922 171.577C40.9922 166.059 44.7044 160.876 51.4482 156.982C65.3247 148.97 87.9068 148.97 101.783 156.982C108.527 160.876 112.244 166.059 112.244 171.577C112.244 177.095 108.531 182.278 101.788 186.172C94.8493 190.181 85.7336 192.185 76.6179 192.185ZM76.6179 151.198C67.5444 151.198 58.471 153.193 51.5666 157.181C44.8947 161.032 41.2205 166.144 41.2205 171.577C41.2205 177.01 44.8947 182.126 51.5666 185.974C65.3797 193.948 87.856 193.948 101.673 185.974C108.345 182.122 112.015 177.01 112.015 171.577C112.015 166.144 108.341 161.028 101.669 157.181C94.7647 153.193 85.6913 151.198 76.6179 151.198Z" fill="#FBFAF9"/>
<path d="M76.6176 184.4C70.9563 184.4 65.2949 183.157 60.9865 180.667C56.788 178.244 54.4795 175.014 54.4795 171.577C54.4795 168.139 56.7922 164.909 60.9865 162.486C69.6075 157.51 83.632 157.51 92.2488 162.486C96.4473 164.909 98.7558 168.139 98.7558 171.577C98.7558 175.014 96.443 178.244 92.2488 180.667C87.9404 183.157 82.279 184.4 76.6176 184.4ZM76.6176 158.981C70.9985 158.981 65.3794 160.216 61.1006 162.685C56.9783 165.065 54.7078 168.224 54.7078 171.577C54.7078 174.929 56.9783 178.088 61.1006 180.468C69.6582 185.407 83.577 185.407 92.1346 180.468C96.257 178.088 98.5275 174.929 98.5275 171.577C98.5275 168.224 96.257 165.065 92.1346 162.685C87.8558 160.216 82.2367 158.981 76.6176 158.981Z" fill="#FBFAF9"/>
</g>
<path opacity="0.2" d="M199.713 120.927L160.164 98.0846C157.315 96.4346 157.676 93.5728 160.963 91.6779C164.251 89.7829 169.226 89.5766 172.075 91.2138L211.625 114.056C214.473 115.706 214.113 118.568 210.825 120.463C207.538 122.371 202.562 122.577 199.713 120.927Z" fill="#F59663"/>
<path d="M158.243 35.4336V83.0397C158.256 84.0709 158.888 85.0506 160.164 85.7854L199.713 108.628C202.562 110.278 207.538 110.072 210.825 108.164C212.669 107.094 213.584 105.728 213.545 104.439V56.8196L158.243 35.4336Z" fill="url(#paint18_linear)"/>
<path opacity="0.3" d="M202.678 109.583C205.333 109.982 208.492 109.505 210.825 108.165C212.668 107.095 213.583 105.728 213.545 104.439V56.8204L202.884 52.6953H202.678V109.583Z" fill="url(#paint19_linear)"/>
<path d="M199.713 61.0171L160.164 38.1745C157.315 36.5244 157.676 33.6627 160.963 31.7677C164.251 29.8727 169.226 29.6665 172.075 31.3036L211.625 54.1463C214.473 55.7963 214.113 58.6581 210.825 60.5531C207.538 62.4609 202.562 62.6672 199.713 61.0171Z" fill="url(#paint20_linear)"/>
<path d="M203.657 57.9673C201.775 57.9673 200.241 56.4333 200.241 54.5512V33.3973C200.241 26.1784 194.969 17.0387 188.717 13.4293L179.642 8.18268C177.244 6.80335 175.078 6.45531 173.699 7.25454C172.32 8.05378 171.533 10.0905 171.533 12.8621V34.016C171.533 35.8981 169.999 37.4321 168.117 37.4321C166.235 37.4321 164.701 35.8981 164.701 34.016V12.875C164.701 7.52525 166.686 3.42594 170.283 1.35051C173.879 -0.724925 178.417 -0.402651 183.058 2.27866L192.133 7.52525C200.512 12.3593 207.074 23.7291 207.074 33.4102V54.5641C207.074 56.4333 205.552 57.9673 203.657 57.9673Z" fill="url(#paint21_linear)"/>
<path opacity="0.2" d="M196.713 252.927L157.164 230.085C154.315 228.435 154.676 225.573 157.963 223.678C161.251 221.783 166.226 221.577 169.075 223.214L208.625 246.056C211.473 247.706 211.113 250.568 207.825 252.463C204.538 254.371 199.562 254.577 196.713 252.927Z" fill="#24126A"/>
<path d="M155.243 167.434V215.04C155.256 216.071 155.888 217.051 157.164 217.785L196.713 240.628C199.562 242.278 204.538 242.072 207.825 240.164C209.669 239.094 210.584 237.728 210.545 236.439V188.82L155.243 167.434Z" fill="url(#paint22_linear)"/>
<path opacity="0.3" d="M199.678 241.583C202.333 241.982 205.492 241.505 207.825 240.165C209.668 239.095 210.583 237.728 210.545 236.439V188.82L199.884 184.695H199.678V241.583Z" fill="url(#paint23_linear)"/>
<path d="M196.713 193.017L157.164 170.174C154.315 168.524 154.676 165.663 157.963 163.768C161.251 161.873 166.226 161.666 169.075 163.304L208.625 186.146C211.473 187.796 211.113 190.658 207.825 192.553C204.538 194.461 199.562 194.667 196.713 193.017Z" fill="url(#paint24_linear)"/>
<path d="M200.657 189.967C198.775 189.967 197.241 188.433 197.241 186.551V165.397C197.241 158.178 191.969 149.039 185.717 145.429L176.642 140.183C174.244 138.803 172.078 138.455 170.699 139.255C169.32 140.054 168.533 142.091 168.533 144.862V166.016C168.533 167.898 166.999 169.432 165.117 169.432C163.235 169.432 161.701 167.898 161.701 166.016V144.875C161.701 139.525 163.686 135.426 167.283 133.351C170.879 131.275 175.417 131.597 180.058 134.279L189.133 139.525C197.512 144.359 204.074 155.729 204.074 165.41V186.564C204.074 188.433 202.552 189.967 200.657 189.967Z" fill="url(#paint25_linear)"/>
<path opacity="0.2" d="M306.713 184.927L267.164 162.085C264.315 160.435 264.676 157.573 267.963 155.678C271.251 153.783 276.226 153.577 279.075 155.214L318.625 178.056C321.473 179.706 321.113 182.568 317.825 184.463C314.538 186.371 309.562 186.577 306.713 184.927Z" fill="#24126A"/>
<path d="M265.243 99.4336V147.04C265.256 148.071 265.888 149.051 267.164 149.785L306.713 172.628C309.562 174.278 314.538 174.072 317.825 172.164C319.669 171.094 320.584 169.728 320.545 168.439V120.82L265.243 99.4336Z" fill="url(#paint26_linear)"/>
<path opacity="0.3" d="M309.678 173.583C312.333 173.982 315.492 173.505 317.825 172.165C319.668 171.095 320.583 169.728 320.545 168.439V120.82L309.884 116.695H309.678V173.583Z" fill="url(#paint27_linear)"/>
<path d="M306.713 125.017L267.164 102.174C264.315 100.524 264.676 97.6627 267.963 95.7677C271.251 93.8727 276.226 93.6665 279.075 95.3036L318.625 118.146C321.473 119.796 321.113 122.658 317.825 124.553C314.538 126.461 309.562 126.667 306.713 125.017Z" fill="url(#paint28_linear)"/>
<path d="M310.657 121.967C308.775 121.967 307.241 120.433 307.241 118.551V97.3973C307.241 90.1784 301.969 81.0387 295.717 77.4293L286.642 72.1827C284.244 70.8034 282.078 70.4553 280.699 71.2545C279.32 72.0538 278.533 74.0905 278.533 76.8621V98.016C278.533 99.8981 276.999 101.432 275.117 101.432C273.235 101.432 271.701 99.8981 271.701 98.016V76.875C271.701 71.5253 273.686 67.4259 277.283 65.3505C280.879 63.2751 285.417 63.5973 290.058 66.2787L299.133 71.5252C307.512 76.3593 314.074 87.7291 314.074 97.4102V118.564C314.074 120.433 312.552 121.967 310.657 121.967Z" fill="url(#paint29_linear)"/>
<path d="M49.343 215.463L0 243.934L0.34792 244.537L49.6909 216.066L49.343 215.463Z" fill="#F88340"/>
<defs>
<linearGradient id="paint0_linear" x1="250.608" y1="212.809" x2="332.809" y2="260.268" gradientUnits="userSpaceOnUse">
<stop stop-color="white"/>
<stop offset="0.1249" stop-color="#FFF4ED"/>
<stop offset="0.3757" stop-color="#FFD9BE"/>
<stop offset="0.7255" stop-color="#FEAD73"/>
<stop offset="1" stop-color="#FE8834"/>
</linearGradient>
<linearGradient id="paint1_linear" x1="240.3" y1="230.749" x2="343.905" y2="230.749" gradientUnits="userSpaceOnUse">
<stop stop-color="#F88340"/>
<stop offset="1" stop-color="#F88340"/>
</linearGradient>
<linearGradient id="paint2_linear" x1="250.605" y1="152.31" x2="332.807" y2="199.769" gradientUnits="userSpaceOnUse">
<stop stop-color="white"/>
<stop offset="0.1249" stop-color="#FFF4ED"/>
<stop offset="0.3757" stop-color="#FFD9BE"/>
<stop offset="0.7255" stop-color="#FEAD73"/>
<stop offset="1" stop-color="#FE8834"/>
</linearGradient>
<linearGradient id="paint3_linear" x1="240.298" y1="170.25" x2="343.903" y2="170.25" gradientUnits="userSpaceOnUse">
<stop stop-color="#F88340"/>
<stop offset="1" stop-color="#F88340"/>
</linearGradient>
<linearGradient id="paint4_linear" x1="35.9117" y1="212.809" x2="118.113" y2="260.268" gradientUnits="userSpaceOnUse">
<stop stop-color="white"/>
<stop offset="0.1249" stop-color="#FFF4ED"/>
<stop offset="0.3757" stop-color="#FFD9BE"/>
<stop offset="0.7255" stop-color="#FEAD73"/>
<stop offset="1" stop-color="#FE8834"/>
</linearGradient>
<linearGradient id="paint5_linear" x1="25.6038" y1="230.749" x2="129.209" y2="230.749" gradientUnits="userSpaceOnUse">
<stop stop-color="#F88340"/>
<stop offset="1" stop-color="#F88340"/>
</linearGradient>
<linearGradient id="paint6_linear" x1="35.9146" y1="152.31" x2="118.116" y2="199.769" gradientUnits="userSpaceOnUse">
<stop stop-color="white"/>
<stop offset="0.1249" stop-color="#FFF4ED"/>
<stop offset="0.3757" stop-color="#FFD9BE"/>
<stop offset="0.7255" stop-color="#FEAD73"/>
<stop offset="1" stop-color="#FE8834"/>
</linearGradient>
<linearGradient id="paint7_linear" x1="25.6067" y1="170.25" x2="129.212" y2="170.25" gradientUnits="userSpaceOnUse">
<stop stop-color="#F88340"/>
<stop offset="1" stop-color="#F88340"/>
</linearGradient>
<linearGradient id="paint8_linear" x1="142.663" y1="283.422" x2="224.865" y2="330.881" gradientUnits="userSpaceOnUse">
<stop stop-color="white"/>
<stop offset="0.1249" stop-color="#FFF4ED"/>
<stop offset="0.3757" stop-color="#FFD9BE"/>
<stop offset="0.7255" stop-color="#FEAD73"/>
<stop offset="1" stop-color="#FE8834"/>
</linearGradient>
<linearGradient id="paint9_linear" x1="132.355" y1="301.358" x2="235.96" y2="301.358" gradientUnits="userSpaceOnUse">
<stop stop-color="#F88340"/>
<stop offset="1" stop-color="#F88340"/>
</linearGradient>
<linearGradient id="paint10_linear" x1="142.662" y1="218.517" x2="224.864" y2="265.976" gradientUnits="userSpaceOnUse">
<stop stop-color="white"/>
<stop offset="0.1249" stop-color="#FFF4ED"/>
<stop offset="0.3757" stop-color="#FFD9BE"/>
<stop offset="0.7255" stop-color="#FEAD73"/>
<stop offset="1" stop-color="#FE8834"/>
</linearGradient>
<linearGradient id="paint11_linear" x1="132.354" y1="236.453" x2="235.959" y2="236.453" gradientUnits="userSpaceOnUse">
<stop stop-color="#F88340"/>
<stop offset="1" stop-color="#F88340"/>
</linearGradient>
<linearGradient id="paint12_linear" x1="142.664" y1="144.163" x2="224.866" y2="191.622" gradientUnits="userSpaceOnUse">
<stop stop-color="white"/>
<stop offset="0.1249" stop-color="#FFF4ED"/>
<stop offset="0.3757" stop-color="#FFD9BE"/>
<stop offset="0.7255" stop-color="#FEAD73"/>
<stop offset="1" stop-color="#FE8834"/>
</linearGradient>
<linearGradient id="paint13_linear" x1="132.356" y1="162.102" x2="235.961" y2="162.102" gradientUnits="userSpaceOnUse">
<stop stop-color="#F88340"/>
<stop offset="1" stop-color="#F88340"/>
</linearGradient>
<linearGradient id="paint14_linear" x1="142.664" y1="85.1568" x2="224.866" y2="132.616" gradientUnits="userSpaceOnUse">
<stop stop-color="white"/>
<stop offset="0.1249" stop-color="#FFF4ED"/>
<stop offset="0.3757" stop-color="#FFD9BE"/>
<stop offset="0.7255" stop-color="#FEAD73"/>
<stop offset="1" stop-color="#FE8834"/>
</linearGradient>
<linearGradient id="paint15_linear" x1="147.596" y1="81.9578" x2="220.904" y2="124.282" gradientUnits="userSpaceOnUse">
<stop offset="0.2421" stop-color="#FE8834"/>
<stop offset="0.2454" stop-color="#FE8936"/>
<stop offset="0.354" stop-color="#FEA86B"/>
<stop offset="0.464" stop-color="#FEC398"/>
<stop offset="0.5734" stop-color="#FFD8BD"/>
<stop offset="0.6821" stop-color="#FFE9DA"/>
<stop offset="0.7898" stop-color="#FFF5EF"/>
<stop offset="0.8963" stop-color="#FFFDFB"/>
<stop offset="1" stop-color="white"/>
</linearGradient>
<linearGradient id="paint16_linear" x1="132.357" y1="103.095" x2="235.962" y2="103.095" gradientUnits="userSpaceOnUse">
<stop stop-color="#F88340"/>
<stop offset="1" stop-color="#F88340"/>
</linearGradient>
<linearGradient id="paint17_linear" x1="133.948" y1="103.098" x2="234.372" y2="103.098" gradientUnits="userSpaceOnUse">
<stop stop-color="#F88340"/>
<stop offset="1" stop-color="#F88340"/>
</linearGradient>
<linearGradient id="paint18_linear" x1="165.168" y1="72.5835" x2="271.493" y2="72.9727" gradientUnits="userSpaceOnUse">
<stop stop-color="#F88340"/>
<stop offset="0.5754" stop-color="white"/>
</linearGradient>
<linearGradient id="paint19_linear" x1="202.679" y1="81.2105" x2="213.539" y2="81.2105" gradientUnits="userSpaceOnUse">
<stop stop-color="#E9E9FD"/>
<stop offset="0.0578" stop-color="#EADFEA"/>
<stop offset="0.2328" stop-color="#EFC3B7"/>
<stop offset="0.405" stop-color="#F2AC8C"/>
<stop offset="0.571" stop-color="#F59A6B"/>
<stop offset="0.729" stop-color="#F68D53"/>
<stop offset="0.8757" stop-color="#F88645"/>
<stop offset="1" stop-color="#F88340"/>
</linearGradient>
<linearGradient id="paint20_linear" x1="106.889" y1="46.1622" x2="243.352" y2="46.1622" gradientUnits="userSpaceOnUse">
<stop stop-color="#E9E9FD"/>
<stop offset="0.0578" stop-color="#EADFEA"/>
<stop offset="0.2328" stop-color="#EFC3B7"/>
<stop offset="0.405" stop-color="#F2AC8C"/>
<stop offset="0.571" stop-color="#F59A6B"/>
<stop offset="0.729" stop-color="#F68D53"/>
<stop offset="0.8757" stop-color="#F88645"/>
<stop offset="1" stop-color="#F88340"/>
</linearGradient>
<linearGradient id="paint21_linear" x1="144.597" y1="21.1941" x2="243.427" y2="38.167" gradientUnits="userSpaceOnUse">
<stop stop-color="white"/>
<stop offset="0.0917" stop-color="#FFFAF7"/>
<stop offset="0.2349" stop-color="#FEEBE1"/>
<stop offset="0.4118" stop-color="#FDD4BC"/>
<stop offset="0.6154" stop-color="#FBB38A"/>
<stop offset="0.839" stop-color="#F88A4A"/>
<stop offset="0.873" stop-color="#F88340"/>
</linearGradient>
<linearGradient id="paint22_linear" x1="162.168" y1="204.583" x2="268.493" y2="204.973" gradientUnits="userSpaceOnUse">
<stop stop-color="#F88340"/>
<stop offset="0.5754" stop-color="white"/>
</linearGradient>
<linearGradient id="paint23_linear" x1="199.679" y1="213.21" x2="210.539" y2="213.21" gradientUnits="userSpaceOnUse">
<stop stop-color="#E9E9FD"/>
<stop offset="0.0578" stop-color="#EADFEA"/>
<stop offset="0.2328" stop-color="#EFC3B7"/>
<stop offset="0.405" stop-color="#F2AC8C"/>
<stop offset="0.571" stop-color="#F59A6B"/>
<stop offset="0.729" stop-color="#F68D53"/>
<stop offset="0.8757" stop-color="#F88645"/>
<stop offset="1" stop-color="#F88340"/>
</linearGradient>
<linearGradient id="paint24_linear" x1="103.889" y1="178.162" x2="240.352" y2="178.162" gradientUnits="userSpaceOnUse">
<stop stop-color="#E9E9FD"/>
<stop offset="0.0578" stop-color="#EADFEA"/>
<stop offset="0.2328" stop-color="#EFC3B7"/>
<stop offset="0.405" stop-color="#F2AC8C"/>
<stop offset="0.571" stop-color="#F59A6B"/>
<stop offset="0.729" stop-color="#F68D53"/>
<stop offset="0.8757" stop-color="#F88645"/>
<stop offset="1" stop-color="#F88340"/>
</linearGradient>
<linearGradient id="paint25_linear" x1="141.597" y1="153.194" x2="240.427" y2="170.167" gradientUnits="userSpaceOnUse">
<stop stop-color="white"/>
<stop offset="0.0917" stop-color="#FFFAF7"/>
<stop offset="0.2349" stop-color="#FEEBE1"/>
<stop offset="0.4118" stop-color="#FDD4BC"/>
<stop offset="0.6154" stop-color="#FBB38A"/>
<stop offset="0.839" stop-color="#F88A4A"/>
<stop offset="0.873" stop-color="#F88340"/>
</linearGradient>
<linearGradient id="paint26_linear" x1="272.168" y1="136.583" x2="378.493" y2="136.973" gradientUnits="userSpaceOnUse">
<stop stop-color="#F88340"/>
<stop offset="0.5754" stop-color="white"/>
</linearGradient>
<linearGradient id="paint27_linear" x1="309.679" y1="145.21" x2="320.539" y2="145.21" gradientUnits="userSpaceOnUse">
<stop stop-color="#E9E9FD"/>
<stop offset="0.0578" stop-color="#EADFEA"/>
<stop offset="0.2328" stop-color="#EFC3B7"/>
<stop offset="0.405" stop-color="#F2AC8C"/>
<stop offset="0.571" stop-color="#F59A6B"/>
<stop offset="0.729" stop-color="#F68D53"/>
<stop offset="0.8757" stop-color="#F88645"/>
<stop offset="1" stop-color="#F88340"/>
</linearGradient>
<linearGradient id="paint28_linear" x1="213.889" y1="110.162" x2="350.352" y2="110.162" gradientUnits="userSpaceOnUse">
<stop stop-color="#E9E9FD"/>
<stop offset="0.0578" stop-color="#EADFEA"/>
<stop offset="0.2328" stop-color="#EFC3B7"/>
<stop offset="0.405" stop-color="#F2AC8C"/>
<stop offset="0.571" stop-color="#F59A6B"/>
<stop offset="0.729" stop-color="#F68D53"/>
<stop offset="0.8757" stop-color="#F88645"/>
<stop offset="1" stop-color="#F88340"/>
</linearGradient>
<linearGradient id="paint29_linear" x1="251.597" y1="85.1941" x2="350.427" y2="102.167" gradientUnits="userSpaceOnUse">
<stop stop-color="white"/>
<stop offset="0.0917" stop-color="#FFFAF7"/>
<stop offset="0.2349" stop-color="#FEEBE1"/>
<stop offset="0.4118" stop-color="#FDD4BC"/>
<stop offset="0.6154" stop-color="#FBB38A"/>
<stop offset="0.839" stop-color="#F88A4A"/>
<stop offset="0.873" stop-color="#F88340"/>
</linearGradient>
<clipPath id="clip0">
<rect width="71.2513" height="41.2109" fill="white" transform="translate(40.9932 150.973)"/>
</clipPath>
</defs>
</svg>
