<svg width="344" height="380" viewBox="0 0 344 380" fill="none" xmlns="http://www.w3.org/2000/svg">
<g clip-path="url(#clip0)">
<g opacity="0.3">
<path opacity="0.3" d="M343.915 278.807V269.783L341.414 268.391C340.705 272.658 335.69 275.455 331.501 276.048L302.948 292.742L290.482 297.241L250.714 276.719L251.629 276.19C248.226 274.604 246.395 270.969 244.565 267.656L241.883 269.255L240.298 269.706V278.962C240.298 280.728 241.458 282.494 243.791 283.847L283.637 306.857C288.304 309.552 295.896 309.552 300.563 306.857L340.409 283.86C342.703 282.532 343.863 280.805 343.902 279.065C343.915 278.962 343.915 278.884 343.915 278.807Z" fill="url(#paint0_linear)"/>
<path opacity="0.3" d="M331.501 276.031L302.948 292.725L292.106 296.644V308.851C295.174 308.851 298.23 308.181 300.563 306.827L340.409 283.83C342.703 282.502 343.863 280.775 343.902 279.035C343.902 278.957 343.902 278.88 343.902 278.803V269.779L341.62 268.516H341.375C340.615 272.692 335.652 275.451 331.501 276.031Z" fill="#FE815F"/>
<g opacity="0.3">
<path opacity="0.3" d="M283.649 297.667L243.804 274.656C239.137 271.962 239.137 267.579 243.804 264.885L283.649 241.888C288.316 239.194 295.909 239.194 300.575 241.888L340.421 264.898C345.087 267.592 345.087 271.975 340.421 274.669L300.575 297.667C295.909 300.361 288.316 300.361 283.649 297.667Z" fill="url(#paint1_linear)"/>
</g>
<g opacity="0.3">
<path opacity="0.3" d="M283.649 297.667L243.804 274.656C239.137 271.962 239.137 267.579 243.804 264.885L283.649 241.888C288.316 239.194 295.909 239.194 300.575 241.888L340.421 264.898C345.087 267.592 345.087 271.975 340.421 274.669L300.575 297.667C295.909 300.361 288.316 300.361 283.649 297.667Z" fill="#FE815F"/>
</g>
</g>
<path d="M292.105 268.585C289.385 268.585 286.665 267.992 284.59 266.793L244.744 243.783C242.681 242.584 241.534 240.973 241.534 239.245C241.534 237.518 242.669 235.907 244.744 234.708L284.59 211.71C288.728 209.326 295.47 209.326 299.608 211.71L339.453 234.721C341.516 235.92 342.663 237.531 342.663 239.258C342.663 240.986 341.529 242.597 339.453 243.796L299.608 266.793C297.545 267.992 294.825 268.585 292.105 268.585ZM292.105 210.615C289.514 210.615 286.923 211.182 284.951 212.329L245.105 235.327C243.262 236.397 242.243 237.789 242.243 239.258C242.243 240.728 243.262 242.12 245.105 243.19L284.951 266.2C288.895 268.482 295.328 268.482 299.273 266.2L339.118 243.203C340.962 242.133 341.98 240.741 341.98 239.271C341.98 237.802 340.962 236.409 339.118 235.339L299.273 212.329C297.3 211.182 294.696 210.615 292.105 210.615Z" fill="#F88340"/>
<path opacity="0.4" d="M343.913 230.426V216.787L341.412 215.395C340.703 219.662 335.689 222.459 331.499 223.052L302.946 239.746L290.48 244.245L250.712 223.722L251.627 223.194C248.224 221.608 246.393 217.973 244.563 214.66L241.881 216.259L240.296 216.71V230.58C240.296 232.346 241.456 234.113 243.789 235.466L283.635 258.476C288.302 261.17 295.894 261.17 300.561 258.476L340.407 235.479C342.701 234.151 343.861 232.424 343.9 230.684C343.913 230.58 343.913 230.503 343.913 230.426Z" fill="#F88340"/>
<path d="M343.912 218.303V209.279L341.411 207.887C340.702 212.154 335.688 214.951 331.498 215.544L302.945 232.238L290.479 236.737L250.711 216.215L251.626 215.686C248.223 214.101 246.392 210.465 244.562 207.152L241.88 208.751L240.295 209.202V218.458C240.295 220.224 241.455 221.99 243.788 223.343L283.634 246.354C288.301 249.048 295.893 249.048 300.56 246.354L340.406 223.356C342.7 222.028 343.86 220.301 343.899 218.561C343.912 218.458 343.912 218.38 343.912 218.303Z" fill="url(#paint2_linear)"/>
<path opacity="0.3" d="M331.499 215.547L302.946 232.24L292.104 236.159V248.367C295.173 248.367 298.228 247.697 300.561 246.343L340.407 223.346C342.701 222.018 343.861 220.29 343.9 218.55C343.9 218.473 343.9 218.396 343.9 218.318V209.295L341.618 208.031H341.373C340.613 212.208 335.65 214.967 331.499 215.547Z" fill="#FE815F"/>
<path d="M283.647 237.163L243.802 214.153C239.135 211.458 239.135 207.075 243.802 204.381L283.647 181.384C288.314 178.69 295.907 178.69 300.573 181.384L340.419 204.394C345.085 207.088 345.085 211.471 340.419 214.165L300.573 237.163C295.907 239.857 288.314 239.857 283.647 237.163Z" fill="url(#paint3_linear)"/>
<path d="M340.406 214.159L300.56 237.157C295.893 239.851 288.301 239.851 283.634 237.157L243.788 214.147C241.7 212.948 240.553 211.401 240.334 209.828C240.063 211.775 241.21 213.786 243.788 215.281L283.634 238.291C288.301 240.985 295.893 240.985 300.56 238.291L340.406 215.281C342.984 213.786 344.131 211.788 343.86 209.828C343.641 211.414 342.494 212.948 340.406 214.159Z" fill="white"/>
<g opacity="0.3">
<path opacity="0.3" d="M129.219 278.807V269.783L126.718 268.391C126.009 272.658 120.994 275.455 116.805 276.048L88.2513 292.742L75.7858 297.241L36.0174 276.719L36.9327 276.19C33.5295 274.604 31.699 270.969 29.8684 267.656L27.1871 269.255L25.6016 269.706V278.962C25.6016 280.728 26.7617 282.494 29.095 283.847L68.9407 306.857C73.6073 309.552 81.2 309.552 85.8665 306.857L125.712 283.86C128.007 282.532 129.167 280.805 129.206 279.065C129.219 278.962 129.219 278.884 129.219 278.807Z" fill="url(#paint4_linear)"/>
<path opacity="0.3" d="M116.805 276.031L88.2514 292.725L77.4102 296.644V308.851C80.4782 308.851 83.5333 308.181 85.8666 306.827L125.712 283.83C128.007 282.502 129.167 280.775 129.206 279.035C129.206 278.957 129.206 278.88 129.206 278.803V269.779L126.924 268.516H126.679C125.919 272.692 120.956 275.451 116.805 276.031Z" fill="#FE815F"/>
<g opacity="0.3">
<path opacity="0.3" d="M68.9531 297.667L29.1073 274.656C24.4408 271.962 24.4408 267.579 29.1073 264.885L68.9531 241.888C73.6196 239.194 81.2123 239.194 85.8788 241.888L125.725 264.898C130.391 267.592 130.391 271.975 125.725 274.669L85.8788 297.667C81.2123 300.361 73.6196 300.361 68.9531 297.667Z" fill="url(#paint5_linear)"/>
</g>
<g opacity="0.3">
<path opacity="0.3" d="M68.9531 297.667L29.1073 274.656C24.4408 271.962 24.4408 267.579 29.1073 264.885L68.9531 241.888C73.6196 239.194 81.2123 239.194 85.8788 241.888L125.725 264.898C130.391 267.592 130.391 271.975 125.725 274.669L85.8788 297.667C81.2123 300.361 73.6196 300.361 68.9531 297.667Z" fill="#FE815F"/>
</g>
</g>
<path d="M77.4118 268.585C74.6918 268.585 71.9718 267.992 69.8964 266.793L30.0507 243.783C27.9881 242.584 26.8408 240.973 26.8408 239.245C26.8408 237.518 27.9752 235.907 30.0507 234.708L69.8964 211.71C74.0344 209.326 80.7763 209.326 84.9143 211.71L124.76 234.721C126.823 235.92 127.97 237.531 127.97 239.258C127.97 240.986 126.835 242.597 124.76 243.796L84.9143 266.793C82.8518 267.992 80.1318 268.585 77.4118 268.585ZM70.2574 266.187C74.202 268.469 80.6345 268.469 84.5791 266.187L124.425 243.19C126.268 242.12 127.287 240.728 127.287 239.258C127.287 237.789 126.268 236.397 124.425 235.327L84.5791 212.316C80.6345 210.035 74.202 210.035 70.2574 212.316L30.4116 235.314C28.5682 236.384 27.5498 237.776 27.5498 239.245C27.5498 240.715 28.5682 242.107 30.4116 243.177L70.2574 266.187Z" fill="#F88340"/>
<path opacity="0.4" d="M129.221 230.426V216.787L126.72 215.395C126.011 219.662 120.996 222.459 116.807 223.052L88.2533 239.746L75.7878 244.245L36.0194 223.722L36.9346 223.194C33.5314 221.608 31.7009 217.973 29.8704 214.66L27.1891 216.259L25.6035 216.71V230.58C25.6035 232.346 26.7637 234.113 29.0969 235.466L68.9427 258.476C73.6092 261.17 81.2019 261.17 85.8684 258.476L125.714 235.479C128.009 234.151 129.169 232.424 129.208 230.684C129.221 230.58 129.221 230.503 129.221 230.426Z" fill="#F88340"/>
<path d="M129.221 218.303V209.279L126.721 207.887C126.012 212.154 120.997 214.951 116.808 215.544L88.2542 232.238L75.7887 236.737L36.0203 216.215L36.9356 215.686C33.5324 214.101 31.7019 210.465 29.8714 207.152L27.1901 208.751L25.6045 209.202V218.458C25.6045 220.224 26.7647 221.99 29.0979 223.343L68.9437 246.354C73.6102 249.048 81.2029 249.048 85.8694 246.354L125.715 223.356C128.01 222.028 129.17 220.301 129.209 218.561C129.222 218.458 129.221 218.38 129.221 218.303Z" fill="url(#paint6_linear)"/>
<path opacity="0.3" d="M116.808 215.547L88.2543 232.24L77.4131 236.159V248.367C80.4811 248.367 83.5363 247.697 85.8695 246.343L125.715 223.346C128.01 222.018 129.17 220.29 129.209 218.55C129.209 218.473 129.209 218.396 129.209 218.318V209.295L126.927 208.031H126.682C125.922 212.208 120.959 214.967 116.808 215.547Z" fill="#FE815F"/>
<path d="M68.956 237.163L29.1102 214.153C24.4437 211.458 24.4437 207.075 29.1102 204.381L68.956 181.384C73.6225 178.69 81.2152 178.69 85.8817 181.384L125.727 204.394C130.394 207.088 130.394 211.471 125.727 214.165L85.8817 237.163C81.2152 239.857 73.6225 239.857 68.956 237.163Z" fill="url(#paint7_linear)"/>
<path d="M68.956 237.163L29.1102 214.153C24.4437 211.458 24.4437 207.075 29.1102 204.381L68.956 181.384C73.6225 178.69 81.2152 178.69 85.8817 181.384L125.727 204.394C130.394 207.088 130.394 211.471 125.727 214.165L85.8817 237.163C81.2152 239.857 73.6225 239.857 68.956 237.163Z" fill="#0E0D11"/>
<g opacity="0.51">
<path opacity="0.51" d="M68.956 237.163L29.1102 214.153C24.4437 211.458 24.4437 207.075 29.1102 204.381L68.956 181.384C73.6225 178.69 81.2152 178.69 85.8817 181.384L125.727 204.394C130.394 207.088 130.394 211.471 125.727 214.165L85.8817 237.163C81.2152 239.857 73.6225 239.857 68.956 237.163Z" fill="#2B2B2B"/>
</g>
<path d="M125.715 214.159L85.8695 237.157C81.203 239.851 73.6103 239.851 68.9438 237.157L29.098 214.147C27.0097 212.948 25.8624 211.401 25.6432 209.828C25.3725 211.775 26.5198 213.786 29.098 215.281L68.9438 238.291C73.6103 240.985 81.203 240.985 85.8695 238.291L125.715 215.281C128.293 213.786 129.441 211.788 129.17 209.828C128.951 211.414 127.804 212.948 125.715 214.159Z" fill="white"/>
<g opacity="0.3">
<path opacity="0.3" d="M235.967 349.416V340.393L233.466 339C232.757 343.267 227.742 346.065 223.553 346.658L194.999 363.351L182.534 367.85L142.765 347.328L143.681 346.799C140.278 345.214 138.447 341.579 136.617 338.266L133.935 339.864L132.35 340.315V349.571C132.35 351.337 133.51 353.103 135.843 354.457L175.689 377.467C180.355 380.161 187.948 380.161 192.615 377.467L232.46 354.469C234.755 353.142 235.915 351.414 235.954 349.674C235.967 349.571 235.967 349.494 235.967 349.416Z" fill="url(#paint8_linear)"/>
<path opacity="0.3" d="M223.566 346.656L195.013 363.35L184.172 367.269V379.476C187.24 379.476 190.295 378.806 192.628 377.452L232.474 354.455C234.769 353.127 235.929 351.4 235.967 349.66C235.967 349.582 235.967 349.505 235.967 349.428V340.404L233.686 339.141H233.441C232.667 343.317 227.717 346.076 223.566 346.656Z" fill="#FE815F"/>
<g opacity="0.3">
<path opacity="0.3" d="M175.701 368.272L135.855 345.262C131.189 342.568 131.189 338.185 135.855 335.491L175.701 312.493C180.368 309.799 187.96 309.799 192.627 312.493L232.473 335.491C237.139 338.185 237.139 342.568 232.473 345.262L192.627 368.259C187.96 370.966 180.368 370.966 175.701 368.272Z" fill="url(#paint9_linear)"/>
</g>
<g opacity="0.3">
<path opacity="0.3" d="M175.701 368.272L135.855 345.262C131.189 342.568 131.189 338.185 135.855 335.491L175.701 312.493C180.368 309.799 187.96 309.799 192.627 312.493L232.473 335.491C237.139 338.185 237.139 342.568 232.473 345.262L192.627 368.259C187.96 370.966 180.368 370.966 175.701 368.272Z" fill="#FE815F"/>
</g>
</g>
<path d="M184.171 334.805C181.451 334.805 178.731 334.212 176.655 333.013L136.809 310.015C134.747 308.817 133.6 307.205 133.6 305.478C133.6 303.75 134.734 302.139 136.809 300.94L176.655 277.943C180.793 275.545 187.535 275.545 191.673 277.943L231.519 300.94C233.581 302.139 234.729 303.75 234.729 305.478C234.729 307.205 233.594 308.817 231.519 310.015L191.673 333.013C189.611 334.212 186.891 334.805 184.171 334.805ZM184.158 276.821C181.567 276.821 178.976 277.389 177.003 278.536L137.157 301.533C135.314 302.603 134.296 303.995 134.296 305.465C134.296 306.934 135.314 308.327 137.157 309.397L177.003 332.394C180.948 334.676 187.38 334.676 191.325 332.394L231.171 309.397C233.014 308.327 234.033 306.934 234.033 305.465C234.033 303.995 233.014 302.59 231.171 301.533L191.325 278.536C189.353 277.401 186.762 276.821 184.158 276.821Z" fill="#F88340"/>
<path opacity="0.4" d="M235.966 296.648V283.01L233.465 281.618C232.756 285.884 227.741 288.682 223.552 289.275L194.998 305.969L182.533 310.467L142.764 289.945L143.68 289.417C140.277 287.831 138.446 284.196 136.616 280.883L133.934 282.481L132.349 282.932V296.803C132.349 298.569 133.509 300.335 135.842 301.689L175.688 324.699C180.354 327.393 187.947 327.393 192.614 324.699L232.459 301.702C234.754 300.374 235.914 298.646 235.953 296.906C235.966 296.79 235.966 296.713 235.966 296.648Z" fill="#F88340"/>
<path d="M235.966 284.514V275.49L233.465 274.098C232.756 278.352 227.741 281.162 223.552 281.755L194.998 298.449L182.533 302.948L142.764 282.426L143.68 281.897C140.277 280.311 138.446 276.676 136.616 273.363L133.934 274.962L132.349 275.413V284.669C132.349 286.435 133.509 288.201 135.842 289.554L175.688 312.564C180.354 315.259 187.947 315.259 192.614 312.564L232.459 289.567C234.754 288.239 235.914 286.512 235.953 284.772C235.966 284.669 235.966 284.591 235.966 284.514Z" fill="url(#paint10_linear)"/>
<path opacity="0.3" d="M223.565 281.742L195.012 298.436L184.171 302.354V314.562C187.239 314.562 190.294 313.892 192.627 312.538L232.473 289.541C234.768 288.213 235.928 286.486 235.967 284.746C235.967 284.668 235.967 284.591 235.967 284.513V275.49L233.685 274.227H233.44C232.666 278.403 227.716 281.162 223.565 281.742Z" fill="#FE815F"/>
<path d="M175.7 303.37L135.854 280.36C131.188 277.665 131.188 273.283 135.854 270.588L175.7 247.591C180.367 244.897 187.959 244.897 192.626 247.591L232.472 270.601C237.138 273.295 237.138 277.678 232.472 280.372L192.626 303.37C187.959 306.064 180.367 306.064 175.7 303.37Z" fill="url(#paint11_linear)"/>
<path d="M184.17 299.194C181.708 299.194 179.259 298.653 177.39 297.57L146.258 279.6C144.389 278.517 143.358 277.061 143.345 275.488C143.345 273.915 144.376 272.446 146.258 271.363L177.39 253.393C181.128 251.24 187.212 251.227 190.964 253.393L222.095 271.363C223.977 272.446 225.009 273.902 225.009 275.475C225.009 277.048 223.977 278.517 222.108 279.6L190.977 297.57C189.082 298.653 186.619 299.194 184.17 299.194ZM177.725 296.964C181.27 299.014 187.045 299.014 190.59 296.964L221.721 278.994C223.371 278.04 224.287 276.79 224.287 275.475C224.287 274.16 223.371 272.91 221.721 271.956L190.59 253.986C187.045 251.936 181.27 251.936 177.725 253.986L146.593 271.956C144.943 272.91 144.028 274.16 144.028 275.475C144.028 276.79 144.943 278.04 146.593 278.994L177.725 296.964Z" fill="white"/>
<path d="M232.472 280.363L192.626 303.36C187.96 306.054 180.367 306.054 175.701 303.36L135.855 280.35C133.767 279.151 132.619 277.604 132.4 276.031C132.129 277.978 133.277 279.989 135.855 281.484L175.701 304.494C180.367 307.189 187.96 307.189 192.626 304.494L232.472 281.497C235.05 280.002 236.198 278.004 235.927 276.044C235.708 277.617 234.548 279.164 232.472 280.363Z" fill="white"/>
<g opacity="0.3">
<path opacity="0.3" d="M235.967 210.162V201.139L233.466 199.746C232.757 204.013 227.742 206.811 223.553 207.404L194.999 224.097L182.534 228.596L142.765 208.074L143.681 207.545C140.278 205.96 138.447 202.325 136.617 199.012L133.935 200.61L132.35 201.061V210.317C132.35 212.083 133.51 213.849 135.843 215.203L175.689 238.2C180.355 240.894 187.948 240.894 192.615 238.2L232.46 215.203C234.755 213.875 235.915 212.148 235.954 210.407C235.967 210.304 235.967 210.227 235.967 210.162Z" fill="url(#paint12_linear)"/>
<path opacity="0.3" d="M223.566 207.39L195.013 224.084L184.172 228.003V240.211C187.24 240.211 190.295 239.54 192.628 238.187L232.474 215.189C234.769 213.862 235.929 212.134 235.967 210.394C235.967 210.317 235.967 210.239 235.967 210.162V201.138L233.686 199.875H233.441C232.667 204.052 227.717 206.81 223.566 207.39Z" fill="#FE815F"/>
<g opacity="0.3">
<path opacity="0.3" d="M175.701 229.022L135.855 206.012C131.189 203.318 131.189 198.935 135.855 196.241L175.701 173.243C180.368 170.549 187.96 170.549 192.627 173.243L232.473 196.254C237.139 198.948 237.139 203.331 232.473 206.025L192.627 229.022C187.96 231.716 180.368 231.716 175.701 229.022Z" fill="url(#paint13_linear)"/>
</g>
<g opacity="0.3">
<path opacity="0.3" d="M175.701 229.022L135.855 206.012C131.189 203.318 131.189 198.935 135.855 196.241L175.701 173.243C180.368 170.549 187.96 170.549 192.627 173.243L232.473 196.254C237.139 198.948 237.139 203.331 232.473 206.025L192.627 229.022C187.96 231.716 180.368 231.716 175.701 229.022Z" fill="#FE815F"/>
</g>
</g>
<path d="M184.17 201.457C181.45 201.457 178.73 200.864 176.654 199.665L136.808 176.655C134.746 175.456 133.599 173.845 133.599 172.117C133.599 170.39 134.733 168.779 136.808 167.58L176.654 144.583C180.792 142.198 187.534 142.185 191.672 144.583L231.518 167.58C233.58 168.779 234.728 170.39 234.728 172.117C234.728 173.845 233.593 175.456 231.518 176.655L191.672 199.652C189.61 200.851 186.89 201.457 184.17 201.457ZM184.157 143.474C181.566 143.474 178.975 144.041 177.002 145.188L137.157 168.186C135.313 169.256 134.295 170.648 134.295 172.117C134.295 173.587 135.313 174.992 137.157 176.049L177.002 199.059C180.947 201.341 187.379 201.341 191.324 199.059L231.17 176.062C233.013 174.992 234.032 173.6 234.032 172.13C234.032 170.661 233.013 169.256 231.17 168.199L191.324 145.201C189.352 144.041 186.761 143.474 184.157 143.474Z" fill="#F88340"/>
<path opacity="0.4" d="M235.967 163.281V149.643L233.466 148.25C232.757 152.517 227.742 155.315 223.553 155.908L194.999 172.601L182.534 177.1L142.765 156.578L143.681 156.049C140.278 154.464 138.447 150.829 136.617 147.516L133.935 149.114L132.35 149.565V163.436C132.35 165.202 133.51 166.968 135.843 168.322L175.689 191.332C180.355 194.026 187.948 194.026 192.615 191.332L232.46 168.334C234.755 167.007 235.915 165.279 235.954 163.539C235.967 163.436 235.967 163.359 235.967 163.281Z" fill="#F88340"/>
<path d="M235.967 151.147V142.123L233.466 140.731C232.757 144.998 227.742 147.795 223.553 148.388L194.999 165.082L182.534 169.581L142.765 149.058L143.681 148.53C140.278 146.944 138.447 143.309 136.617 139.996L133.935 141.595L132.35 142.046V151.301C132.35 153.067 133.51 154.834 135.843 156.187L175.689 179.197C180.355 181.892 187.948 181.892 192.615 179.197L232.46 156.2C234.755 154.872 235.915 153.145 235.954 151.405C235.967 151.301 235.967 151.224 235.967 151.147Z" fill="url(#paint14_linear)"/>
<path opacity="0.3" d="M223.566 148.39L195.013 165.084L184.172 169.003V181.211C187.24 181.211 190.295 180.54 192.628 179.187L232.474 156.189C234.769 154.862 235.929 153.134 235.967 151.394C235.967 151.317 235.967 151.239 235.967 151.162V142.138L233.686 140.875H233.441C232.667 145.052 227.717 147.81 223.566 148.39Z" fill="#FE815F"/>
<path d="M143.692 148.527L181.45 126.728C182.945 125.865 185.369 125.865 186.864 126.728L223.964 148.14L223.551 148.385C227.741 147.805 232.756 144.995 233.465 140.728L191.827 117.576L179.709 114.379L169.848 120.18L136.615 139.993C138.472 143.306 140.302 146.941 143.692 148.527Z" fill="url(#paint15_linear)"/>
<path opacity="0.3" d="M184.171 115.552L179.724 114.379L169.863 120.18L136.63 139.993C138.473 143.306 140.304 146.941 143.694 148.527L181.452 126.728C182.199 126.303 183.179 126.084 184.159 126.084V115.552H184.171Z" fill="#FE815F"/>
<path d="M175.702 170.005L135.856 147.008C131.19 144.314 131.19 139.931 135.856 137.237L175.702 114.239C180.369 111.545 187.961 111.545 192.628 114.239L232.474 137.237C237.14 139.931 237.14 144.314 232.474 147.008L192.628 170.005C187.961 172.7 180.369 172.7 175.702 170.005ZM186.878 117.552C185.383 116.689 182.96 116.689 181.464 117.552L141.619 140.55C140.123 141.413 140.123 142.819 141.619 143.682L181.464 166.692C182.96 167.556 185.383 167.556 186.878 166.692L226.724 143.695C228.22 142.831 228.22 141.426 226.724 140.563L186.878 117.552Z" fill="url(#paint16_linear)"/>
<path d="M226.723 140.572L186.877 117.562C185.382 116.698 182.959 116.698 181.463 117.562L141.618 140.559C140.625 141.139 140.29 141.951 140.625 142.686C140.792 142.325 141.115 141.977 141.618 141.681L181.463 118.683C182.959 117.82 185.382 117.82 186.877 118.683L226.723 141.694C227.226 141.977 227.548 142.325 227.716 142.699C228.038 141.964 227.716 141.139 226.723 140.572Z" fill="white"/>
<path d="M232.473 147.018L192.627 170.015C187.961 172.709 180.368 172.709 175.702 170.015L135.856 147.018C133.767 145.819 132.62 144.272 132.401 142.699C132.13 144.646 133.278 146.657 135.856 148.152L175.702 171.162C180.368 173.857 187.961 173.857 192.627 171.162L232.473 148.165C235.051 146.67 236.199 144.672 235.928 142.712C235.709 144.272 234.548 145.819 232.473 147.018Z" fill="white"/>
<path d="M176.837 169.364L136.991 146.353C132.943 144.02 132.943 140.217 136.991 137.884L176.837 114.887C180.884 112.553 187.459 112.553 191.506 114.887L231.352 137.897C235.4 140.23 235.4 144.033 231.352 146.366L191.506 169.364C187.459 171.697 180.871 171.697 176.837 169.364ZM188 116.911C185.886 115.686 182.444 115.686 180.33 116.911L140.484 139.908C138.37 141.133 138.37 143.118 140.484 144.329L180.33 167.327C182.444 168.551 185.886 168.551 188 167.327L227.846 144.329C229.96 143.105 229.96 141.12 227.846 139.908L188 116.911Z" fill="url(#paint17_linear)"/>
<path opacity="0.4" d="M186.879 117.558C185.383 116.694 182.96 116.694 181.464 117.558L141.619 140.555C140.123 141.419 140.123 142.824 141.619 143.688L181.464 166.698C182.96 167.562 185.383 167.562 186.879 166.698L226.724 143.701C228.22 142.837 228.22 141.432 226.724 140.568L186.879 117.558Z" fill="#F88340"/>
<path opacity="0.2" d="M199.72 159.955L160.171 137.112C157.322 135.462 157.683 132.6 160.97 130.705C164.257 128.81 169.233 128.604 172.082 130.241L211.631 153.084C214.48 154.734 214.119 157.596 210.832 159.491C207.545 161.398 202.569 161.605 199.72 159.955Z" fill="#F59663"/>
<path d="M158.25 74.4609V122.067C158.263 123.098 158.895 124.078 160.171 124.813L199.72 147.655C202.569 149.305 207.545 149.099 210.832 147.191C212.675 146.121 213.591 144.755 213.552 143.466V95.8469L158.25 74.4609Z" fill="url(#paint18_linear)"/>
<path opacity="0.3" d="M202.685 148.61C205.34 149.01 208.498 148.533 210.832 147.192C212.675 146.122 213.59 144.756 213.552 143.467V95.8477L202.891 91.7227H202.685V148.61Z" fill="url(#paint19_linear)"/>
<path d="M199.72 100.044L160.171 77.2018C157.322 75.5518 157.683 72.69 160.97 70.795C164.257 68.9001 169.233 68.6938 172.082 70.331L211.631 93.1736C214.48 94.8237 214.119 97.6855 210.832 99.5804C207.545 101.488 202.569 101.695 199.72 100.044Z" fill="url(#paint20_linear)"/>
<path d="M203.664 96.9947C201.782 96.9947 200.248 95.4606 200.248 93.5786V72.4246C200.248 65.2057 194.976 56.0661 188.724 52.4566L179.649 47.21C177.251 45.8307 175.085 45.4826 173.706 46.2819C172.327 47.0811 171.54 49.1179 171.54 51.8894V73.0434C171.54 74.9254 170.006 76.4595 168.124 76.4595C166.242 76.4595 164.708 74.9254 164.708 73.0434V51.9023C164.708 46.5526 166.693 42.4533 170.29 40.3779C173.886 38.3024 178.424 38.6247 183.065 41.306L192.14 46.5526C200.519 51.3867 207.08 62.7564 207.08 72.4375V93.5915C207.08 95.4606 205.559 96.9947 203.664 96.9947Z" fill="url(#paint21_linear)"/>
<path opacity="0.2" d="M196.72 291.955L157.171 269.112C154.322 267.462 154.683 264.6 157.97 262.705C161.257 260.81 166.233 260.604 169.082 262.241L208.631 285.084C211.48 286.734 211.119 289.596 207.832 291.491C204.545 293.398 199.569 293.605 196.72 291.955Z" fill="#24126A"/>
<path d="M155.25 206.461V254.067C155.263 255.098 155.895 256.078 157.171 256.813L196.72 279.655C199.569 281.305 204.545 281.099 207.832 279.191C209.675 278.121 210.591 276.755 210.552 275.466V227.847L155.25 206.461Z" fill="url(#paint22_linear)"/>
<path opacity="0.3" d="M199.685 280.61C202.34 281.01 205.498 280.533 207.832 279.192C209.675 278.122 210.59 276.756 210.552 275.467V227.848L199.891 223.723H199.685V280.61Z" fill="url(#paint23_linear)"/>
<path d="M196.72 232.044L157.171 209.202C154.322 207.552 154.683 204.69 157.97 202.795C161.257 200.9 166.233 200.694 169.082 202.331L208.631 225.174C211.48 226.824 211.119 229.685 207.832 231.58C204.545 233.488 199.569 233.695 196.72 232.044Z" fill="url(#paint24_linear)"/>
<path d="M200.664 228.995C198.782 228.995 197.248 227.461 197.248 225.579V204.425C197.248 197.206 191.976 188.066 185.724 184.457L176.649 179.21C174.251 177.831 172.085 177.483 170.706 178.282C169.327 179.081 168.54 181.118 168.54 183.889V205.043C168.54 206.925 167.006 208.459 165.124 208.459C163.242 208.459 161.708 206.925 161.708 205.043V183.902C161.708 178.553 163.693 174.453 167.29 172.378C170.886 170.302 175.424 170.625 180.065 173.306L189.14 178.553C197.519 183.387 204.08 194.756 204.08 204.438V225.591C204.08 227.461 202.559 228.995 200.664 228.995Z" fill="url(#paint25_linear)"/>
<path opacity="0.2" d="M306.72 223.955L267.171 201.112C264.322 199.462 264.683 196.6 267.97 194.705C271.257 192.81 276.233 192.604 279.082 194.241L318.631 217.084C321.48 218.734 321.119 221.596 317.832 223.491C314.545 225.398 309.569 225.605 306.72 223.955Z" fill="#24126A"/>
<path d="M265.25 138.461V186.067C265.263 187.098 265.895 188.078 267.171 188.813L306.72 211.655C309.569 213.305 314.545 213.099 317.832 211.191C319.675 210.121 320.591 208.755 320.552 207.466V159.847L265.25 138.461Z" fill="url(#paint26_linear)"/>
<path opacity="0.3" d="M309.685 212.61C312.34 213.01 315.498 212.533 317.832 211.192C319.675 210.122 320.59 208.756 320.552 207.467V159.848L309.891 155.723H309.685V212.61Z" fill="url(#paint27_linear)"/>
<path d="M306.72 164.044L267.171 141.202C264.322 139.552 264.683 136.69 267.97 134.795C271.257 132.9 276.233 132.694 279.082 134.331L318.631 157.174C321.48 158.824 321.119 161.685 317.832 163.58C314.545 165.488 309.569 165.695 306.72 164.044Z" fill="url(#paint28_linear)"/>
<path d="M310.664 160.995C308.782 160.995 307.248 159.461 307.248 157.579V136.425C307.248 129.206 301.976 120.066 295.724 116.457L286.649 111.21C284.251 109.831 282.085 109.483 280.706 110.282C279.327 111.081 278.54 113.118 278.54 115.889V137.043C278.54 138.925 277.006 140.459 275.124 140.459C273.242 140.459 271.708 138.925 271.708 137.043V115.902C271.708 110.553 273.693 106.453 277.29 104.378C280.886 102.302 285.424 102.625 290.065 105.306L299.14 110.553C307.519 115.387 314.08 126.756 314.08 136.438V157.591C314.08 159.461 312.559 160.995 310.664 160.995Z" fill="url(#paint29_linear)"/>
<path d="M49.3498 254.49L0.00683594 282.961L0.354756 283.564L49.6977 255.093L49.3498 254.49Z" fill="#F88340"/>
</g>
<defs>
<linearGradient id="paint0_linear" x1="250.615" y1="251.836" x2="332.816" y2="299.296" gradientUnits="userSpaceOnUse">
<stop stop-color="white"/>
<stop offset="0.1249" stop-color="#FFF4ED"/>
<stop offset="0.3757" stop-color="#FFD9BE"/>
<stop offset="0.7255" stop-color="#FEAD73"/>
<stop offset="1" stop-color="#FE8834"/>
</linearGradient>
<linearGradient id="paint1_linear" x1="240.307" y1="269.776" x2="343.912" y2="269.776" gradientUnits="userSpaceOnUse">
<stop stop-color="#F88340"/>
<stop offset="1" stop-color="#F88340"/>
</linearGradient>
<linearGradient id="paint2_linear" x1="250.612" y1="191.337" x2="332.813" y2="238.797" gradientUnits="userSpaceOnUse">
<stop stop-color="white"/>
<stop offset="0.1249" stop-color="#FFF4ED"/>
<stop offset="0.3757" stop-color="#FFD9BE"/>
<stop offset="0.7255" stop-color="#FEAD73"/>
<stop offset="1" stop-color="#FE8834"/>
</linearGradient>
<linearGradient id="paint3_linear" x1="240.305" y1="209.277" x2="343.91" y2="209.277" gradientUnits="userSpaceOnUse">
<stop stop-color="#F88340"/>
<stop offset="1" stop-color="#F88340"/>
</linearGradient>
<linearGradient id="paint4_linear" x1="35.9185" y1="251.837" x2="118.12" y2="299.296" gradientUnits="userSpaceOnUse">
<stop stop-color="white"/>
<stop offset="0.1249" stop-color="#FFF4ED"/>
<stop offset="0.3757" stop-color="#FFD9BE"/>
<stop offset="0.7255" stop-color="#FEAD73"/>
<stop offset="1" stop-color="#FE8834"/>
</linearGradient>
<linearGradient id="paint5_linear" x1="25.6106" y1="269.776" x2="129.216" y2="269.776" gradientUnits="userSpaceOnUse">
<stop stop-color="#F88340"/>
<stop offset="1" stop-color="#F88340"/>
</linearGradient>
<linearGradient id="paint6_linear" x1="35.9215" y1="191.337" x2="118.123" y2="238.797" gradientUnits="userSpaceOnUse">
<stop stop-color="white"/>
<stop offset="0.1249" stop-color="#FFF4ED"/>
<stop offset="0.3757" stop-color="#FFD9BE"/>
<stop offset="0.7255" stop-color="#FEAD73"/>
<stop offset="1" stop-color="#FE8834"/>
</linearGradient>
<linearGradient id="paint7_linear" x1="25.6136" y1="209.277" x2="129.219" y2="209.277" gradientUnits="userSpaceOnUse">
<stop stop-color="#F88340"/>
<stop offset="1" stop-color="#F88340"/>
</linearGradient>
<linearGradient id="paint8_linear" x1="142.67" y1="322.45" x2="224.872" y2="369.909" gradientUnits="userSpaceOnUse">
<stop stop-color="white"/>
<stop offset="0.1249" stop-color="#FFF4ED"/>
<stop offset="0.3757" stop-color="#FFD9BE"/>
<stop offset="0.7255" stop-color="#FEAD73"/>
<stop offset="1" stop-color="#FE8834"/>
</linearGradient>
<linearGradient id="paint9_linear" x1="132.362" y1="340.385" x2="235.967" y2="340.385" gradientUnits="userSpaceOnUse">
<stop stop-color="#F88340"/>
<stop offset="1" stop-color="#F88340"/>
</linearGradient>
<linearGradient id="paint10_linear" x1="142.669" y1="257.544" x2="224.871" y2="305.003" gradientUnits="userSpaceOnUse">
<stop stop-color="white"/>
<stop offset="0.1249" stop-color="#FFF4ED"/>
<stop offset="0.3757" stop-color="#FFD9BE"/>
<stop offset="0.7255" stop-color="#FEAD73"/>
<stop offset="1" stop-color="#FE8834"/>
</linearGradient>
<linearGradient id="paint11_linear" x1="132.361" y1="275.48" x2="235.966" y2="275.48" gradientUnits="userSpaceOnUse">
<stop stop-color="#F88340"/>
<stop offset="1" stop-color="#F88340"/>
</linearGradient>
<linearGradient id="paint12_linear" x1="142.67" y1="183.19" x2="224.872" y2="230.649" gradientUnits="userSpaceOnUse">
<stop stop-color="white"/>
<stop offset="0.1249" stop-color="#FFF4ED"/>
<stop offset="0.3757" stop-color="#FFD9BE"/>
<stop offset="0.7255" stop-color="#FEAD73"/>
<stop offset="1" stop-color="#FE8834"/>
</linearGradient>
<linearGradient id="paint13_linear" x1="132.362" y1="201.13" x2="235.967" y2="201.13" gradientUnits="userSpaceOnUse">
<stop stop-color="#F88340"/>
<stop offset="1" stop-color="#F88340"/>
</linearGradient>
<linearGradient id="paint14_linear" x1="142.67" y1="124.184" x2="224.872" y2="171.643" gradientUnits="userSpaceOnUse">
<stop stop-color="white"/>
<stop offset="0.1249" stop-color="#FFF4ED"/>
<stop offset="0.3757" stop-color="#FFD9BE"/>
<stop offset="0.7255" stop-color="#FEAD73"/>
<stop offset="1" stop-color="#FE8834"/>
</linearGradient>
<linearGradient id="paint15_linear" x1="147.602" y1="120.985" x2="220.91" y2="163.309" gradientUnits="userSpaceOnUse">
<stop offset="0.2421" stop-color="#FE8834"/>
<stop offset="0.2454" stop-color="#FE8936"/>
<stop offset="0.354" stop-color="#FEA86B"/>
<stop offset="0.464" stop-color="#FEC398"/>
<stop offset="0.5734" stop-color="#FFD8BD"/>
<stop offset="0.6821" stop-color="#FFE9DA"/>
<stop offset="0.7898" stop-color="#FFF5EF"/>
<stop offset="0.8963" stop-color="#FFFDFB"/>
<stop offset="1" stop-color="white"/>
</linearGradient>
<linearGradient id="paint16_linear" x1="132.363" y1="142.123" x2="235.968" y2="142.123" gradientUnits="userSpaceOnUse">
<stop stop-color="#F88340"/>
<stop offset="1" stop-color="#F88340"/>
</linearGradient>
<linearGradient id="paint17_linear" x1="133.954" y1="142.126" x2="234.378" y2="142.126" gradientUnits="userSpaceOnUse">
<stop stop-color="#F88340"/>
<stop offset="1" stop-color="#F88340"/>
</linearGradient>
<linearGradient id="paint18_linear" x1="165.175" y1="111.611" x2="271.5" y2="112" gradientUnits="userSpaceOnUse">
<stop stop-color="#F88340"/>
<stop offset="0.5754" stop-color="white"/>
</linearGradient>
<linearGradient id="paint19_linear" x1="202.686" y1="120.238" x2="213.546" y2="120.238" gradientUnits="userSpaceOnUse">
<stop stop-color="#E9E9FD"/>
<stop offset="0.0578" stop-color="#EADFEA"/>
<stop offset="0.2328" stop-color="#EFC3B7"/>
<stop offset="0.405" stop-color="#F2AC8C"/>
<stop offset="0.571" stop-color="#F59A6B"/>
<stop offset="0.729" stop-color="#F68D53"/>
<stop offset="0.8757" stop-color="#F88645"/>
<stop offset="1" stop-color="#F88340"/>
</linearGradient>
<linearGradient id="paint20_linear" x1="106.895" y1="85.1895" x2="243.358" y2="85.1895" gradientUnits="userSpaceOnUse">
<stop stop-color="#E9E9FD"/>
<stop offset="0.0578" stop-color="#EADFEA"/>
<stop offset="0.2328" stop-color="#EFC3B7"/>
<stop offset="0.405" stop-color="#F2AC8C"/>
<stop offset="0.571" stop-color="#F59A6B"/>
<stop offset="0.729" stop-color="#F68D53"/>
<stop offset="0.8757" stop-color="#F88645"/>
<stop offset="1" stop-color="#F88340"/>
</linearGradient>
<linearGradient id="paint21_linear" x1="144.603" y1="60.2215" x2="243.433" y2="77.1944" gradientUnits="userSpaceOnUse">
<stop stop-color="white"/>
<stop offset="0.0917" stop-color="#FFFAF7"/>
<stop offset="0.2349" stop-color="#FEEBE1"/>
<stop offset="0.4118" stop-color="#FDD4BC"/>
<stop offset="0.6154" stop-color="#FBB38A"/>
<stop offset="0.839" stop-color="#F88A4A"/>
<stop offset="0.873" stop-color="#F88340"/>
</linearGradient>
<linearGradient id="paint22_linear" x1="162.175" y1="243.611" x2="268.5" y2="244" gradientUnits="userSpaceOnUse">
<stop stop-color="#F88340"/>
<stop offset="0.5754" stop-color="white"/>
</linearGradient>
<linearGradient id="paint23_linear" x1="199.686" y1="252.238" x2="210.546" y2="252.238" gradientUnits="userSpaceOnUse">
<stop stop-color="#E9E9FD"/>
<stop offset="0.0578" stop-color="#EADFEA"/>
<stop offset="0.2328" stop-color="#EFC3B7"/>
<stop offset="0.405" stop-color="#F2AC8C"/>
<stop offset="0.571" stop-color="#F59A6B"/>
<stop offset="0.729" stop-color="#F68D53"/>
<stop offset="0.8757" stop-color="#F88645"/>
<stop offset="1" stop-color="#F88340"/>
</linearGradient>
<linearGradient id="paint24_linear" x1="103.895" y1="217.19" x2="240.358" y2="217.19" gradientUnits="userSpaceOnUse">
<stop stop-color="#E9E9FD"/>
<stop offset="0.0578" stop-color="#EADFEA"/>
<stop offset="0.2328" stop-color="#EFC3B7"/>
<stop offset="0.405" stop-color="#F2AC8C"/>
<stop offset="0.571" stop-color="#F59A6B"/>
<stop offset="0.729" stop-color="#F68D53"/>
<stop offset="0.8757" stop-color="#F88645"/>
<stop offset="1" stop-color="#F88340"/>
</linearGradient>
<linearGradient id="paint25_linear" x1="141.603" y1="192.221" x2="240.433" y2="209.194" gradientUnits="userSpaceOnUse">
<stop stop-color="white"/>
<stop offset="0.0917" stop-color="#FFFAF7"/>
<stop offset="0.2349" stop-color="#FEEBE1"/>
<stop offset="0.4118" stop-color="#FDD4BC"/>
<stop offset="0.6154" stop-color="#FBB38A"/>
<stop offset="0.839" stop-color="#F88A4A"/>
<stop offset="0.873" stop-color="#F88340"/>
</linearGradient>
<linearGradient id="paint26_linear" x1="272.175" y1="175.611" x2="378.5" y2="176" gradientUnits="userSpaceOnUse">
<stop stop-color="#F88340"/>
<stop offset="0.5754" stop-color="white"/>
</linearGradient>
<linearGradient id="paint27_linear" x1="309.686" y1="184.238" x2="320.546" y2="184.238" gradientUnits="userSpaceOnUse">
<stop stop-color="#E9E9FD"/>
<stop offset="0.0578" stop-color="#EADFEA"/>
<stop offset="0.2328" stop-color="#EFC3B7"/>
<stop offset="0.405" stop-color="#F2AC8C"/>
<stop offset="0.571" stop-color="#F59A6B"/>
<stop offset="0.729" stop-color="#F68D53"/>
<stop offset="0.8757" stop-color="#F88645"/>
<stop offset="1" stop-color="#F88340"/>
</linearGradient>
<linearGradient id="paint28_linear" x1="213.895" y1="149.19" x2="350.358" y2="149.19" gradientUnits="userSpaceOnUse">
<stop stop-color="#E9E9FD"/>
<stop offset="0.0578" stop-color="#EADFEA"/>
<stop offset="0.2328" stop-color="#EFC3B7"/>
<stop offset="0.405" stop-color="#F2AC8C"/>
<stop offset="0.571" stop-color="#F59A6B"/>
<stop offset="0.729" stop-color="#F68D53"/>
<stop offset="0.8757" stop-color="#F88645"/>
<stop offset="1" stop-color="#F88340"/>
</linearGradient>
<linearGradient id="paint29_linear" x1="251.603" y1="124.221" x2="350.433" y2="141.194" gradientUnits="userSpaceOnUse">
<stop stop-color="white"/>
<stop offset="0.0917" stop-color="#FFFAF7"/>
<stop offset="0.2349" stop-color="#FEEBE1"/>
<stop offset="0.4118" stop-color="#FDD4BC"/>
<stop offset="0.6154" stop-color="#FBB38A"/>
<stop offset="0.839" stop-color="#F88A4A"/>
<stop offset="0.873" stop-color="#F88340"/>
</linearGradient>
<clipPath id="clip0">
<rect width="343.916" height="379.469" fill="white"/>
</clipPath>
</defs>
</svg>
