<svg width="12" height="12" viewBox="0 0 12 12" fill="none" xmlns="http://www.w3.org/2000/svg">
<path d="M9.87783 10.06C8.87565 10.9572 7.52495 11.5 6.06448 11.5C2.97073 11.5 0.5 9.08402 0.5 6.125C0.5 3.83621 1.96099 1.86988 4.05192 1.09494C3.69036 1.88449 3.49998 2.75514 3.49998 3.625C3.49998 7.163 6.34438 9.96441 9.87783 10.06Z" stroke="#F47a1b"/>
<path d="M9.59484 4.79421L9.75519 4.9213L9.99595 4.85911L10.0392 4.84793L9.95732 5.07008L10.0811 5.25H10.0644H9.83226L9.70077 5.40568L9.63249 5.17415L9.45607 5.11311L9.57833 5.03416L9.59484 4.79421Z" stroke="#f47a1b"/>
<mask id="path-3-inside-1" fill="white">
<path fill-rule="evenodd" clip-rule="evenodd" d="M7.09676 1.4375L7.61288 1.875L8.25804 1.6875L7.99998 2.25L8.38707 2.8125H7.74191L7.2903 3.3125L7.16127 2.6875L6.51611 2.4375L7.03224 2.125L7.09676 1.4375Z"/>
</mask>
<path d="M7.09676 1.4375L7.74337 0.674681L6.28032 -0.565484L6.10113 1.34407L7.09676 1.4375ZM7.61288 1.875L6.96627 2.63782L7.37608 2.9852L7.89196 2.83527L7.61288 1.875ZM8.25804 1.6875L9.16695 2.10449L10.0788 0.116967L7.97896 0.727232L8.25804 1.6875ZM7.99998 2.25L7.09106 1.83301L6.85428 2.34913L7.17619 2.8169L7.99998 2.25ZM8.38707 2.8125V3.8125H10.2891L9.21086 2.2456L8.38707 2.8125ZM7.74191 2.8125V1.8125H7.29761L6.99981 2.14222L7.74191 2.8125ZM7.2903 3.3125L6.31096 3.51469L6.70989 5.44701L8.03241 3.98278L7.2903 3.3125ZM7.16127 2.6875L8.14062 2.48531L8.03049 1.95187L7.52259 1.75506L7.16127 2.6875ZM6.51611 2.4375L5.99818 1.58208L4.25878 2.63523L6.15479 3.36994L6.51611 2.4375ZM7.03224 2.125L7.55017 2.98042L7.98083 2.71967L8.02787 2.21843L7.03224 2.125ZM6.45014 2.20032L6.96627 2.63782L8.25949 1.11218L7.74337 0.674681L6.45014 2.20032ZM7.89196 2.83527L8.53712 2.64777L7.97896 0.727232L7.3338 0.914732L7.89196 2.83527ZM7.34913 1.27051L7.09106 1.83301L8.90889 2.66699L9.16695 2.10449L7.34913 1.27051ZM7.17619 2.8169L7.56329 3.3794L9.21086 2.2456L8.82376 1.6831L7.17619 2.8169ZM8.38707 1.8125H7.74191V3.8125H8.38707V1.8125ZM6.99981 2.14222L6.5482 2.64222L8.03241 3.98278L8.48402 3.48278L6.99981 2.14222ZM8.26965 3.11031L8.14062 2.48531L6.18192 2.88969L6.31096 3.51469L8.26965 3.11031ZM7.52259 1.75506L6.87744 1.50506L6.15479 3.36994L6.79995 3.61994L7.52259 1.75506ZM7.03405 3.29292L7.55017 2.98042L6.51431 1.26958L5.99818 1.58208L7.03405 3.29292ZM8.02787 2.21843L8.09238 1.53093L6.10113 1.34407L6.03661 2.03157L8.02787 2.21843Z" fill="#F47a1b" mask="url(#path-3-inside-1)"/>
<path d="M10.8643 1.05253L10.9246 1.03457L10.91 1.06854L10.9389 1.10705L10.9255 1.10605L10.8278 1.23623L10.7885 1.11255L10.8225 1.09164V1.02008L10.8643 1.05253Z" stroke="#F47a1b"/>
</svg>
