<svg width="1132" height="506" viewBox="0 0 1132 506" fill="none" xmlns="http://www.w3.org/2000/svg">
<mask id="mask0" mask-type="alpha" maskUnits="userSpaceOnUse" x="0" y="0" width="1132" height="506">
<rect width="1132" height="506" rx="20" fill="#FBFAF9"/>
</mask>
<g mask="url(#mask0)">
<path fill-rule="evenodd" clip-rule="evenodd" d="M1113.58 -122.071C1173.81 -138.788 1237.15 -194.596 1291.66 -163.986C1344.72 -134.182 1339.02 -54.102 1342.76 6.64627C1345.75 55.1355 1319.46 97.3758 1310.7 145.161C1299.94 203.854 1329.97 277.995 1285.69 317.994C1242.03 357.432 1171.9 330.964 1113.58 323.221C1062.98 316.504 1010.99 308.963 971.757 276.317C933.938 244.85 926.773 192.88 904.315 149.107C876.009 93.9341 800.472 44.4567 823.204 -13.2368C846.402 -72.1122 936.014 -59.5209 995.269 -81.7301C1035.26 -96.7205 1072.42 -110.649 1113.58 -122.071Z" fill="#FAF2EB"/>
<g opacity="0.1" clip-path="url(#clip0)">
<path fill-rule="evenodd" clip-rule="evenodd" d="M1089.21 1.03125C1095.26 7.91875 1103.38 13.2426 1112.65 16.1583C1118.88 18.1176 1125.32 19.0715 1131.8 19.5316V20.119C1125.27 19.6588 1118.77 18.6964 1112.48 16.7174C1102.93 13.7136 1094.59 8.18699 1088.43 1.03125H1089.21" fill="#222222"/>
<path fill-rule="evenodd" clip-rule="evenodd" d="M1075.67 1.03125C1075.83 1.27105 1075.99 1.51107 1076.17 1.75087C1085.41 14.6058 1099.02 23.5568 1115.53 27.6362C1120.92 28.9651 1126.45 29.897 1131.8 30.6224V31.2123C1126.4 30.4867 1120.83 29.5467 1115.4 28.2062C1098.74 24.0933 1085.02 15.0629 1075.7 2.09264C1075.44 1.74 1075.2 1.3869 1074.95 1.03125H1075.67" fill="#222222"/>
<path fill-rule="evenodd" clip-rule="evenodd" d="M1131.8 44.0667C1130.55 43.7143 1129.31 43.3667 1128.07 43.0257C1114.95 39.3728 1101.38 35.5959 1089.58 28.2933C1078.4 21.3804 1069.91 11.9215 1061.71 1.03125H1062.44C1070.52 11.7238 1078.91 21.0051 1089.88 27.7939C1101.62 35.0541 1115.15 38.8194 1128.23 42.461C1129.41 42.7882 1130.6 43.1216 1131.8 43.4576V44.0667" fill="#222222"/>
<path fill-rule="evenodd" clip-rule="evenodd" d="M994.908 15.049C996.052 10.2473 997.864 5.51662 1000.2 1.03125H1000.85C998.473 5.55316 996.63 10.3324 995.473 15.1871C992.015 29.6877 993.743 45.1538 1001.07 65.3334C1007.57 83.2245 1014.98 99.1195 1023.07 112.578C1029.73 123.635 1037.95 132.586 1046.65 142.062C1048.9 144.515 1051.23 147.05 1053.51 149.604C1055.87 152.252 1058.23 154.987 1060.5 157.633C1063.69 161.336 1066.99 165.16 1070.35 168.811C1071 169.513 1071.67 170.253 1072.35 171.009C1076.65 175.785 1081.52 181.196 1087.29 183.246C1088.88 183.805 1090.49 184.093 1092.1 184.093H1092.1C1103.58 184.087 1112.98 169.697 1116.48 163.51C1122.8 152.354 1127.47 140.221 1131.8 128.267V129.969C1127.61 141.458 1123.07 153.071 1116.99 163.8C1112.57 171.597 1103.46 184.674 1092.1 184.674H1092.1C1090.43 184.674 1088.74 184.381 1087.1 183.799C1081.19 181.699 1076.26 176.229 1071.92 171.402C1071.24 170.648 1070.58 169.911 1069.93 169.209C1066.55 165.553 1063.26 161.723 1060.06 158.019C1057.79 155.374 1055.43 152.642 1053.07 149.994C1050.8 147.445 1048.47 144.91 1046.22 142.46C1037.5 132.962 1029.26 123.99 1022.58 112.883C1014.46 99.3905 1007.04 83.4615 1000.53 65.5339C993.156 45.2416 991.422 29.6711 994.908 15.049" fill="#222222"/>
<path fill-rule="evenodd" clip-rule="evenodd" d="M1131.8 63.1348C1131.41 62.6492 1130.99 62.1724 1130.52 61.7092C1125.01 56.2048 1117.81 52.8714 1110.85 49.6479C1109.89 49.1986 1108.93 48.753 1107.97 48.3014C1095.93 42.6272 1080.32 34.5121 1066.4 22.0353C1064 19.8871 1061.65 17.4879 1059.17 14.9473C1054.12 9.79573 1048.96 4.53177 1043.08 1.03125H1044.21C1049.79 4.5542 1054.74 9.59524 1059.58 14.538C1062.06 17.0701 1064.4 19.4611 1066.79 21.5978C1080.66 34.0265 1096.21 42.1134 1108.22 47.7707C1109.17 48.2223 1110.13 48.6679 1111.1 49.1142C1118.1 52.3604 1125.34 55.7166 1130.93 61.2941C1131.24 61.5996 1131.53 61.9129 1131.8 62.2313V63.1348" fill="#222222"/>
<path fill-rule="evenodd" clip-rule="evenodd" d="M1003.85 17.9846C1006 11.6082 1010.14 5.20052 1015.79 1.03125H1016.8C1010.91 5.09877 1006.6 11.6503 1004.4 18.1708C1000.48 29.8265 1001.05 43.3894 1006.13 59.6373C1010.87 74.7558 1018.31 90.7949 1027.65 106.018C1035.88 119.426 1046.3 129.853 1059.43 141.384C1060.01 141.898 1060.62 142.435 1061.24 142.988C1069.61 150.406 1081.08 160.568 1092.25 160.568H1092.25C1094.02 160.568 1095.74 160.303 1097.36 159.783C1108.48 156.221 1114.89 144.989 1120.16 133.379C1125.18 122.328 1128.71 110.633 1131.8 98.9863V101.234C1128.84 112.208 1125.42 123.194 1120.69 133.625C1115.37 145.353 1108.88 156.709 1097.54 160.342C1095.86 160.879 1094.08 161.153 1092.25 161.153C1092.25 161.153 1092.25 161.153 1092.25 161.153C1080.86 161.153 1069.3 150.909 1060.86 143.428C1060.23 142.875 1059.63 142.339 1059.05 141.828C1045.88 130.26 1035.42 119.796 1027.16 106.326C1017.79 91.0629 1010.33 74.9792 1005.58 59.8126C1000.46 43.4431 999.891 29.7583 1003.85 17.9846" fill="#222222"/>
<path fill-rule="evenodd" clip-rule="evenodd" d="M1030.69 16.7528C1037.38 16.7528 1045.34 20.3433 1054.34 27.4229C1067.75 37.9714 1082.03 47.1119 1095.46 55.419C1096.26 55.9187 1097.08 56.4186 1097.9 56.9181C1103.2 60.1388 1108.67 63.4726 1112.78 68.1217C1118.54 74.648 1119.97 83.1107 1120.16 89.0612C1120.21 90.7063 1120.2 92.5049 1120.11 94.5594C1117.7 109.862 1113.95 125.472 1102.9 135.752C1098.93 139.444 1094.27 141.319 1089.05 141.319H1089.05C1079.43 141.319 1069.55 135.086 1062.95 130.397C1040.84 114.686 1023.93 89.3149 1015.34 58.9646C1012.32 48.3171 1009.26 33.0344 1017.41 23.2766C1021.03 18.9489 1025.49 16.7528 1030.69 16.7528ZM1089.04 141.901H1089.05C1094.42 141.901 1099.21 139.976 1103.29 136.179C1114.47 125.777 1118.26 110.055 1120.69 94.6142C1120.78 92.5111 1120.79 90.6989 1120.74 89.039C1120.55 82.9926 1119.08 74.3865 1113.21 67.7302C1109.05 63.0164 1103.53 59.6599 1098.2 56.4138C1097.38 55.9143 1096.57 55.4171 1095.76 54.9179C1082.34 46.6187 1068.08 37.4898 1054.69 26.9586C1045.59 19.7968 1037.51 16.1641 1030.68 16.1641C1025.31 16.1641 1020.69 18.4309 1016.96 22.8962C1008.63 32.8691 1011.72 48.3465 1014.77 59.1235C1023.4 89.6009 1040.39 115.085 1062.61 130.875C1069.27 135.609 1079.26 141.901 1089.04 141.901V141.901Z" fill="#222222"/>
<path opacity="0.7" fill-rule="evenodd" clip-rule="evenodd" d="M1106.06 100.355C1104.94 107.245 1101.68 119.307 1092.4 123.31C1089.83 124.414 1087.08 124.973 1084.21 124.973C1076.43 124.973 1067.56 120.953 1057.85 113.021C1042.12 100.18 1029.9 78.0326 1026.72 56.5966C1025.72 49.8844 1025.68 41.2098 1031.14 37.9806C1032.84 36.9758 1034.8 36.4648 1036.97 36.4648C1044.4 36.4648 1053.19 42.336 1059.01 46.2201C1059.66 46.6579 1060.29 47.073 1060.87 47.4598C1064.24 49.6728 1067.73 51.8203 1071.1 53.895C1077.92 58.0985 1084.98 62.4451 1091.34 67.5123C1095.9 71.1481 1099.7 75.4977 1103.28 81.1941C1106.49 86.3036 1106.29 92.6967 1106.1 98.8789C1106.09 99.3726 1106.07 99.8668 1106.06 100.355ZM1084.21 127.317H1084.21C1087.4 127.314 1090.46 126.694 1093.31 125.463C1103.65 121.006 1107.19 108.004 1108.37 100.651L1108.38 100.496C1108.4 99.9846 1108.41 99.4708 1108.43 98.9514C1108.62 92.719 1108.84 85.6563 1105.25 79.9402C1101.52 74.0122 1097.56 69.4787 1092.78 65.6739C1086.31 60.5195 1079.19 56.1356 1072.31 51.8959C1068.96 49.8267 1065.48 47.6903 1062.15 45.4967C1061.56 45.1131 1060.94 44.7008 1060.29 44.2661C1054.24 40.2268 1045.1 34.1211 1036.97 34.1211C1034.38 34.1211 1032.02 34.7394 1029.96 35.9588C1024.68 39.0835 1022.82 46.1431 1024.42 56.9404C1027.68 78.9239 1040.23 101.653 1056.38 114.841C1066.52 123.12 1075.88 127.317 1084.21 127.317V127.317Z" fill="#222222"/>
<path fill-rule="evenodd" clip-rule="evenodd" d="M1052.7 62.9134C1058.4 62.9134 1066.18 66.9018 1069.11 68.4037C1076.09 71.9769 1092.09 81.9954 1089.98 97.8025C1087.87 105.531 1082.42 107.16 1078.23 107.16C1074.22 107.163 1069.47 105.636 1065.19 102.971C1059.66 99.5305 1054.91 94.5112 1051.46 88.4534C1049.68 85.3317 1044.07 74.5462 1046.58 66.7978C1047.41 64.2206 1049.47 62.9134 1052.7 62.9134ZM1078.22 107.746V107.746C1082.62 107.746 1088.33 106.041 1090.55 97.9177C1092.71 81.7008 1076.46 71.5107 1069.38 67.8807C1066.41 66.3621 1058.54 62.3281 1052.7 62.3281C1049.19 62.3281 1046.94 63.7704 1046.02 66.616C1043.44 74.5931 1049.15 85.5706 1050.95 88.7434C1054.45 94.8856 1059.27 99.978 1064.88 103.47C1069.25 106.188 1074.11 107.746 1078.22 107.746V107.746Z" fill="#222222"/>
</g>
</g>
<mask id="mask1" mask-type="alpha" maskUnits="userSpaceOnUse" x="0" y="0" width="1132" height="506">
<path d="M1132 486C1132 497.046 1123.05 506 1112 506H20C8.95429 506 0 497.046 0 486V20C0 8.9543 8.95431 0 20 0H1112C1123.05 0 1132 8.95431 1132 20V486Z" fill="#FBFAF9"/>
</mask>
<g mask="url(#mask1)">
<path fill-rule="evenodd" clip-rule="evenodd" d="M18.4186 628.071C-41.8147 644.788 -105.154 700.596 -159.656 669.986C-212.722 640.182 -207.022 560.102 -210.765 499.354C-213.752 450.864 -187.462 408.624 -178.701 360.839C-167.941 302.146 -197.966 228.005 -153.686 188.006C-110.026 148.568 -39.904 175.036 18.4186 182.779C69.0169 189.496 121.006 197.037 160.243 229.683C198.062 261.15 205.227 313.12 227.685 356.893C255.991 412.066 331.528 461.543 308.796 519.237C285.598 578.112 195.986 565.521 136.731 587.73C96.7355 602.72 59.5752 616.649 18.4186 628.071Z" fill="#FAF2EB"/>
<g opacity="0.1" clip-path="url(#clip1)">
<path fill-rule="evenodd" clip-rule="evenodd" d="M42.7889 504.969C36.7397 498.081 28.6243 492.757 19.3488 489.842C13.1162 487.882 6.68027 486.929 0.196289 486.468L0.196289 485.881C6.73114 486.341 13.226 487.304 19.5211 489.283C29.0729 492.286 37.4114 497.813 43.5654 504.969H42.7889" fill="#222222"/>
<path fill-rule="evenodd" clip-rule="evenodd" d="M56.335 504.969C56.1657 504.729 56.005 504.489 55.8327 504.249C46.594 491.394 32.9797 482.443 16.4668 478.364C11.0808 477.035 5.5539 476.103 0.196289 475.378V474.788C5.59622 475.513 11.1707 476.453 16.6049 477.794C33.2567 481.907 46.9836 490.937 56.3045 503.907C56.5581 504.26 56.8009 504.613 57.0468 504.969H56.335" fill="#222222"/>
<path fill-rule="evenodd" clip-rule="evenodd" d="M0.196289 461.933C1.44661 462.286 2.69415 462.633 3.92504 462.974C17.0479 466.627 30.6171 470.404 42.4247 477.707C53.5971 484.62 62.0936 494.078 70.2938 504.969H69.5626C61.4813 494.276 53.0918 484.995 42.1202 478.206C30.3829 470.946 16.853 467.181 3.76988 463.539C2.5931 463.212 1.39573 462.878 0.196289 462.542L0.196289 461.933" fill="#222222"/>
<path fill-rule="evenodd" clip-rule="evenodd" d="M137.092 490.951C135.948 495.753 134.136 500.483 131.799 504.969H131.147C133.527 500.447 135.37 495.668 136.527 490.813C139.985 476.312 138.257 460.846 130.927 440.667C124.426 422.775 117.025 406.88 108.926 393.422C102.273 382.365 94.0533 373.414 85.3506 363.938C83.1006 361.485 80.772 358.95 78.4936 356.396C76.1287 353.748 73.774 351.013 71.4963 348.367C68.3093 344.664 65.0123 340.84 61.6477 337.189C60.9956 336.487 60.332 335.747 59.6521 334.991C55.3529 330.215 50.4807 324.804 44.7052 322.754C43.1249 322.195 41.5102 321.907 39.9014 321.907H39.8984C28.415 321.913 19.0209 336.303 15.5153 342.49C9.19501 353.646 4.53205 365.779 0.196289 377.733L0.196289 376.031C4.38798 364.542 8.93255 352.929 15.01 342.2C19.4279 334.403 28.5364 321.326 39.8984 321.326H39.9014C41.5749 321.326 43.2572 321.619 44.8974 322.201C50.8141 324.301 55.7368 329.771 60.0811 334.598C60.7616 335.352 61.4246 336.089 62.0739 336.791C65.447 340.447 68.7441 344.277 71.9368 347.981C74.2117 350.626 76.5658 353.358 78.926 356.006C81.201 358.555 83.5296 361.09 85.7793 363.54C94.5019 373.038 102.741 382.01 109.423 393.117C117.541 406.609 124.959 422.538 131.474 440.466C138.844 460.758 140.578 476.329 137.092 490.951" fill="#222222"/>
<path fill-rule="evenodd" clip-rule="evenodd" d="M0.196289 442.865C0.591479 443.351 1.01465 443.828 1.47782 444.291C6.99337 449.795 14.1886 453.129 21.1467 456.352C22.1091 456.801 23.0745 457.247 24.0314 457.699C36.0709 463.373 51.675 471.488 65.5996 483.965C67.996 486.113 70.3477 488.512 72.834 491.053C77.8843 496.204 83.0444 501.468 88.9156 504.969H87.7948C82.2057 501.446 77.2634 496.405 72.4224 491.462C69.9412 488.93 67.5953 486.539 65.213 484.402C51.3421 471.974 35.7858 463.887 23.7833 458.229C22.8289 457.778 21.8663 457.332 20.9009 456.886C13.8977 453.64 6.65761 450.283 1.06853 444.706C0.760978 444.4 0.473084 444.087 0.196289 443.769L0.196289 442.865" fill="#222222"/>
<path fill-rule="evenodd" clip-rule="evenodd" d="M128.146 488.015C126.004 494.392 121.857 500.799 116.206 504.969H115.195C121.086 500.901 125.403 494.35 127.596 487.829C131.517 476.174 130.949 462.611 125.866 446.363C121.132 431.244 113.694 415.205 104.35 399.982C96.1222 386.574 85.6951 376.147 72.5715 364.616C71.9877 364.102 71.3837 363.565 70.757 363.012C62.3873 355.594 50.924 345.432 39.7546 345.432H39.7516C37.9845 345.432 36.2629 345.697 34.6365 346.217C23.515 349.779 17.1074 361.011 11.8374 372.621C6.82133 383.672 3.29029 395.367 0.196289 407.014L0.196289 404.766C3.16287 393.792 6.57552 382.806 11.3097 372.375C16.6333 360.647 23.1224 349.291 34.4615 345.658C36.1442 345.121 37.9225 344.847 39.7516 344.847C39.7546 344.847 39.7546 344.847 39.7546 344.847C51.1443 344.847 62.7034 355.091 71.1409 362.572C71.7675 363.125 72.3715 363.661 72.9526 364.172C86.1183 375.74 96.5796 386.204 104.845 399.674C114.213 414.937 121.674 431.021 126.419 446.187C131.545 462.557 132.109 476.242 128.146 488.015" fill="#222222"/>
<path fill-rule="evenodd" clip-rule="evenodd" d="M101.314 489.247C94.6215 489.247 86.6638 485.657 77.6623 478.577C64.2515 468.029 49.9735 458.888 36.5429 450.581C35.7354 450.081 34.9168 449.581 34.0959 449.082C28.8 445.861 23.327 442.527 19.2225 437.878C13.4641 431.352 12.0275 422.889 11.8383 416.939C11.7877 415.294 11.8015 413.495 11.8864 411.441C14.2971 396.138 18.0543 380.528 29.0995 370.248C33.071 366.556 37.7317 364.681 42.9508 364.681H42.9536C52.5708 364.681 62.4501 370.914 69.0474 375.603C91.1579 391.314 108.069 416.685 116.664 447.035C119.679 457.683 122.744 472.966 114.593 482.723C110.973 487.051 106.508 489.247 101.314 489.247ZM42.9555 364.099H42.9527C37.5808 364.099 32.7879 366.024 28.7088 369.821C17.5306 380.223 13.7401 395.945 11.3098 411.386C11.2219 413.489 11.2081 415.301 11.2589 416.961C11.4536 423.007 12.9158 431.614 18.7897 438.27C22.9504 442.984 28.466 446.34 33.7984 449.586C34.617 450.086 35.4328 450.583 36.2403 451.082C49.6569 459.381 63.9175 468.51 77.3086 479.041C86.4121 486.203 94.4905 489.836 101.316 489.836C106.688 489.836 111.306 487.569 115.04 483.104C123.37 473.131 120.277 457.654 117.225 446.877C108.596 416.399 91.6057 390.915 69.3851 375.125C62.7261 370.391 52.7363 364.099 42.9555 364.099V364.099Z" fill="#222222"/>
<path opacity="0.7" fill-rule="evenodd" clip-rule="evenodd" d="M25.9426 405.645C27.0607 398.755 30.3177 386.693 39.6048 382.69C42.1653 381.586 44.917 381.027 47.7879 381.027C55.5673 381.027 64.4365 385.047 74.1498 392.979C89.8811 405.82 102.098 427.967 105.279 449.403C106.276 456.116 106.318 464.79 100.862 468.019C99.1619 469.024 97.2005 469.535 95.0269 469.535C87.6029 469.535 78.81 463.664 72.9924 459.78C72.3375 459.342 71.7137 458.927 71.1263 458.54C67.756 456.327 64.273 454.18 60.9027 452.105C54.0769 447.902 47.023 443.555 40.6634 438.488C36.0987 434.852 32.305 430.502 28.7203 424.806C25.5076 419.696 25.7054 413.303 25.8975 407.121C25.9114 406.627 25.9287 406.133 25.9426 405.645ZM47.7889 378.683H47.7859C44.6025 378.686 41.5397 379.306 38.6885 380.537C28.3456 384.994 24.8145 397.996 23.6317 405.349L23.6178 405.504C23.6035 406.015 23.5896 406.529 23.5728 407.049C23.378 413.281 23.1607 420.344 26.7542 426.06C30.4829 431.988 34.4429 436.521 39.2192 440.326C45.6886 445.48 52.805 449.864 59.6867 454.104C63.0432 456.173 66.5153 458.31 69.8544 460.503C70.4389 460.887 71.0568 461.299 71.7061 461.734C77.7582 465.773 86.901 471.879 95.0279 471.879C97.6217 471.879 99.9815 471.261 102.043 470.041C107.321 466.916 109.184 459.857 107.584 449.06C104.32 427.076 91.7732 404.347 75.6157 391.159C65.4793 382.88 56.1164 378.683 47.7889 378.683V378.683Z" fill="#222222"/>
<path fill-rule="evenodd" clip-rule="evenodd" d="M79.2975 443.087C73.6039 443.087 65.8192 439.098 62.8857 437.596C55.911 434.023 39.9115 424.005 42.0176 408.198C44.1346 400.469 49.5796 398.84 53.7743 398.84C57.7794 398.837 62.5303 400.364 66.8121 403.029C72.3425 406.469 77.0903 411.489 80.542 417.547C82.321 420.668 87.9269 431.454 85.4231 439.202C84.5901 441.779 82.5298 443.087 79.2975 443.087ZM53.7752 398.254V398.254C49.377 398.254 43.6723 399.959 41.4508 408.082C39.2857 424.299 55.5368 434.489 62.6244 438.119C65.5882 439.638 73.4637 443.672 79.2984 443.672C82.8128 443.672 85.0598 442.23 85.9801 439.384C88.5573 431.407 82.8549 420.429 81.0484 417.257C77.5486 411.114 72.733 406.022 67.1185 402.53C62.7485 399.812 57.8851 398.254 53.7752 398.254V398.254Z" fill="#222222"/>
</g>
</g>
<defs>
<clipPath id="clip0">
<rect width="163.028" height="215.969" fill="white" transform="translate(993.178 1.03125)"/>
</clipPath>
<clipPath id="clip1">
<rect width="163.028" height="215.969" fill="white" transform="translate(138.822 504.969) rotate(180)"/>
</clipPath>
</defs>
</svg>
