<svg width="12" height="12" viewBox="0 0 12 12" fill="none" xmlns="http://www.w3.org/2000/svg">
<path d="M3.125 6C3.125 4.4152 4.4152 3.125 6 3.125C7.58479 3.125 8.875 4.4152 8.875 6C8.875 7.58479 7.58479 8.875 6 8.875C4.4152 8.875 3.125 7.58479 3.125 6Z" stroke="#fff"/>
<mask id="path-2-inside-1" fill="white">
<path d="M6 1.875C6.207 1.875 6.375 1.707 6.375 1.5V0.375C6.375 0.168 6.207 0 6 0C5.793 0 5.625 0.168 5.625 0.375V1.5C5.625 1.707 5.793 1.875 6 1.875Z"/>
</mask>
<path d="M6 2.875C6.75928 2.875 7.375 2.25928 7.375 1.5H5.375C5.375 1.15472 5.65472 0.875 6 0.875V2.875ZM7.375 1.5V0.375H5.375V1.5H7.375ZM7.375 0.375C7.375 -0.384285 6.75928 -1 6 -1V1C5.65472 1 5.375 0.720285 5.375 0.375H7.375ZM6 -1C5.24072 -1 4.625 -0.384285 4.625 0.375H6.625C6.625 0.720285 6.34528 1 6 1V-1ZM4.625 0.375V1.5H6.625V0.375H4.625ZM4.625 1.5C4.625 2.25928 5.24072 2.875 6 2.875V0.875C6.34528 0.875 6.625 1.15472 6.625 1.5H4.625Z" fill="#fff" mask="url(#path-2-inside-1)"/>
<mask id="path-4-inside-2" fill="white">
<path d="M6 10.125C5.793 10.125 5.625 10.293 5.625 10.5V11.625C5.625 11.832 5.793 12 6 12C6.207 12 6.375 11.832 6.375 11.625V10.5C6.375 10.293 6.207 10.125 6 10.125Z"/>
</mask>
<path d="M6 9.125C5.24072 9.125 4.625 9.74072 4.625 10.5H6.625C6.625 10.8453 6.34528 11.125 6 11.125V9.125ZM4.625 10.5V11.625H6.625V10.5H4.625ZM4.625 11.625C4.625 12.3843 5.24072 13 6 13V11C6.34528 11 6.625 11.2797 6.625 11.625H4.625ZM6 13C6.75928 13 7.375 12.3843 7.375 11.625H5.375C5.375 11.2797 5.65472 11 6 11V13ZM7.375 11.625V10.5H5.375V11.625H7.375ZM7.375 10.5C7.375 9.74072 6.75928 9.125 6 9.125V11.125C5.65472 11.125 5.375 10.8453 5.375 10.5H7.375Z" fill="#fff" mask="url(#path-4-inside-2)"/>
<mask id="path-6-inside-3" fill="white">
<path d="M1.875 6C1.875 5.793 1.707 5.625 1.5 5.625H0.375C0.168 5.625 0 5.793 0 6C0 6.207 0.168 6.375 0.375 6.375H1.5C1.707 6.375 1.875 6.207 1.875 6Z"/>
</mask>
<path d="M2.875 6C2.875 5.24072 2.25928 4.625 1.5 4.625V6.625C1.15472 6.625 0.875 6.34528 0.875 6H2.875ZM1.5 4.625H0.375V6.625H1.5V4.625ZM0.375 4.625C-0.384285 4.625 -1 5.24072 -1 6H1C1 6.34528 0.720285 6.625 0.375 6.625V4.625ZM-1 6C-1 6.75928 -0.384285 7.375 0.375 7.375V5.375C0.720285 5.375 1 5.65472 1 6H-1ZM0.375 7.375H1.5V5.375H0.375V7.375ZM1.5 7.375C2.25928 7.375 2.875 6.75928 2.875 6H0.875C0.875 5.65472 1.15472 5.375 1.5 5.375V7.375Z" fill="#fff" mask="url(#path-6-inside-3)"/>
<mask id="path-8-inside-4" fill="white">
<path d="M11.625 5.625H10.5C10.293 5.625 10.125 5.793 10.125 6C10.125 6.207 10.293 6.375 10.5 6.375H11.625C11.832 6.375 12 6.207 12 6C12 5.793 11.832 5.625 11.625 5.625Z"/>
</mask>
<path d="M11.625 4.625H10.5V6.625H11.625V4.625ZM10.5 4.625C9.74072 4.625 9.125 5.24072 9.125 6H11.125C11.125 6.34528 10.8453 6.625 10.5 6.625V4.625ZM9.125 6C9.125 6.75928 9.74072 7.375 10.5 7.375V5.375C10.8453 5.375 11.125 5.65472 11.125 6H9.125ZM10.5 7.375H11.625V5.375H10.5V7.375ZM11.625 7.375C12.3843 7.375 13 6.75928 13 6H11C11 5.65472 11.2797 5.375 11.625 5.375V7.375ZM13 6C13 5.24072 12.3843 4.625 11.625 4.625V6.625C11.2797 6.625 11 6.34528 11 6H13Z" fill="#fff" mask="url(#path-8-inside-4)"/>
<mask id="path-10-inside-5" fill="white">
<path d="M2.35983 2.8902C2.43314 2.96351 2.52895 3.00008 2.62495 3.00008C2.72095 3.00008 2.81677 2.96351 2.89008 2.8902C3.03652 2.74376 3.03652 2.50639 2.89008 2.35995L2.14008 1.60995C1.99364 1.46351 1.75627 1.46351 1.60983 1.60995C1.46339 1.75639 1.46339 1.99376 1.60983 2.1402L2.35983 2.8902Z"/>
</mask>
<path d="M2.35983 2.8902L3.06693 2.18309L3.06693 2.18309L2.35983 2.8902ZM2.89008 2.35995L2.18297 3.06706L2.18297 3.06706L2.89008 2.35995ZM2.14008 1.60995L2.84718 0.902843L2.84718 0.902843L2.14008 1.60995ZM1.60983 2.1402L0.902721 2.84731L1.60983 2.1402ZM1.65272 3.59731C1.92093 3.86552 2.27433 4.00008 2.62495 4.00008V2.00008C2.78358 2.00008 2.94535 2.06151 3.06693 2.18309L1.65272 3.59731ZM2.62495 4.00008C2.97558 4.00008 3.32898 3.86552 3.59718 3.59731L2.18297 2.18309C2.30455 2.06151 2.46633 2.00008 2.62495 2.00008V4.00008ZM3.59718 3.59731C4.13415 3.06035 4.13415 2.18981 3.59718 1.65284L2.18297 3.06706C1.93888 2.82297 1.93888 2.42718 2.18297 2.18309L3.59718 3.59731ZM3.59718 1.65284L2.84718 0.902843L1.43297 2.31706L2.18297 3.06706L3.59718 1.65284ZM2.84718 0.902843C2.31022 0.365882 1.43968 0.365882 0.902721 0.902843L2.31693 2.31706C2.07285 2.56114 1.67706 2.56114 1.43297 2.31706L2.84718 0.902843ZM0.902721 0.902843C0.36576 1.43981 0.36576 2.31035 0.902721 2.84731L2.31693 1.43309C2.56102 1.67718 2.56102 2.07297 2.31693 2.31706L0.902721 0.902843ZM0.902721 2.84731L1.65272 3.59731L3.06693 2.18309L2.31693 1.43309L0.902721 2.84731Z" fill="#fff" mask="url(#path-10-inside-5)"/>
<mask id="path-12-inside-6" fill="white">
<path d="M9.64008 9.10995C9.49364 8.96351 9.25627 8.96351 9.10983 9.10995C8.96339 9.25639 8.96339 9.49376 9.10983 9.6402L9.85983 10.3902C9.93314 10.4635 10.029 10.5001 10.125 10.5001C10.221 10.5001 10.3168 10.4635 10.3901 10.3902C10.5365 10.2438 10.5365 10.0064 10.3901 9.85995L9.64008 9.10995Z"/>
</mask>
<path d="M9.64008 9.10995L10.3472 8.40284L9.64008 9.10995ZM9.10983 9.6402L8.40272 10.3473L9.10983 9.6402ZM9.85983 10.3902L10.5669 9.68309L9.85983 10.3902ZM10.3901 10.3902L11.0972 11.0973L10.3901 10.3902ZM10.3901 9.85995L9.68297 10.5671L10.3901 9.85995ZM10.3472 8.40284C9.81022 7.86588 8.93968 7.86588 8.40272 8.40284L9.81693 9.81706C9.57285 10.0611 9.17706 10.0611 8.93297 9.81706L10.3472 8.40284ZM8.40272 8.40284C7.86576 8.93981 7.86576 9.81035 8.40272 10.3473L9.81693 8.93309C10.061 9.17718 10.061 9.57297 9.81693 9.81706L8.40272 8.40284ZM8.40272 10.3473L9.15272 11.0973L10.5669 9.68309L9.81693 8.93309L8.40272 10.3473ZM9.15272 11.0973C9.42093 11.3655 9.77433 11.5001 10.125 11.5001V9.50008C10.2836 9.50008 10.4453 9.56151 10.5669 9.68309L9.15272 11.0973ZM10.125 11.5001C10.4756 11.5001 10.829 11.3655 11.0972 11.0973L9.68297 9.68309C9.80456 9.56151 9.96633 9.50008 10.125 9.50008V11.5001ZM11.0972 11.0973C11.6341 10.5603 11.6341 9.68981 11.0972 9.15284L9.68297 10.5671C9.43888 10.323 9.43888 9.92718 9.68297 9.68309L11.0972 11.0973ZM11.0972 9.15284L10.3472 8.40284L8.93297 9.81706L9.68297 10.5671L11.0972 9.15284Z" fill="#fff" mask="url(#path-12-inside-6)"/>
<mask id="path-14-inside-7" fill="white">
<path d="M2.35983 9.10995L1.60983 9.85995C1.46339 10.0064 1.46339 10.2438 1.60983 10.3902C1.68314 10.4635 1.77895 10.5001 1.87495 10.5001C1.97095 10.5001 2.06677 10.4635 2.14008 10.3902L2.89008 9.6402C3.03652 9.49376 3.03652 9.25639 2.89008 9.10995C2.74364 8.96351 2.50627 8.96351 2.35983 9.10995Z"/>
</mask>
<path d="M1.65272 8.40284L0.902721 9.15284L2.31693 10.5671L3.06693 9.81706L1.65272 8.40284ZM0.902721 9.15284C0.36576 9.68981 0.36576 10.5603 0.902721 11.0973L2.31693 9.68309C2.56102 9.92718 2.56102 10.323 2.31693 10.5671L0.902721 9.15284ZM0.902721 11.0973C1.17093 11.3655 1.52433 11.5001 1.87495 11.5001V9.50008C2.03357 9.50008 2.19535 9.56151 2.31693 9.68309L0.902721 11.0973ZM1.87495 11.5001C2.22557 11.5001 2.57897 11.3655 2.84718 11.0973L1.43297 9.68309C1.55456 9.56151 1.71633 9.50008 1.87495 9.50008V11.5001ZM2.84718 11.0973L3.59718 10.3473L2.18297 8.93309L1.43297 9.68309L2.84718 11.0973ZM3.59718 10.3473C4.13415 9.81035 4.13415 8.93981 3.59718 8.40284L2.18297 9.81706C1.93888 9.57297 1.93888 9.17718 2.18297 8.93309L3.59718 10.3473ZM3.59718 8.40284C3.06022 7.86588 2.18968 7.86588 1.65272 8.40284L3.06693 9.81706C2.82285 10.0611 2.42706 10.0611 2.18297 9.81706L3.59718 8.40284Z" fill="#fff" mask="url(#path-14-inside-7)"/>
<mask id="path-16-inside-8" fill="white">
<path d="M9.37495 3.00008C9.47095 3.00008 9.56677 2.96351 9.64008 2.8902L10.3901 2.1402C10.5365 1.99376 10.5365 1.75639 10.3901 1.60995C10.2436 1.46351 10.0063 1.46351 9.85983 1.60995L9.10983 2.35995C8.96339 2.50639 8.96339 2.74376 9.10983 2.8902C9.18314 2.96351 9.27895 3.00008 9.37495 3.00008Z"/>
</mask>
<path d="M10.3901 2.1402L9.68297 1.43309L10.3901 2.1402ZM9.37495 4.00008C9.72558 4.00008 10.079 3.86552 10.3472 3.59731L8.93297 2.18309C9.05456 2.06151 9.21633 2.00008 9.37495 2.00008V4.00008ZM10.3472 3.59731L11.0972 2.84731L9.68297 1.43309L8.93297 2.18309L10.3472 3.59731ZM11.0972 2.84731C11.6341 2.31035 11.6341 1.43981 11.0972 0.902844L9.68297 2.31706C9.43888 2.07297 9.43888 1.67718 9.68297 1.43309L11.0972 2.84731ZM11.0972 0.902844C10.5602 0.365882 9.68968 0.365882 9.15272 0.902844L10.5669 2.31706C10.3228 2.56114 9.92706 2.56114 9.68297 2.31706L11.0972 0.902844ZM9.15272 0.902844L8.40272 1.65284L9.81693 3.06706L10.5669 2.31706L9.15272 0.902844ZM8.40272 1.65284C7.86576 2.18981 7.86576 3.06035 8.40272 3.59731L9.81693 2.18309C10.061 2.42718 10.061 2.82297 9.81693 3.06706L8.40272 1.65284ZM8.40272 3.59731C8.67093 3.86552 9.02433 4.00008 9.37495 4.00008V2.00008C9.53358 2.00008 9.69535 2.06151 9.81693 2.18309L8.40272 3.59731Z" fill="#fff" mask="url(#path-16-inside-8)"/>
</svg>
