<svg width="135" height="49" viewBox="0 0 135 49" fill="none" xmlns="http://www.w3.org/2000/svg">
<path d="M69.2716 46.4309C66.7113 46.4309 64.176 45.9266 61.8105 44.9468C59.4451 43.967 57.2958 42.5309 55.4853 40.7204C53.6749 38.91 52.2388 36.7607 51.259 34.3953C50.2792 32.0298 49.7749 29.4945 49.7749 26.9342C49.7749 24.3738 50.2792 21.8386 51.259 19.4731C52.2388 17.1077 53.6749 14.9584 55.4854 13.1479C57.2958 11.3375 59.4451 9.90139 61.8106 8.92159C64.176 7.94179 66.7113 7.4375 69.2716 7.4375L69.2716 9.75698C67.0159 9.75697 64.7822 10.2013 62.6982 11.0645C60.6141 11.9277 58.7205 13.193 57.1255 14.7881C55.5304 16.3831 54.2652 18.2767 53.4019 20.3607C52.5387 22.4448 52.0944 24.6784 52.0944 26.9342C52.0944 29.1899 52.5387 31.4236 53.4019 33.5076C54.2651 35.5917 55.5304 37.4853 57.1255 39.0803C58.7205 40.6754 60.6141 41.9406 62.6982 42.8039C64.7822 43.6671 67.0159 44.1114 69.2716 44.1114V46.4309Z" fill="#F47A1B"/>
<path d="M80.9497 42.5529C77.8121 44.8996 74.0403 46.2465 70.1261 46.418L70.0245 44.1008C73.4731 43.9496 76.7962 42.763 79.5604 40.6955L80.9497 42.5529Z" fill="white"/>
<path opacity="0.1" d="M87.9334 32.5791C86.8135 36.2807 84.618 39.5656 81.6261 42.0161L80.1564 40.2217C82.7923 38.0627 84.7266 35.1686 85.7133 31.9074L87.9334 32.5791Z" fill="#F47A1B"/>
<path opacity="0.3" d="M87.5734 20.2194C88.8973 23.8233 89.1278 27.738 88.2357 31.4723L85.9797 30.9334C86.7656 27.6433 86.5626 24.1944 85.3961 21.0192L87.5734 20.2194Z" fill="#F47A1B"/>
<path opacity="0.6" d="M78.4987 9.76766C82.4847 11.9091 85.6018 15.3702 87.3157 19.5578L85.169 20.4364C83.659 16.7469 80.9128 13.6976 77.401 11.8109L78.4987 9.76766Z" fill="#F47A1B"/>
<path d="M70.2249 7.56262C72.7986 7.6259 75.3343 8.19828 77.6857 9.24673L76.7411 11.3652C74.6695 10.4414 72.4354 9.93714 70.1679 9.8814L70.2249 7.56262Z" fill="#F47A1B"/>
<path opacity="0.8" d="M70.2249 7.56262C72.7986 7.6259 75.3343 8.19828 77.6857 9.24673L76.7411 11.3652C74.6695 10.4414 72.4354 9.93714 70.1679 9.8814L70.2249 7.56262Z" fill="#F47A1B" fill-opacity="0.8"/>
<line opacity="0.4" x1="106.3" y1="40.9203" x2="87.5323" y2="40.9202" stroke="black" stroke-width="0.176441"/>
<line opacity="0.4" y1="-0.0882204" x2="15.2404" y2="-0.0882204" transform="matrix(-0.769657 -0.638457 -0.638457 0.769657 53.5928 14.5352)" stroke="black" stroke-width="0.176441"/>
<line opacity="0.4" y1="-0.0882204" x2="18.5263" y2="-0.0882204" transform="matrix(-1 8.74228e-08 8.74228e-08 1 41.9878 4.83203)" stroke="black" stroke-width="0.176441"/>
<circle cx="53.625" cy="14.4193" r="0.441102" transform="rotate(-30 53.625 14.4193)" fill="#F47A1B"/>
<circle r="0.441102" transform="matrix(-1 0 0 1 87.4456 40.8747)" fill="#F47A1B"/>
<path d="M63.5804 26.0328C63.5804 26.2602 63.5402 26.4716 63.4597 26.6669C63.3816 26.8598 63.2714 27.0276 63.1289 27.17C62.952 27.3469 62.743 27.4801 62.5017 27.5697C62.2605 27.657 61.9561 27.7007 61.5885 27.7007H60.9062V29.6133H60.2239V24.482H61.6161C61.9239 24.482 62.1847 24.5084 62.3983 24.5613C62.612 24.6118 62.8015 24.6922 62.967 24.8025C63.1622 24.9335 63.3127 25.0966 63.4184 25.2919C63.5264 25.4871 63.5804 25.7341 63.5804 26.0328ZM62.8705 26.05C62.8705 25.8731 62.8394 25.7192 62.7774 25.5882C62.7154 25.4573 62.6212 25.3504 62.4948 25.2677C62.3846 25.1965 62.2582 25.146 62.1158 25.1161C61.9756 25.0839 61.7976 25.0679 61.5816 25.0679H60.9062V27.1183H61.4817C61.7574 27.1183 61.9814 27.0942 62.1537 27.0459C62.326 26.9954 62.4661 26.9161 62.5741 26.8081C62.6821 26.6979 62.7579 26.5819 62.8015 26.4601C62.8475 26.3383 62.8705 26.2016 62.8705 26.05ZM68.3084 25.0713C68.5175 25.3011 68.6772 25.5825 68.7874 25.9156C68.9 26.2487 68.9563 26.6267 68.9563 27.0494C68.9563 27.4721 68.8989 27.8512 68.784 28.1866C68.6714 28.5197 68.5129 28.7977 68.3084 29.0206C68.0971 29.2526 67.8466 29.4272 67.5572 29.5444C67.27 29.6615 66.9415 29.7201 66.5716 29.7201C66.2109 29.7201 65.8824 29.6604 65.586 29.5409C65.2919 29.4214 65.0415 29.248 64.8347 29.0206C64.628 28.7931 64.4683 28.514 64.3557 28.1831C64.2455 27.8523 64.1903 27.4744 64.1903 27.0494C64.1903 26.6312 64.2455 26.2568 64.3557 25.9259C64.466 25.5928 64.6268 25.3079 64.8382 25.0713C65.0404 24.8462 65.2908 24.6739 65.5894 24.5544C65.8904 24.4349 66.2178 24.3752 66.5716 24.3752C66.9392 24.3752 67.2688 24.4361 67.5606 24.5578C67.8547 24.6773 68.104 24.8485 68.3084 25.0713ZM68.2464 27.0494C68.2464 26.3831 68.0971 25.8697 67.7984 25.509C67.4997 25.146 67.0919 24.9645 66.575 24.9645C66.0535 24.9645 65.6434 25.146 65.3448 25.509C65.0484 25.8697 64.9002 26.3831 64.9002 27.0494C64.9002 27.7225 65.0518 28.2383 65.3551 28.5967C65.6584 28.9528 66.065 29.1308 66.575 29.1308C67.0851 29.1308 67.4905 28.9528 67.7915 28.5967C68.0948 28.2383 68.2464 27.7225 68.2464 27.0494ZM73.8635 25.0713C74.0726 25.3011 74.2323 25.5825 74.3426 25.9156C74.4551 26.2487 74.5114 26.6267 74.5114 27.0494C74.5114 27.4721 74.454 27.8512 74.3391 28.1866C74.2265 28.5197 74.068 28.7977 73.8635 29.0206C73.6522 29.2526 73.4018 29.4272 73.1123 29.5444C72.8251 29.6615 72.4966 29.7201 72.1267 29.7201C71.766 29.7201 71.4375 29.6604 71.1411 29.5409C70.8471 29.4214 70.5966 29.248 70.3899 29.0206C70.1831 28.7931 70.0234 28.514 69.9109 28.1831C69.8006 27.8523 69.7454 27.4744 69.7454 27.0494C69.7454 26.6312 69.8006 26.2568 69.9109 25.9259C70.0211 25.5928 70.182 25.3079 70.3933 25.0713C70.5955 24.8462 70.8459 24.6739 71.1446 24.5544C71.4455 24.4349 71.7729 24.3752 72.1267 24.3752C72.4943 24.3752 72.824 24.4361 73.1157 24.5578C73.4098 24.6773 73.6591 24.8485 73.8635 25.0713ZM73.8015 27.0494C73.8015 26.3831 73.6522 25.8697 73.3535 25.509C73.0549 25.146 72.6471 24.9645 72.1302 24.9645C71.6086 24.9645 71.1986 25.146 70.8999 25.509C70.6035 25.8697 70.4553 26.3831 70.4553 27.0494C70.4553 27.7225 70.607 28.2383 70.9102 28.5967C71.2135 28.9528 71.6201 29.1308 72.1302 29.1308C72.6402 29.1308 73.0457 28.9528 73.3466 28.5967C73.6499 28.2383 73.8015 27.7225 73.8015 27.0494ZM78.8397 29.6133H75.5935V24.482H76.2758V29.0068H78.8397V29.6133Z" fill="#F47A1B"/>
<path opacity="0.7" d="M3.09088 5.57812H0.646205V1.71388H1.16005V5.12137H3.09088V5.57812ZM5.99231 4.17931H3.85646C3.85646 4.35752 3.88328 4.51323 3.93691 4.64645C3.99055 4.77794 4.06408 4.88607 4.1575 4.97085C4.24747 5.0539 4.35387 5.11618 4.47671 5.1577C4.60128 5.19923 4.73796 5.21999 4.88675 5.21999C5.08399 5.21999 5.28209 5.18106 5.48105 5.1032C5.68175 5.02362 5.82448 4.94576 5.90926 4.86964H5.93521V5.40165C5.77085 5.47086 5.60303 5.52882 5.43174 5.57553C5.26046 5.62224 5.08053 5.6456 4.89194 5.6456C4.41097 5.6456 4.03553 5.51584 3.76563 5.25632C3.49573 4.99507 3.36078 4.62482 3.36078 4.14558C3.36078 3.67152 3.48967 3.29522 3.74746 3.01667C4.00698 2.73812 4.34782 2.59884 4.76997 2.59884C5.16098 2.59884 5.46202 2.71303 5.6731 2.94141C5.8859 3.16978 5.99231 3.49418 5.99231 3.9146V4.17931ZM5.51739 3.80561C5.51566 3.54955 5.45078 3.35145 5.32275 3.21131C5.19645 3.07117 5.00354 3.0011 4.74402 3.0011C4.48277 3.0011 4.27429 3.07809 4.11858 3.23207C3.96459 3.38605 3.87722 3.57723 3.85646 3.80561H5.51739ZM9.15585 5.57812H8.66795V3.92758C8.66795 3.79436 8.66017 3.66979 8.6446 3.55387C8.62903 3.43622 8.60048 3.34453 8.55895 3.27878C8.5157 3.20612 8.45342 3.15248 8.3721 3.11788C8.29078 3.08155 8.18525 3.06338 8.05549 3.06338C7.92227 3.06338 7.78299 3.09625 7.63766 3.162C7.49233 3.22774 7.35305 3.31165 7.21983 3.41373V5.57812H6.73194V2.67929H7.21983V3.0011C7.37209 2.8748 7.52953 2.77618 7.69216 2.70524C7.85479 2.63431 8.02175 2.59884 8.19303 2.59884C8.50619 2.59884 8.74494 2.69313 8.90931 2.88172C9.07367 3.0703 9.15585 3.34193 9.15585 3.69661V5.57812ZM12.4466 5.57812H11.9587V5.27449C11.8185 5.3956 11.6723 5.48989 11.5201 5.55736C11.3678 5.62484 11.2026 5.65858 11.0244 5.65858C10.6784 5.65858 10.4033 5.52536 10.1991 5.25892C9.99669 4.99248 9.89548 4.62309 9.89548 4.15077C9.89548 3.90509 9.93008 3.68623 9.99929 3.49418C10.0702 3.30214 10.1654 3.13864 10.2848 3.00369C10.4024 2.8722 10.5391 2.77185 10.6948 2.70265C10.8522 2.63344 11.0149 2.59884 11.1827 2.59884C11.3349 2.59884 11.4699 2.61528 11.5875 2.64815C11.7052 2.67929 11.8289 2.7286 11.9587 2.79608V1.54H12.4466V5.57812ZM11.9587 4.86445V3.20093C11.8272 3.1421 11.7095 3.10144 11.6057 3.07895C11.5019 3.05646 11.3886 3.04521 11.2657 3.04521C10.9924 3.04521 10.7796 3.14037 10.6273 3.33069C10.4751 3.521 10.3989 3.7909 10.3989 4.14039C10.3989 4.48468 10.4578 4.7468 10.5754 4.92673C10.6931 5.10493 10.8817 5.19404 11.1412 5.19404C11.2796 5.19404 11.4197 5.16376 11.5616 5.1032C11.7035 5.04092 11.8358 4.96133 11.9587 4.86445ZM15.8333 4.17931H13.6974C13.6974 4.35752 13.7243 4.51323 13.7779 4.64645C13.8315 4.77794 13.9051 4.88607 13.9985 4.97085C14.0885 5.0539 14.1949 5.11618 14.3177 5.1577C14.4423 5.19923 14.5789 5.21999 14.7277 5.21999C14.925 5.21999 15.1231 5.18106 15.322 5.1032C15.5227 5.02362 15.6655 4.94576 15.7502 4.86964H15.7762V5.40165C15.6118 5.47086 15.444 5.52882 15.2727 5.57553C15.1014 5.62224 14.9215 5.6456 14.7329 5.6456C14.2519 5.6456 13.8765 5.51584 13.6066 5.25632C13.3367 4.99507 13.2018 4.62482 13.2018 4.14558C13.2018 3.67152 13.3307 3.29522 13.5884 3.01667C13.848 2.73812 14.1888 2.59884 14.611 2.59884C15.002 2.59884 15.303 2.71303 15.5141 2.94141C15.7269 3.16978 15.8333 3.49418 15.8333 3.9146V4.17931ZM15.3584 3.80561C15.3566 3.54955 15.2918 3.35145 15.1637 3.21131C15.0374 3.07117 14.8445 3.0011 14.585 3.0011C14.3237 3.0011 14.1153 3.07809 13.9596 3.23207C13.8056 3.38605 13.7182 3.57723 13.6974 3.80561H15.3584ZM18.3818 3.21131H18.3558C18.2832 3.19401 18.2122 3.18189 18.143 3.17497C18.0755 3.16632 17.9951 3.162 17.9017 3.162C17.7511 3.162 17.6058 3.19574 17.4657 3.26321C17.3255 3.32896 17.1906 3.4146 17.0608 3.52014V5.57812H16.5729V2.67929H17.0608V3.1075C17.2546 2.95179 17.425 2.84192 17.5721 2.77791C17.7209 2.71216 17.8722 2.67929 18.0262 2.67929C18.111 2.67929 18.1724 2.68189 18.2105 2.68708C18.2486 2.69054 18.3056 2.69832 18.3818 2.71043V3.21131ZM20.9121 4.74247C20.9121 5.00718 20.8022 5.22431 20.5825 5.39387C20.3645 5.56342 20.0661 5.6482 19.6872 5.6482C19.4726 5.6482 19.2754 5.62311 19.0954 5.57293C18.9172 5.52103 18.7676 5.4648 18.6465 5.40425V4.85666H18.6724C18.8264 4.97258 18.9977 5.06514 19.1863 5.13435C19.3749 5.20182 19.5557 5.23556 19.7287 5.23556C19.9432 5.23556 20.111 5.20096 20.2321 5.13175C20.3533 5.06255 20.4138 4.95355 20.4138 4.80476C20.4138 4.69057 20.3809 4.60406 20.3152 4.54524C20.2494 4.48641 20.1231 4.43624 19.9363 4.39472C19.8671 4.37914 19.7763 4.36098 19.6638 4.34022C19.5531 4.31946 19.4519 4.29696 19.3602 4.27274C19.1058 4.20527 18.925 4.10665 18.8178 3.97689C18.7122 3.8454 18.6595 3.6845 18.6595 3.49418C18.6595 3.3748 18.6837 3.26235 18.7321 3.15681C18.7823 3.05127 18.8576 2.95698 18.9579 2.87393C19.0548 2.79262 19.1776 2.7286 19.3264 2.68189C19.4769 2.63344 19.6448 2.60922 19.8299 2.60922C20.0029 2.60922 20.1776 2.63085 20.3541 2.6741C20.5323 2.71562 20.6802 2.76666 20.7979 2.82722V3.34885H20.7719C20.6474 3.25716 20.496 3.18016 20.3178 3.11788C20.1396 3.05387 19.9648 3.02186 19.7936 3.02186C19.6154 3.02186 19.4648 3.05646 19.342 3.12567C19.2192 3.19314 19.1577 3.29435 19.1577 3.4293C19.1577 3.54868 19.1949 3.63865 19.2693 3.6992C19.342 3.75976 19.4596 3.80907 19.6223 3.84713C19.7122 3.86789 19.8126 3.88865 19.9233 3.90941C20.0358 3.93018 20.1292 3.94921 20.2036 3.96651C20.4302 4.01841 20.605 4.10751 20.7278 4.23381C20.8507 4.36184 20.9121 4.5314 20.9121 4.74247Z" fill="#646B73"/>
<path opacity="0.7" d="M111.018 40.5302C111.018 40.7222 110.982 40.8917 110.909 41.0388C110.837 41.1859 110.739 41.307 110.616 41.4021C110.471 41.5163 110.311 41.5976 110.136 41.6461C109.963 41.6945 109.742 41.7188 109.474 41.7188H108.104V37.8545H109.248C109.531 37.8545 109.742 37.8649 109.882 37.8856C110.022 37.9064 110.156 37.9497 110.284 38.0154C110.426 38.0898 110.529 38.1858 110.593 38.3035C110.657 38.4194 110.689 38.5587 110.689 38.7213C110.689 38.9047 110.642 39.0613 110.549 39.191C110.455 39.3191 110.331 39.422 110.175 39.4999V39.5206C110.436 39.5743 110.642 39.6893 110.793 39.8658C110.943 40.0405 111.018 40.262 111.018 40.5302ZM110.154 38.7888C110.154 38.6953 110.139 38.6166 110.108 38.5526C110.076 38.4886 110.026 38.4367 109.957 38.3969C109.876 38.3502 109.777 38.3216 109.661 38.3113C109.545 38.2991 109.402 38.2931 109.23 38.2931H108.618V39.409H109.282C109.443 39.409 109.571 39.4012 109.666 39.3857C109.761 39.3684 109.85 39.3338 109.931 39.2819C110.012 39.23 110.069 39.1633 110.102 39.082C110.137 38.999 110.154 38.9012 110.154 38.7888ZM110.484 40.5509C110.484 40.3952 110.46 40.2715 110.414 40.1798C110.367 40.0881 110.282 40.0102 110.159 39.9462C110.076 39.903 109.975 39.8753 109.856 39.8632C109.738 39.8493 109.595 39.8424 109.425 39.8424H108.618V41.2802H109.298C109.523 41.2802 109.707 41.2689 109.851 41.2464C109.994 41.2222 110.112 41.1789 110.204 41.1167C110.3 41.0492 110.371 40.9722 110.416 40.8857C110.461 40.7992 110.484 40.6876 110.484 40.5509ZM114.179 40.2706C114.179 40.743 114.058 41.1158 113.816 41.3892C113.574 41.6625 113.249 41.7992 112.843 41.7992C112.433 41.7992 112.107 41.6625 111.864 41.3892C111.624 41.1158 111.504 40.743 111.504 40.2706C111.504 39.7983 111.624 39.4255 111.864 39.1521C112.107 38.877 112.433 38.7395 112.843 38.7395C113.249 38.7395 113.574 38.877 113.816 39.1521C114.058 39.4255 114.179 39.7983 114.179 40.2706ZM113.676 40.2706C113.676 39.8952 113.602 39.6166 113.455 39.435C113.308 39.2516 113.104 39.1599 112.843 39.1599C112.578 39.1599 112.372 39.2516 112.225 39.435C112.08 39.6166 112.007 39.8952 112.007 40.2706C112.007 40.634 112.081 40.9099 112.228 41.0985C112.375 41.2854 112.58 41.3788 112.843 41.3788C113.102 41.3788 113.306 41.2862 113.453 41.1011C113.602 40.9142 113.676 40.6374 113.676 40.2706ZM116.746 39.3519H116.72C116.647 39.3346 116.576 39.3225 116.507 39.3156C116.44 39.3069 116.359 39.3026 116.266 39.3026C116.115 39.3026 115.97 39.3364 115.83 39.4038C115.69 39.4696 115.555 39.5552 115.425 39.6608V41.7188H114.937V38.8199H115.425V39.2481C115.619 39.0924 115.789 38.9825 115.936 38.9185C116.085 38.8528 116.236 38.8199 116.39 38.8199C116.475 38.8199 116.537 38.8225 116.575 38.8277C116.613 38.8312 116.67 38.8389 116.746 38.8511V39.3519ZM119.014 39.3519H118.988C118.916 39.3346 118.845 39.3225 118.775 39.3156C118.708 39.3069 118.628 39.3026 118.534 39.3026C118.384 39.3026 118.238 39.3364 118.098 39.4038C117.958 39.4696 117.823 39.5552 117.693 39.6608V41.7188H117.205V38.8199H117.693V39.2481C117.887 39.0924 118.057 38.9825 118.205 38.9185C118.353 38.8528 118.505 38.8199 118.659 38.8199C118.743 38.8199 118.805 38.8225 118.843 38.8277C118.881 38.8312 118.938 38.8389 119.014 38.8511V39.3519ZM121.944 40.2706C121.944 40.743 121.823 41.1158 121.581 41.3892C121.339 41.6625 121.014 41.7992 120.608 41.7992C120.198 41.7992 119.871 41.6625 119.629 41.3892C119.389 41.1158 119.269 40.743 119.269 40.2706C119.269 39.7983 119.389 39.4255 119.629 39.1521C119.871 38.877 120.198 38.7395 120.608 38.7395C121.014 38.7395 121.339 38.877 121.581 39.1521C121.823 39.4255 121.944 39.7983 121.944 40.2706ZM121.441 40.2706C121.441 39.8952 121.367 39.6166 121.22 39.435C121.073 39.2516 120.869 39.1599 120.608 39.1599C120.343 39.1599 120.137 39.2516 119.99 39.435C119.845 39.6166 119.772 39.8952 119.772 40.2706C119.772 40.634 119.846 40.9099 119.993 41.0985C120.14 41.2854 120.345 41.3788 120.608 41.3788C120.867 41.3788 121.07 41.2862 121.218 41.1011C121.366 40.9142 121.441 40.6374 121.441 40.2706ZM126.348 38.8199L125.593 41.7188H125.141L124.397 39.4843L123.657 41.7188H123.208L122.445 38.8199H122.954L123.486 41.0648L124.21 38.8199H124.612L125.354 41.0648L125.858 38.8199H126.348ZM129.478 40.3199H127.342C127.342 40.4981 127.369 40.6539 127.423 40.7871C127.476 40.9186 127.55 41.0267 127.643 41.1115C127.733 41.1945 127.84 41.2568 127.962 41.2983C128.087 41.3399 128.224 41.3606 128.372 41.3606C128.57 41.3606 128.768 41.3217 128.967 41.2438C129.167 41.1642 129.31 41.0864 129.395 41.0103H129.421V41.5423C129.257 41.6115 129.089 41.6694 128.917 41.7162C128.746 41.7629 128.566 41.7862 128.378 41.7862C127.897 41.7862 127.521 41.6565 127.251 41.3969C126.981 41.1357 126.847 40.7654 126.847 40.2862C126.847 39.8121 126.975 39.4358 127.233 39.1573C127.493 38.8787 127.834 38.7395 128.256 38.7395C128.647 38.7395 128.948 38.8537 129.159 39.082C129.372 39.3104 129.478 39.6348 129.478 40.0552V40.3199ZM129.003 39.9462C129.001 39.6902 128.937 39.4921 128.808 39.3519C128.682 39.2118 128.489 39.1417 128.23 39.1417C127.969 39.1417 127.76 39.2187 127.604 39.3727C127.45 39.5267 127.363 39.7179 127.342 39.9462H129.003ZM132.027 39.3519H132.001C131.928 39.3346 131.857 39.3225 131.788 39.3156C131.72 39.3069 131.64 39.3026 131.546 39.3026C131.396 39.3026 131.251 39.3364 131.11 39.4038C130.97 39.4696 130.835 39.5552 130.706 39.6608V41.7188H130.218V38.8199H130.706V39.2481C130.899 39.0924 131.07 38.9825 131.217 38.9185C131.366 38.8528 131.517 38.8199 131.671 38.8199C131.756 38.8199 131.817 38.8225 131.855 38.8277C131.893 38.8312 131.95 38.8389 132.027 38.8511V39.3519ZM134.557 40.8831C134.557 41.1478 134.447 41.3649 134.227 41.5345C134.009 41.704 133.711 41.7888 133.332 41.7888C133.117 41.7888 132.92 41.7637 132.74 41.7136C132.562 41.6617 132.412 41.6054 132.291 41.5449V40.9973H132.317C132.471 41.1132 132.642 41.2058 132.831 41.275C133.02 41.3424 133.2 41.3762 133.373 41.3762C133.588 41.3762 133.756 41.3416 133.877 41.2724C133.998 41.2032 134.059 41.0942 134.059 40.9454C134.059 40.8312 134.026 40.7447 133.96 40.6859C133.894 40.627 133.768 40.5769 133.581 40.5353C133.512 40.5198 133.421 40.5016 133.309 40.4808C133.198 40.4601 133.097 40.4376 133.005 40.4134C132.751 40.3459 132.57 40.2473 132.463 40.1175C132.357 39.986 132.304 39.8251 132.304 39.6348C132.304 39.5154 132.328 39.403 132.377 39.2974C132.427 39.1919 132.502 39.0976 132.603 39.0146C132.7 38.9332 132.822 38.8692 132.971 38.8225C133.122 38.7741 133.29 38.7498 133.475 38.7498C133.648 38.7498 133.822 38.7715 133.999 38.8147C134.177 38.8562 134.325 38.9073 134.443 38.9678V39.4895H134.417C134.292 39.3978 134.141 39.3208 133.963 39.2585C133.784 39.1945 133.61 39.1625 133.438 39.1625C133.26 39.1625 133.11 39.1971 132.987 39.2663C132.864 39.3338 132.802 39.435 132.802 39.5699C132.802 39.6893 132.84 39.7793 132.914 39.8398C132.987 39.9004 133.104 39.9497 133.267 39.9878C133.357 40.0085 133.457 40.0293 133.568 40.05C133.681 40.0708 133.774 40.0898 133.848 40.1071C134.075 40.159 134.25 40.2481 134.373 40.3744C134.495 40.5025 134.557 40.672 134.557 40.8831Z" fill="#646B73"/>
</svg>
