<svg width="1184" height="576" viewBox="0 0 1184 576" fill="none" xmlns="http://www.w3.org/2000/svg">
<g filter="url(#filter0_f)">
<circle cx="1014.49" cy="169.487" r="89.487" fill="#FAD1BA"/>
</g>
<g filter="url(#filter1_f)">
<circle cx="179.487" cy="396.487" r="89.487" fill="#F88340"/>
</g>
<g filter="url(#filter2_f)">
<circle cx="688.978" cy="391.43" r="31.145" fill="#F88340"/>
</g>
<g filter="url(#filter3_f)">
<circle cx="463.067" cy="206.753" r="21.9331" fill="#F88340"/>
</g>
<g filter="url(#filter4_b)">
<path d="M187 395.911V119.541C187 84 199.844 84 225.225 84C250.607 84 962.518 137.577 983.618 137.577C1004.72 137.577 1009 137.577 1009 177.361V326.951C1009 352.413 1005.64 360.9 983.618 360.9C961.6 360.9 244.797 441 220.333 441C195.868 441 187 435.165 187 395.911Z" fill="url(#paint0_linear)" fill-opacity="0.6"/>
<path d="M188 395.911V119.541C188 101.799 191.227 93.3966 197.166 89.2634C200.164 87.1765 203.962 86.0952 208.66 85.5486C213.364 85.0014 218.862 85 225.225 85C231.524 85 280.717 88.3434 351.394 93.3688C422.034 98.3915 514.06 105.089 605.955 111.786C614.433 112.404 622.911 113.021 631.37 113.638C714.597 119.704 796.078 125.643 859.715 130.203C929.783 135.223 978.296 138.577 983.618 138.577C988.928 138.577 993.046 138.58 996.305 139.182C999.511 139.773 1001.76 140.923 1003.42 143.147C1005.12 145.425 1006.29 148.947 1007.01 154.49C1007.73 160.016 1008 167.421 1008 177.361V326.951C1008 333.304 1007.79 338.548 1007.14 342.848C1006.49 347.15 1005.42 350.434 1003.74 352.913C1000.44 357.782 994.555 359.9 983.618 359.9C980.8 359.9 967.116 361.161 945.403 363.347C923.645 365.538 893.741 368.667 858.401 372.422C791.444 379.536 704.967 388.896 617.399 398.374L602.785 399.956C510.279 409.969 417.699 419.981 346.715 427.49C311.224 431.245 281.133 434.373 259.152 436.563C237.128 438.757 223.326 440 220.333 440C208.095 440 200.215 438.514 195.262 432.538C192.768 429.527 190.943 425.294 189.749 419.32C188.553 413.346 188 405.696 188 395.911Z" stroke="white" stroke-opacity="0.3" stroke-width="2" stroke-linecap="round" stroke-linejoin="round" style="mix-blend-mode:overlay"/>
</g>
<defs>
<filter id="filter0_f" x="845" y="0" width="338.974" height="338.974" filterUnits="userSpaceOnUse" color-interpolation-filters="sRGB">
<feFlood flood-opacity="0" result="BackgroundImageFix"/>
<feBlend mode="normal" in="SourceGraphic" in2="BackgroundImageFix" result="shape"/>
<feGaussianBlur stdDeviation="40" result="effect1_foregroundBlur"/>
</filter>
<filter id="filter1_f" x="0" y="217" width="358.974" height="358.974" filterUnits="userSpaceOnUse" color-interpolation-filters="sRGB">
<feFlood flood-opacity="0" result="BackgroundImageFix"/>
<feBlend mode="normal" in="SourceGraphic" in2="BackgroundImageFix" result="shape"/>
<feGaussianBlur stdDeviation="45" result="effect1_foregroundBlur"/>
</filter>
<filter id="filter2_f" x="570.101" y="272.553" width="237.755" height="237.755" filterUnits="userSpaceOnUse" color-interpolation-filters="sRGB">
<feFlood flood-opacity="0" result="BackgroundImageFix"/>
<feBlend mode="normal" in="SourceGraphic" in2="BackgroundImageFix" result="shape"/>
<feGaussianBlur stdDeviation="43.8662" result="effect1_foregroundBlur"/>
</filter>
<filter id="filter3_f" x="353.401" y="97.088" width="219.331" height="219.331" filterUnits="userSpaceOnUse" color-interpolation-filters="sRGB">
<feFlood flood-opacity="0" result="BackgroundImageFix"/>
<feBlend mode="normal" in="SourceGraphic" in2="BackgroundImageFix" result="shape"/>
<feGaussianBlur stdDeviation="43.8662" result="effect1_foregroundBlur"/>
</filter>
<filter id="filter4_b" x="160.68" y="57.6803" width="874.639" height="409.639" filterUnits="userSpaceOnUse" color-interpolation-filters="sRGB">
<feFlood flood-opacity="0" result="BackgroundImageFix"/>
<feGaussianBlur in="BackgroundImage" stdDeviation="13.1599"/>
<feComposite in2="SourceAlpha" operator="in" result="effect1_backgroundBlur"/>
<feBlend mode="normal" in="SourceGraphic" in2="effect1_backgroundBlur" result="shape"/>
</filter>
<linearGradient id="paint0_linear" x1="187" y1="290.833" x2="993.775" y2="281.603" gradientUnits="userSpaceOnUse">
<stop stop-color="white" stop-opacity="0.7"/>
<stop offset="1" stop-color="white" stop-opacity="0.2"/>
</linearGradient>
</defs>
</svg>
