<svg width="1267" height="323" viewBox="0 0 1267 323" fill="none" xmlns="http://www.w3.org/2000/svg">
<g filter="url(#filter0_bd)">
<path d="M4.5 275.215V31.3596C4.5 23.5653 5.72261 17.7802 8.11568 13.4726C10.5009 9.17921 14.0741 6.30864 18.8713 4.38399C23.6835 2.45335 29.7208 1.47769 37.0093 0.988873C44.2951 0.500235 52.7894 0.5 62.5067 0.5C81.9169 0.5 364.016 12.3174 645.329 24.1363L684.361 25.7763C952.019 37.023 1207.87 47.7734 1223.28 47.7734C1231.36 47.7734 1237.8 47.774 1242.92 48.3191C1248.05 48.8642 1251.78 49.9478 1254.51 52.057C1257.22 54.1558 1259.01 57.3245 1260.11 62.1934C1261.22 67.0724 1261.63 73.6075 1261.63 82.3774V214.368C1261.63 225.61 1260.33 232.873 1255.02 237.39C1252.35 239.656 1248.64 241.269 1243.47 242.313C1238.29 243.356 1231.69 243.824 1223.28 243.824C1206.86 243.824 938.516 260.568 663.094 277.754L640.521 279.163C357.33 296.833 73.7192 314.5 55.0178 314.5C45.6632 314.5 37.8255 314.178 31.3268 313.16C24.8281 312.143 19.7037 310.434 15.7528 307.686C7.8912 302.217 4.5 292.496 4.5 275.215Z" stroke="white" stroke-opacity="0.3" stroke-linecap="round" stroke-linejoin="round" style="mix-blend-mode:overlay"/>
<path d="M4.5 275.215V31.3596C4.5 23.5653 5.72261 17.7802 8.11568 13.4726C10.5009 9.17921 14.0741 6.30864 18.8713 4.38399C23.6835 2.45335 29.7208 1.47769 37.0093 0.988873C44.2951 0.500235 52.7894 0.5 62.5067 0.5C81.9169 0.5 364.016 12.3174 645.329 24.1363L684.361 25.7763C952.019 37.023 1207.87 47.7734 1223.28 47.7734C1231.36 47.7734 1237.8 47.774 1242.92 48.3191C1248.05 48.8642 1251.78 49.9478 1254.51 52.057C1257.22 54.1558 1259.01 57.3245 1260.11 62.1934C1261.22 67.0724 1261.63 73.6075 1261.63 82.3774V214.368C1261.63 225.61 1260.33 232.873 1255.02 237.39C1252.35 239.656 1248.64 241.269 1243.47 242.313C1238.29 243.356 1231.69 243.824 1223.28 243.824C1206.86 243.824 938.516 260.568 663.094 277.754L640.521 279.163C357.33 296.833 73.7192 314.5 55.0178 314.5C45.6632 314.5 37.8255 314.178 31.3268 313.16C24.8281 312.143 19.7037 310.434 15.7528 307.686C7.8912 302.217 4.5 292.496 4.5 275.215Z" stroke="url(#paint0_linear)" stroke-opacity="0.1" stroke-linecap="round" stroke-linejoin="round"/>
</g>
<g filter="url(#filter1_b)">
<path d="M4 275.215V31.3596C4 0 23.6582 0 62.5067 0C101.355 0 1190.98 47.2734 1223.28 47.2734C1255.57 47.2734 1262.13 47.2734 1262.13 82.3774V214.368C1262.13 236.835 1256.98 244.324 1223.28 244.324C1189.58 244.324 92.4621 315 55.0178 315C17.5736 315 4 309.851 4 275.215Z" fill="url(#paint1_linear)" fill-opacity="0.6"/>
<path d="M4.5 275.215V31.3596C4.5 23.5653 5.72261 17.7802 8.11568 13.4726C10.5009 9.17921 14.0741 6.30864 18.8713 4.38399C23.6835 2.45335 29.7208 1.47769 37.0093 0.988873C44.2951 0.500235 52.7894 0.5 62.5067 0.5C81.9169 0.5 364.016 12.3174 645.329 24.1363L684.361 25.7763C952.019 37.023 1207.87 47.7734 1223.28 47.7734C1231.36 47.7734 1237.8 47.774 1242.92 48.3191C1248.05 48.8642 1251.78 49.9478 1254.51 52.057C1257.22 54.1558 1259.01 57.3245 1260.11 62.1934C1261.22 67.0724 1261.63 73.6075 1261.63 82.3774V214.368C1261.63 225.61 1260.33 232.873 1255.02 237.39C1252.35 239.656 1248.64 241.269 1243.47 242.313C1238.29 243.356 1231.69 243.824 1223.28 243.824C1206.86 243.824 938.516 260.568 663.094 277.754L640.521 279.163C357.33 296.833 73.7192 314.5 55.0178 314.5C45.6632 314.5 37.8255 314.178 31.3268 313.16C24.8281 312.143 19.7037 310.434 15.7528 307.686C7.8912 302.217 4.5 292.496 4.5 275.215Z" stroke="white" stroke-opacity="0.3" stroke-linecap="round" stroke-linejoin="round" style="mix-blend-mode:overlay"/>
</g>
<defs>
<filter id="filter0_bd" x="-26" y="-30" width="1318.13" height="375" filterUnits="userSpaceOnUse" color-interpolation-filters="sRGB">
<feFlood flood-opacity="0" result="BackgroundImageFix"/>
<feGaussianBlur in="BackgroundImage" stdDeviation="15"/>
<feComposite in2="SourceAlpha" operator="in" result="effect1_backgroundBlur"/>
<feColorMatrix in="SourceAlpha" type="matrix" values="0 0 0 0 0 0 0 0 0 0 0 0 0 0 0 0 0 0 127 0"/>
<feOffset dy="4"/>
<feGaussianBlur stdDeviation="2"/>
<feColorMatrix type="matrix" values="0 0 0 0 0 0 0 0 0 0 0 0 0 0 0 0 0 0 0.2 0"/>
<feBlend mode="normal" in2="effect1_backgroundBlur" result="effect2_dropShadow"/>
<feBlend mode="normal" in="SourceGraphic" in2="effect2_dropShadow" result="shape"/>
</filter>
<filter id="filter1_b" x="-26" y="-30" width="1318.13" height="375" filterUnits="userSpaceOnUse" color-interpolation-filters="sRGB">
<feFlood flood-opacity="0" result="BackgroundImageFix"/>
<feGaussianBlur in="BackgroundImage" stdDeviation="15"/>
<feComposite in2="SourceAlpha" operator="in" result="effect1_backgroundBlur"/>
<feBlend mode="normal" in="SourceGraphic" in2="effect1_backgroundBlur" result="shape"/>
</filter>
<linearGradient id="paint0_linear" x1="1279.5" y1="123.5" x2="549.5" y2="131.5" gradientUnits="userSpaceOnUse">
<stop/>
<stop offset="1" stop-opacity="0"/>
</linearGradient>
<linearGradient id="paint1_linear" x1="4" y1="182.5" x2="1238.5" y2="158" gradientUnits="userSpaceOnUse">
<stop stop-color="white" stop-opacity="0.7"/>
<stop offset="1" stop-color="white" stop-opacity="0.2"/>
</linearGradient>
</defs>
</svg>
