<svg width="429" height="429" viewBox="0 0 429 429" fill="none" xmlns="http://www.w3.org/2000/svg">
<circle cx="214.224" cy="214.224" r="214.224" fill="#663201"/>
<path d="M428.448 214.224C428.448 265.058 410.372 314.235 377.449 352.967C344.526 391.699 298.903 417.462 248.733 425.651C198.563 433.839 147.116 423.92 103.586 397.667C60.0566 371.413 27.2813 330.536 11.1178 282.34C-5.04564 234.145 -3.54385 181.772 15.3548 134.581C34.2534 87.3911 69.3173 48.459 114.28 24.743C159.242 1.02691 211.173 -5.92752 260.792 5.12258C310.41 16.1727 354.482 44.5071 385.131 85.0621L214.224 214.224H428.448Z" fill="#FEC100"/>
<path d="M428.448 214.224C428.448 261.017 413.127 306.524 384.826 343.789C356.525 381.053 316.801 408.027 271.725 420.587C226.649 433.147 178.7 430.603 135.207 413.343C91.7128 396.083 55.0666 365.057 30.8684 325.006C6.67011 284.955 -3.7491 238.083 1.20304 191.553C6.15517 145.022 26.2063 101.393 58.292 67.3325C90.3777 33.2721 132.733 10.654 178.885 2.93487C225.038 -4.78422 272.448 2.82028 313.871 24.5862L214.224 214.224H428.448Z" fill="#FEF2CD"/>
<path d="M428.448 214.224C428.448 260.614 413.39 305.751 385.536 342.849C357.682 379.946 318.539 407 273.991 419.942C229.443 432.885 181.897 431.017 138.501 414.619C95.1058 398.221 58.2058 368.18 33.3487 329.011C8.49158 289.843 -2.97936 243.663 0.660384 197.416C4.30012 151.169 22.8538 107.353 53.5323 72.5552C84.2107 37.7573 125.356 13.8583 170.782 4.45097C216.209 -4.95637 263.461 0.636353 305.436 20.3884L214.224 214.224H428.448Z" fill="#BA2E5D"/>
<path d="M428.448 214.224C428.448 257.741 415.195 300.225 390.454 336.024C365.712 371.822 330.654 399.237 289.947 414.619C249.24 430.001 204.813 432.621 162.58 422.13C120.347 411.639 82.3103 388.535 53.5322 355.893C24.7542 323.251 6.59972 282.618 1.4849 239.403C-3.62992 196.189 4.53751 152.441 24.9002 113.982C45.2629 75.5238 76.8551 44.1788 115.472 24.1188C154.089 4.05873 197.9 -3.76485 241.074 1.68922L214.224 214.224H428.448Z" fill="#87045F"/>
<path d="M428.45 214.225C428.45 256.595 415.886 298.013 392.347 333.242C368.807 368.471 335.35 395.929 296.205 412.143C257.061 428.357 213.987 432.6 172.432 424.334C130.876 416.068 92.705 395.665 62.7451 365.705C32.7851 335.745 12.3822 297.574 4.11627 256.018C-4.14965 214.463 0.0927243 171.389 16.3069 132.245C32.5211 93.1001 59.9789 59.6428 95.208 36.1034C130.437 12.5641 171.855 -5.05254e-07 214.225 0V214.225H428.45Z" fill="#FE815F"/>
</svg>
