<svg width="83" height="85" viewBox="0 0 83 85" fill="none" xmlns="http://www.w3.org/2000/svg">
<path d="M28.2019 12.6174C28.2019 13.8701 28.3804 15.1227 28.7374 16.2859C23.3826 19.0595 19.0095 23.4438 16.2428 28.8122C15.0826 28.4543 13.8331 28.2753 12.5836 28.2753C11.9589 28.2753 11.4234 28.2753 10.7987 28.3648C14.2793 20.5806 20.5267 14.228 28.3804 10.828C28.2912 11.3648 28.2019 11.9911 28.2019 12.6174ZM16.2428 55.2964C15.0826 55.6543 13.8331 55.8332 12.5836 55.8332C11.9589 55.8332 11.4234 55.8332 10.7987 55.7437C14.1901 63.528 20.5267 69.8806 28.3804 73.2806C28.2912 72.6543 28.2912 72.1174 28.2912 71.4911C28.2912 70.2385 28.4697 68.9859 28.8267 67.8227C23.3826 65.1385 19.0095 60.6648 16.2428 55.2964ZM67.7385 55.2964C64.9718 60.6648 60.5987 65.049 55.2439 67.8227C55.6009 68.9859 55.7793 70.2385 55.7793 71.4911C55.7793 72.1174 55.7794 72.6543 55.6901 73.2806C63.4546 69.8806 69.7019 63.528 73.1826 55.7437C72.5578 55.8332 72.0224 55.8332 71.3976 55.8332C70.0589 55.8332 68.8987 55.6543 67.7385 55.2964ZM67.7385 28.8122C68.8987 28.4543 70.1482 28.2753 71.3976 28.2753C72.0224 28.2753 72.5578 28.2753 73.1826 28.3648C69.7019 20.5806 63.4546 14.228 55.6009 10.828C55.8686 12.4385 55.7794 14.4069 55.2439 16.2859C60.5987 18.9701 64.9718 23.4438 67.7385 28.8122ZM82.5535 42.0543C82.5535 48.228 77.5557 53.328 71.3084 53.328C65.1503 53.328 60.0632 48.3174 60.0632 42.0543C60.0632 35.7911 65.1503 30.7806 71.3976 30.7806C77.5557 30.7806 82.5535 35.8806 82.5535 42.0543ZM70.7729 41.8753V40.1753C70.7729 38.3859 72.7363 38.2069 73.5396 39.549L74.6105 38.6543C73.2718 36.4174 69.2557 36.5964 69.2557 40.1753V41.7859H68.1847V43.0385H69.2557V45.3648H68.1847V46.7069H74.6105V45.3648H70.7729V43.0385H72.9148V41.7859L70.7729 41.8753ZM12.5836 53.328C6.42558 53.328 1.42773 48.228 1.42773 42.0543C1.42773 35.8806 6.42558 30.7806 12.6729 30.7806C18.831 30.7806 23.9181 35.7911 23.9181 42.0543C23.8288 48.228 18.831 53.328 12.5836 53.328ZM12.8514 46.7069C14.1901 46.7069 15.2611 46.1701 16.0643 45.1859L15.1718 44.0227C14.2793 44.9174 13.6546 45.0964 12.9406 45.0964C11.9589 45.0964 11.3342 44.649 10.7987 43.7543H13.7439V42.5911H10.4417C10.4417 42.4122 10.4417 42.2332 10.4417 41.9648C10.4417 41.7859 10.4417 41.6069 10.4417 41.5174H13.8331V40.3543H10.7095C10.8879 39.9069 11.2449 39.4595 11.6019 39.1911C12.5836 38.5648 14.1009 38.5648 15.2611 39.9069L16.1535 38.7437C14.7256 36.9543 12.0482 36.7753 10.4417 38.1174C9.72773 38.6543 9.19225 39.4595 8.92451 40.3543H7.49655V41.5174H8.65677C8.65677 41.6069 8.65677 41.7859 8.65677 41.9648C8.65677 42.1437 8.65677 42.4122 8.65677 42.5911H7.49655V43.8438H8.92451C9.54924 45.5438 10.9772 46.7069 12.8514 46.7069ZM53.1912 12.6174C53.1912 18.7911 48.1933 23.8016 41.946 23.8016C35.6987 23.8016 30.7901 18.7911 30.7901 12.6174C30.7901 6.44375 35.7879 1.34375 42.0353 1.34375C48.2826 1.34375 53.1912 6.35428 53.1912 12.6174ZM43.4632 12.4385L46.0514 8.23322H44.4449L42.0353 12.1701H41.946L39.6256 8.23322H38.0191L40.5181 12.4385H38.8224V13.5122H41.1428L41.232 13.6016V14.3174H38.9116V15.3911H41.232V16.9122H42.7492V15.3911H45.0697V14.3174H42.7492V13.6911V13.6016H45.0697V12.528L43.4632 12.4385ZM53.1912 71.4911C53.1912 77.6648 48.1933 82.7648 41.946 82.7648C35.6987 82.7648 30.7009 77.7543 30.7009 71.4911C30.7009 65.3174 35.6987 60.2174 41.946 60.2174C48.1933 60.2174 53.1912 65.3174 53.1912 71.4911ZM45.3374 73.2806C45.3374 71.5806 44.1772 71.0437 42.5707 70.6859V68.3595C43.1955 68.449 43.8202 68.7174 44.3557 69.0753L45.1589 67.9122C44.3557 67.3753 43.4632 67.0174 42.5707 66.928V66.3016H41.7675V66.928C40.2503 67.0174 39.0009 67.9122 39.0009 69.4332C39.0009 71.0437 40.0718 71.5806 41.7675 71.9385V74.3543C41.0535 74.2648 40.3396 73.9069 39.6256 73.2806L38.7331 74.3543C39.6256 75.1595 40.6966 75.6069 41.8568 75.6964V76.5911H42.66V75.6964C44.0879 75.6964 45.3374 74.8016 45.3374 73.2806ZM40.5181 69.3438C40.5181 70.0595 41.0535 70.2385 41.6783 70.5069V68.3595C41.0535 68.3595 40.5181 68.628 40.5181 69.3438ZM42.4815 72.2069V74.4437C43.1955 74.3543 43.8202 73.9964 43.8202 73.3701C43.8202 72.6543 43.2847 72.3858 42.4815 72.2069ZM41.946 51.8964C47.3901 51.8964 51.7632 47.5122 51.7632 42.0543C51.7632 36.5964 47.3901 32.2122 41.946 32.2122C36.5019 32.2122 32.1288 36.5964 32.1288 42.0543C32.1288 47.5122 36.5912 51.8964 41.946 51.8964Z" fill="url(#paint0_linear)"/>
<path opacity="0.5" d="M28.2019 12.6174C28.2019 13.8701 28.3804 15.1227 28.7374 16.2859C23.3826 19.0595 19.0095 23.4438 16.2428 28.8122C15.0826 28.4543 13.8331 28.2753 12.5836 28.2753C11.9589 28.2753 11.4234 28.2753 10.7987 28.3648C14.2793 20.5806 20.5267 14.228 28.3804 10.828C28.2912 11.3648 28.2019 11.9911 28.2019 12.6174ZM16.2428 55.2964C15.0826 55.6543 13.8331 55.8332 12.5836 55.8332C11.9589 55.8332 11.4234 55.8332 10.7987 55.7437C14.1901 63.528 20.5267 69.8806 28.3804 73.2806C28.2912 72.6543 28.2912 72.1174 28.2912 71.4911C28.2912 70.2385 28.4697 68.9859 28.8267 67.8227C23.3826 65.1385 19.0095 60.6648 16.2428 55.2964ZM67.7385 55.2964C64.9718 60.6648 60.5987 65.049 55.2439 67.8227C55.6009 68.9859 55.7793 70.2385 55.7793 71.4911C55.7793 72.1174 55.7794 72.6543 55.6901 73.2806C63.4546 69.8806 69.7019 63.528 73.1826 55.7437C72.5578 55.8332 72.0224 55.8332 71.3976 55.8332C70.0589 55.8332 68.8987 55.6543 67.7385 55.2964ZM67.7385 28.8122C68.8987 28.4543 70.1482 28.2753 71.3976 28.2753C72.0224 28.2753 72.5578 28.2753 73.1826 28.3648C69.7019 20.5806 63.4546 14.228 55.6009 10.828C55.8686 12.4385 55.7794 14.4069 55.2439 16.2859C60.5987 18.9701 64.9718 23.4438 67.7385 28.8122ZM82.5535 42.0543C82.5535 48.228 77.5557 53.328 71.3084 53.328C65.1503 53.328 60.0632 48.3174 60.0632 42.0543C60.0632 35.7911 65.1503 30.7806 71.3976 30.7806C77.5557 30.7806 82.5535 35.8806 82.5535 42.0543ZM70.7729 41.8753V40.1753C70.7729 38.3859 72.7363 38.2069 73.5396 39.549L74.6105 38.6543C73.2718 36.4174 69.2557 36.5964 69.2557 40.1753V41.7859H68.1847V43.0385H69.2557V45.3648H68.1847V46.7069H74.6105V45.3648H70.7729V43.0385H72.9148V41.7859L70.7729 41.8753ZM12.5836 53.328C6.42558 53.328 1.42773 48.228 1.42773 42.0543C1.42773 35.8806 6.42558 30.7806 12.6729 30.7806C18.831 30.7806 23.9181 35.7911 23.9181 42.0543C23.8288 48.228 18.831 53.328 12.5836 53.328ZM12.8514 46.7069C14.1901 46.7069 15.2611 46.1701 16.0643 45.1859L15.1718 44.0227C14.2793 44.9174 13.6546 45.0964 12.9406 45.0964C11.9589 45.0964 11.3342 44.649 10.7987 43.7543H13.7439V42.5911H10.4417C10.4417 42.4122 10.4417 42.2332 10.4417 41.9648C10.4417 41.7859 10.4417 41.6069 10.4417 41.5174H13.8331V40.3543H10.7095C10.8879 39.9069 11.2449 39.4595 11.6019 39.1911C12.5836 38.5648 14.1009 38.5648 15.2611 39.9069L16.1535 38.7437C14.7256 36.9543 12.0482 36.7753 10.4417 38.1174C9.72773 38.6543 9.19225 39.4595 8.92451 40.3543H7.49655V41.5174H8.65677C8.65677 41.6069 8.65677 41.7859 8.65677 41.9648C8.65677 42.1437 8.65677 42.4122 8.65677 42.5911H7.49655V43.8438H8.92451C9.54924 45.5438 10.9772 46.7069 12.8514 46.7069ZM53.1912 12.6174C53.1912 18.7911 48.1933 23.8016 41.946 23.8016C35.6987 23.8016 30.7901 18.7911 30.7901 12.6174C30.7901 6.44375 35.7879 1.34375 42.0353 1.34375C48.2826 1.34375 53.1912 6.35428 53.1912 12.6174ZM43.4632 12.4385L46.0514 8.23322H44.4449L42.0353 12.1701H41.946L39.6256 8.23322H38.0191L40.5181 12.4385H38.8224V13.5122H41.1428L41.232 13.6016V14.3174H38.9116V15.3911H41.232V16.9122H42.7492V15.3911H45.0697V14.3174H42.7492V13.6911V13.6016H45.0697V12.528L43.4632 12.4385ZM53.1912 71.4911C53.1912 77.6648 48.1933 82.7648 41.946 82.7648C35.6987 82.7648 30.7009 77.7543 30.7009 71.4911C30.7009 65.3174 35.6987 60.2174 41.946 60.2174C48.1933 60.2174 53.1912 65.3174 53.1912 71.4911ZM45.3374 73.2806C45.3374 71.5806 44.1772 71.0437 42.5707 70.6859V68.3595C43.1955 68.449 43.8202 68.7174 44.3557 69.0753L45.1589 67.9122C44.3557 67.3753 43.4632 67.0174 42.5707 66.928V66.3016H41.7675V66.928C40.2503 67.0174 39.0009 67.9122 39.0009 69.4332C39.0009 71.0437 40.0718 71.5806 41.7675 71.9385V74.3543C41.0535 74.2648 40.3396 73.9069 39.6256 73.2806L38.7331 74.3543C39.6256 75.1595 40.6966 75.6069 41.8568 75.6964V76.5911H42.66V75.6964C44.0879 75.6964 45.3374 74.8016 45.3374 73.2806ZM40.5181 69.3438C40.5181 70.0595 41.0535 70.2385 41.6783 70.5069V68.3595C41.0535 68.3595 40.5181 68.628 40.5181 69.3438ZM42.4815 72.2069V74.4437C43.1955 74.3543 43.8202 73.9964 43.8202 73.3701C43.8202 72.6543 43.2847 72.3858 42.4815 72.2069ZM41.946 51.8964C47.3901 51.8964 51.7632 47.5122 51.7632 42.0543C51.7632 36.5964 47.3901 32.2122 41.946 32.2122C36.5019 32.2122 32.1288 36.5964 32.1288 42.0543C32.1288 47.5122 36.5912 51.8964 41.946 51.8964Z" fill="#F88340"/>
<defs>
<linearGradient id="paint0_linear" x1="17.8126" y1="8.42505" x2="67.9579" y2="77.8384" gradientUnits="userSpaceOnUse">
<stop stop-color="#F88340"/>
<stop offset="0.3542" stop-color="#F88340"/>
<stop offset="0.5215" stop-color="#F88340"/>
<stop offset="0.7262" stop-color="#F88340"/>
<stop offset="1" stop-color="#F88340"/>
</linearGradient>
</defs>
</svg>
