<svg width="52" height="52" viewBox="0 0 52 52" fill="none" xmlns="http://www.w3.org/2000/svg">
<path d="M21.9817 21.957C20.7816 21.957 19.834 23.0126 19.834 24.3004C19.834 25.5881 20.8027 26.6437 21.9817 26.6437C23.182 26.6437 24.1295 25.5881 24.1295 24.3004C24.1505 23.0126 23.182 21.957 21.9817 21.957ZM29.6673 21.957C28.4671 21.957 27.5196 23.0126 27.5196 24.3004C27.5196 25.5881 28.4881 26.6437 29.6673 26.6437C30.8675 26.6437 31.8151 25.5881 31.8151 24.3004C31.8151 23.0126 30.8675 21.957 29.6673 21.957Z" fill="#7289DA"/>
<path d="M39.903 4.24219H11.6876C9.30828 4.24219 7.37109 6.18441 7.37109 8.59108V37.1333C7.37109 39.54 9.30828 41.4821 11.6876 41.4821H35.5654L34.4494 37.5767L37.1446 40.0888L39.6925 42.4533L44.2196 46.4644V8.59108C44.2196 6.18441 42.2824 4.24219 39.903 4.24219ZM31.7753 31.8133C31.7753 31.8133 31.0173 30.9055 30.3856 30.1033C33.144 29.3221 34.1968 27.5911 34.1968 27.5911C33.3334 28.1611 32.5122 28.5621 31.7753 28.8367C30.7225 29.28 29.7118 29.5755 28.7221 29.7444C26.7008 30.1244 24.8478 30.0188 23.2686 29.7233C22.0684 29.4911 21.0366 29.1533 20.1733 28.8155C19.689 28.6255 19.1626 28.3933 18.6362 28.0977C18.573 28.0555 18.5098 28.0344 18.4466 27.9921C18.4046 27.9711 18.3836 27.95 18.3625 27.9288C17.9834 27.7177 17.7729 27.57 17.7729 27.57C17.7729 27.57 18.7836 29.2588 21.4577 30.0611C20.8261 30.8633 20.047 31.8133 20.047 31.8133C15.3936 31.6655 13.6248 28.6044 13.6248 28.6044C13.6248 21.8067 16.6569 16.2967 16.6569 16.2967C19.689 14.0167 22.5737 14.08 22.5737 14.08L22.7842 14.3333C18.9941 15.4311 17.2465 17.0988 17.2465 17.0988C17.2465 17.0988 17.7097 16.8455 18.4888 16.4867C20.7418 15.4944 22.5316 15.22 23.2686 15.1567C23.3949 15.1355 23.5002 15.1144 23.6265 15.1144C24.911 14.9455 26.3638 14.9033 27.88 15.0721C29.8802 15.3044 32.028 15.8955 34.2178 17.0988C34.2178 17.0988 32.5544 15.5155 28.9749 14.4177L29.2696 14.08C29.2696 14.08 32.1544 14.0167 35.1865 16.2967C35.1865 16.2967 38.2185 21.8067 38.2185 28.6044C38.2185 28.6044 36.4288 31.6655 31.7753 31.8133Z" fill="#7289DA"/>
</svg>
