<svg width="635" height="635" viewBox="0 0 635 635" fill="none" xmlns="http://www.w3.org/2000/svg">
<g filter="url(#filter0_dd)">
<circle cx="300.224" cy="300.224" r="214.224" fill="#663201"/>
</g>
<path d="M514.448 300.224C514.448 351.058 496.372 400.235 463.449 438.967C430.526 477.699 384.903 503.462 334.733 511.651C284.563 519.839 233.116 509.92 189.586 483.667C146.057 457.413 113.281 416.536 97.1178 368.34C80.9544 320.145 82.4562 267.772 101.355 220.581C120.253 173.391 155.317 134.459 200.28 110.743C245.242 87.0269 297.173 80.0725 346.792 91.1226C396.41 102.173 440.482 130.507 471.131 171.062L300.224 300.224H514.448Z" fill="#FEC100"/>
<path d="M514.448 300.224C514.448 347.017 499.127 392.524 470.826 429.789C442.525 467.053 402.801 494.027 357.725 506.587C312.649 519.147 264.7 516.603 221.207 499.343C177.713 482.083 141.067 451.057 116.868 411.006C92.6701 370.955 82.2509 324.083 87.203 277.553C92.1552 231.022 112.206 187.393 144.292 153.333C176.378 119.272 218.733 96.654 264.885 88.9349C311.038 81.2158 358.448 88.8203 399.871 110.586L300.224 300.224H514.448Z" fill="#FEF2CD"/>
<path d="M514.448 300.224C514.448 346.614 499.39 391.751 471.536 428.849C443.682 465.946 404.539 493 359.991 505.942C315.443 518.885 267.897 517.017 224.501 500.619C181.106 484.221 144.206 454.18 119.349 415.011C94.4916 375.843 83.0206 329.663 86.6604 283.416C90.3001 237.169 108.854 193.353 139.532 158.555C170.211 123.757 211.356 99.8583 256.782 90.451C302.209 81.0436 349.461 86.6364 391.436 106.388L300.224 300.224H514.448Z" fill="#BA2E5D"/>
<path d="M514.448 300.224C514.448 343.741 501.195 386.225 476.454 422.024C451.712 457.822 416.654 485.237 375.947 500.619C335.24 516.001 290.813 518.621 248.58 508.13C206.347 497.639 168.31 474.535 139.532 441.893C110.754 409.251 92.5997 368.618 87.4849 325.403C82.3701 282.189 90.5375 238.441 110.9 199.982C131.263 161.524 162.855 130.179 201.472 110.119C240.089 90.0587 283.9 82.2351 327.074 87.6892L300.224 300.224H514.448Z" fill="#87045F"/>
<path d="M514.45 300.225C514.45 342.595 501.886 384.013 478.347 419.242C454.807 454.471 421.35 481.929 382.205 498.143C343.061 514.357 299.987 518.6 258.432 510.334C216.876 502.068 178.705 481.665 148.745 451.705C118.785 421.745 98.3822 383.574 90.1163 342.018C81.8504 300.463 86.0927 257.389 102.307 218.245C118.521 179.1 145.979 145.643 181.208 122.103C216.437 98.5641 257.855 86 300.225 86V300.225H514.45Z" fill="#FE815F"/>
<defs>
<filter id="filter0_dd" x="0.310349" y="0.310349" width="634.103" height="634.103" filterUnits="userSpaceOnUse" color-interpolation-filters="sRGB">
<feFlood flood-opacity="0" result="BackgroundImageFix"/>
<feColorMatrix in="SourceAlpha" type="matrix" values="0 0 0 0 0 0 0 0 0 0 0 0 0 0 0 0 0 0 127 0"/>
<feOffset dx="17.1379" dy="17.1379"/>
<feGaussianBlur stdDeviation="51.4138"/>
<feColorMatrix type="matrix" values="0 0 0 0 0 0 0 0 0 0 0 0 0 0 0 0 0 0 0.06 0"/>
<feBlend mode="normal" in2="BackgroundImageFix" result="effect1_dropShadow"/>
<feColorMatrix in="SourceAlpha" type="matrix" values="0 0 0 0 0 0 0 0 0 0 0 0 0 0 0 0 0 0 127 0"/>
<feOffset dy="4"/>
<feGaussianBlur stdDeviation="2"/>
<feColorMatrix type="matrix" values="0 0 0 0 0 0 0 0 0 0 0 0 0 0 0 0 0 0 0.25 0"/>
<feBlend mode="normal" in2="effect1_dropShadow" result="effect2_dropShadow"/>
<feBlend mode="normal" in="SourceGraphic" in2="effect2_dropShadow" result="shape"/>
</filter>
</defs>
</svg>
