<svg width="67" height="45" viewBox="0 0 67 45" fill="none" xmlns="http://www.w3.org/2000/svg">
<path d="M36 1.5L28.5 6L36 10L43 5.5L36 1.5Z" fill="#F88340" stroke="#F88340"/>
<path d="M9.24138 20L2 24.3448L9.24138 28.2069L16 23.8621L9.24138 20Z" fill="#F88340" stroke="#F88340" stroke-width="0.965517"/>
<path d="M36.1379 32L32 34.4828L36.1379 36.6897L40 34.2069L36.1379 32Z" fill="#F88340" stroke="#F88340" stroke-width="0.551724"/>
<path d="M60.5588 11L55.2646 14.1765L60.5588 17L65.4999 13.8235L60.5588 11Z" fill="#F88340" stroke="#F88340" stroke-width="0.705882"/>
<path d="M27.9492 5.96442L35.9277 1L43.3744 5.25522V5.43252M27.9492 5.96442V14.6522L35.9277 18.9074M27.9492 5.96442L35.9277 10.2196M35.9277 18.9074L43.3744 14.6522V5.43252M35.9277 18.9074V10.2196M35.9277 10.2196L43.3744 5.43252" stroke="#F88340" stroke-width="0.709203"/>
<path d="M31.4961 35.2836L36.2649 32.3164L40.7157 34.8598V34.9657M31.4961 35.2836V40.4763L36.2649 43.0197M31.4961 35.2836L36.2649 37.827M36.2649 43.0197L40.7157 40.4763V34.9657M36.2649 43.0197V37.827M36.2649 37.827L40.7157 34.9657" stroke="#F88340" stroke-width="0.709203"/>
<path d="M54.8994 14.5817L60.7687 10.9297L66.2467 14.06V14.1904M54.8994 14.5817V20.9726L60.7687 24.1029M54.8994 14.5817L60.7687 17.7119M60.7687 24.1029L66.2467 20.9726V14.1904M60.7687 24.1029V17.7119M60.7687 17.7119L66.2467 14.1904" stroke="#F88340" stroke-width="0.709203"/>
<path d="M16.6025 26.885L31.4958 16.6016" stroke="#F88340" stroke-width="0.354601"/>
<path d="M49.9179 28.9499L58.1076 35.0154" stroke="#F88340" stroke-width="0.354601"/>
<path d="M1 24.7574L8.97853 19.793L16.4252 24.0482V24.2255M1 24.7574V33.4451L8.97853 37.7003M1 24.7574L8.97853 29.0126M8.97853 37.7003L16.4252 33.4451V24.2255M8.97853 37.7003V29.0126M8.97853 29.0126L16.4252 24.2255" stroke="#F88340" stroke-width="0.709203"/>
<path d="M12.5244 35.5742C12.5244 35.5742 17.8434 39.2975 23.3398 43.0208C28.8361 46.7442 33.6232 41.7797 33.6232 41.7797" stroke="#F88340" stroke-width="0.354601"/>
<path d="M40.7148 36.284L58.0903 22.457" stroke="#F88340" stroke-width="0.244725"/>
<path d="M62.7001 36.8147C62.7001 35.7174 61.5181 34.6871 59.8633 34.6871C58.2085 34.6871 57.0265 35.7174 57.0265 36.8147C57.0265 37.9119 58.2085 38.9423 59.8633 38.9423C61.5181 38.9423 62.7001 37.9119 62.7001 36.8147Z" stroke="#F88340" stroke-width="0.709203"/>
<path d="M29.3682 9.15625L32.9142 10.9293" stroke="#F88340" stroke-width="0.354601"/>
<path d="M55.6084 19.082L59.1544 20.855" stroke="#F88340" stroke-width="0.354601"/>
<path d="M55.6084 20.1484L57.736 21.2122" stroke="#F88340" stroke-width="0.354601"/>
<path d="M29.3682 10.9297L32.9142 12.7027" stroke="#F88340" stroke-width="0.354601"/>
<path d="M29.3682 12.7031L32.9142 14.4761" stroke="#F88340" stroke-width="0.354601"/>
<path d="M55.9629 17.3352C56.3179 15.8452 57.3813 19.2872 58.4451 18.5764" stroke="#F88340" stroke-width="0.354601"/>
<path d="M5.74588 31.5061C5.74588 31.7393 5.64911 31.9305 5.45557 32.0799C5.26356 32.2292 5.00069 32.3039 4.66695 32.3039C4.47799 32.3039 4.30426 32.2818 4.14578 32.2376C3.98882 32.1919 3.857 32.1424 3.75032 32.089V31.6067H3.77318C3.90881 31.7088 4.05968 31.7903 4.22578 31.8513C4.39189 31.9107 4.55114 31.9405 4.70353 31.9405C4.89249 31.9405 5.04031 31.91 5.14698 31.849C5.25366 31.7881 5.30699 31.6921 5.30699 31.561C5.30699 31.4604 5.27804 31.3842 5.22013 31.3324C5.16222 31.2806 5.05098 31.2364 4.8864 31.1998C4.82544 31.1861 4.74543 31.1701 4.64638 31.1518C4.54885 31.1335 4.4597 31.1137 4.37894 31.0924C4.15492 31.033 3.99567 30.9461 3.90119 30.8318C3.80823 30.716 3.76175 30.5743 3.76175 30.4066C3.76175 30.3015 3.78309 30.2024 3.82576 30.1095C3.86995 30.0165 3.93624 29.9335 4.02463 29.8603C4.10997 29.7887 4.21816 29.7323 4.34922 29.6912C4.4818 29.6485 4.62962 29.6272 4.79268 29.6272C4.94507 29.6272 5.09898 29.6462 5.25442 29.6843C5.41138 29.7209 5.54167 29.7658 5.6453 29.8192V30.2786H5.62244C5.51272 30.1979 5.37938 30.1301 5.22242 30.0752C5.06545 30.0188 4.91154 29.9906 4.76067 29.9906C4.60371 29.9906 4.47113 30.0211 4.36293 30.0821C4.25474 30.1415 4.20064 30.2306 4.20064 30.3495C4.20064 30.4546 4.2334 30.5339 4.29893 30.5872C4.36293 30.6406 4.46656 30.684 4.60981 30.7175C4.68905 30.7358 4.77744 30.7541 4.87497 30.7724C4.97402 30.7907 5.05631 30.8074 5.12184 30.8227C5.32147 30.8684 5.47538 30.9469 5.58358 31.0581C5.69178 31.1709 5.74588 31.3202 5.74588 31.5061Z" fill="#F88340"/>
<line x1="4.7232" y1="29.3672" x2="4.7232" y2="32.9132" stroke="#F88340" stroke-width="0.354601"/>
</svg>
