<svg width="127" height="46" viewBox="0 0 127 46" fill="none" xmlns="http://www.w3.org/2000/svg">
<path d="M65.167 43.1358C62.7584 43.1358 60.3734 42.6614 58.1481 41.7397C55.9228 40.8179 53.9009 39.4669 52.1977 37.7637C50.4946 36.0606 49.1436 34.0387 48.2218 31.8134C47.3001 29.5881 46.8257 27.2031 46.8257 24.7945C46.8257 22.3858 47.3001 20.0008 48.2218 17.7755C49.1436 15.5502 50.4946 13.5283 52.1978 11.8252C53.9009 10.122 55.9228 8.771 58.1481 7.84927C60.3734 6.92753 62.7584 6.45312 65.167 6.45313L65.167 8.63515C63.045 8.63515 60.9437 9.05312 58.9831 9.8652C57.0226 10.6773 55.2412 11.8676 53.7407 13.3681C52.2401 14.8686 51.0499 16.65 50.2378 18.6105C49.4257 20.5711 49.0077 22.6724 49.0077 24.7945C49.0077 26.9165 49.4257 29.0178 50.2378 30.9784C51.0498 32.9389 52.2401 34.7203 53.7407 36.2208C55.2412 37.7213 57.0226 38.9116 58.9831 39.7237C60.9437 40.5358 63.045 40.9538 65.167 40.9538V43.1358Z" fill="#F47A1B"/>
<path d="M76.1524 39.4859C73.2008 41.6935 69.6525 42.9606 65.9702 43.122L65.8746 40.942C69.1189 40.7998 72.245 39.6835 74.8455 37.7385L76.1524 39.4859Z" fill="white"/>
<path opacity="0.1" d="M82.7226 30.1064C81.6691 33.5886 79.6037 36.6789 76.7891 38.9842L75.4065 37.2961C77.8862 35.2651 79.7059 32.5425 80.6341 29.4745L82.7226 30.1064Z" fill="#F47A1B"/>
<path opacity="0.3" d="M82.3836 18.4742C83.6291 21.8645 83.8459 25.5472 83.0067 29.0603L80.8844 28.5533C81.6238 25.4582 81.4328 22.2136 80.3354 19.2266L82.3836 18.4742Z" fill="#F47A1B"/>
<path opacity="0.6" d="M73.8469 8.64203C77.5967 10.6565 80.5291 13.9125 82.1414 17.852L80.122 18.6785C78.7015 15.2077 76.118 12.3391 72.8143 10.5642L73.8469 8.64203Z" fill="#F47A1B"/>
<path d="M66.0634 6.57292C68.4846 6.63244 70.87 7.17091 73.082 8.15723L72.1934 10.1501C70.2445 9.28113 68.1429 8.80673 66.0097 8.75429L66.0634 6.57292Z" fill="#F47A1B"/>
<path opacity="0.8" d="M66.0634 6.57292C68.4846 6.63244 70.87 7.17091 73.082 8.15723L72.1934 10.1501C70.2445 9.28113 68.1429 8.80673 66.0097 8.75429L66.0634 6.57292Z" fill="#F47A1B" fill-opacity="0.8"/>
<line x1="100.001" y1="37.9541" x2="82.3456" y2="37.9541" stroke="black" stroke-width="0.165985"/>
<line y1="-0.0829925" x2="14.3373" y2="-0.0829925" transform="matrix(-0.769657 -0.638457 -0.638457 0.769657 50.417 13.1289)" stroke="black" stroke-width="0.165985"/>
<line y1="-0.0829925" x2="17.4284" y2="-0.0829925" transform="matrix(-1 8.74228e-08 8.74228e-08 1 39.4995 4)" stroke="black" stroke-width="0.165985"/>
<circle cx="50.4477" cy="13.0191" r="0.414962" transform="rotate(-30 50.4477 13.0191)" fill="#F47A1B"/>
<circle r="0.414962" transform="matrix(-1 0 0 1 82.2637 37.9111)" fill="#F47A1B"/>
<path d="M59.8129 24.3621C59.8129 24.5761 59.7751 24.7749 59.6995 24.9586C59.626 25.1402 59.5222 25.298 59.3882 25.432C59.2218 25.5984 59.0252 25.7237 58.7982 25.808C58.5713 25.8902 58.2849 25.9312 57.9391 25.9312H57.2972V27.7305H56.6553V22.9033H57.9651C58.2547 22.9033 58.5 22.9281 58.701 22.9779C58.902 23.0254 59.0803 23.101 59.2359 23.2048C59.4196 23.328 59.5611 23.4814 59.6606 23.6651C59.7621 23.8488 59.8129 24.0812 59.8129 24.3621ZM59.1451 24.3784C59.1451 24.2119 59.1159 24.0671 59.0576 23.9439C58.9992 23.8207 58.9106 23.7202 58.7917 23.6424C58.688 23.5754 58.5691 23.5279 58.4351 23.4998C58.3033 23.4695 58.1358 23.4544 57.9326 23.4544H57.2972V25.3833H57.8386C58.098 25.3833 58.3087 25.3606 58.4708 25.3153C58.6329 25.2677 58.7647 25.1931 58.8663 25.0916C58.9679 24.9878 59.0392 24.8787 59.0803 24.7641C59.1235 24.6496 59.1451 24.521 59.1451 24.3784ZM64.2608 23.4577C64.4575 23.6738 64.6077 23.9385 64.7114 24.2519C64.8173 24.5653 64.8703 24.9208 64.8703 25.3185C64.8703 25.7162 64.8163 26.0728 64.7082 26.3883C64.6023 26.7017 64.4532 26.9632 64.2608 27.1729C64.062 27.3912 63.8264 27.5554 63.5541 27.6656C63.2839 27.7759 62.9749 27.831 62.6269 27.831C62.2876 27.831 61.9785 27.7748 61.6997 27.6624C61.4231 27.55 61.1875 27.3868 60.993 27.1729C60.7985 26.9589 60.6483 26.6963 60.5424 26.3851C60.4386 26.0739 60.3867 25.7183 60.3867 25.3185C60.3867 24.9251 60.4386 24.5729 60.5424 24.2616C60.6461 23.9483 60.7974 23.6803 60.9962 23.4577C61.1864 23.2458 61.422 23.0838 61.703 22.9714C61.9861 22.859 62.2941 22.8028 62.6269 22.8028C62.9727 22.8028 63.2828 22.8601 63.5573 22.9746C63.834 23.087 64.0685 23.248 64.2608 23.4577ZM64.2025 25.3185C64.2025 24.6917 64.062 24.2087 63.781 23.8694C63.5 23.5279 63.1164 23.3572 62.6301 23.3572C62.1395 23.3572 61.7537 23.5279 61.4728 23.8694C61.194 24.2087 61.0546 24.6917 61.0546 25.3185C61.0546 25.9517 61.1972 26.437 61.4825 26.7741C61.7678 27.1091 62.1503 27.2766 62.6301 27.2766C63.1099 27.2766 63.4914 27.1091 63.7745 26.7741C64.0598 26.437 64.2025 25.9517 64.2025 25.3185ZM69.4867 23.4577C69.6834 23.6738 69.8336 23.9385 69.9374 24.2519C70.0433 24.5653 70.0962 24.9208 70.0962 25.3185C70.0962 25.7162 70.0422 26.0728 69.9341 26.3883C69.8282 26.7017 69.6791 26.9632 69.4867 27.1729C69.2879 27.3912 69.0523 27.5554 68.78 27.6656C68.5099 27.7759 68.2008 27.831 67.8528 27.831C67.5135 27.831 67.2045 27.7748 66.9256 27.6624C66.649 27.55 66.4134 27.3868 66.2189 27.1729C66.0244 26.9589 65.8742 26.6963 65.7683 26.3851C65.6646 26.0739 65.6127 25.7183 65.6127 25.3185C65.6127 24.9251 65.6646 24.5729 65.7683 24.2616C65.872 23.9483 66.0233 23.6803 66.2222 23.4577C66.4123 23.2458 66.6479 23.0838 66.9289 22.9714C67.212 22.859 67.52 22.8028 67.8528 22.8028C68.1986 22.8028 68.5088 22.8601 68.7833 22.9746C69.0599 23.087 69.2944 23.248 69.4867 23.4577ZM69.4284 25.3185C69.4284 24.6917 69.2879 24.2087 69.0069 23.8694C68.726 23.5279 68.3424 23.3572 67.8561 23.3572C67.3655 23.3572 66.9797 23.5279 66.6987 23.8694C66.4199 24.2087 66.2805 24.6917 66.2805 25.3185C66.2805 25.9517 66.4232 26.437 66.7084 26.7741C66.9937 27.1091 67.3763 27.2766 67.8561 27.2766C68.3359 27.2766 68.7173 27.1091 69.0005 26.7741C69.2857 26.437 69.4284 25.9517 69.4284 25.3185ZM74.168 27.7305H71.1142V22.9033H71.7561V27.1599H74.168V27.7305Z" fill="#F47A1B"/>
<path d="M2.90771 5H0.60791V1.36475H1.09131V4.57031H2.90771V5ZM5.63721 3.68408H3.62793C3.62793 3.85173 3.65316 3.99821 3.70361 4.12354C3.75407 4.24723 3.82324 4.34896 3.91113 4.42871C3.99577 4.50684 4.09587 4.56543 4.21143 4.60449C4.32861 4.64355 4.45719 4.66309 4.59717 4.66309C4.78271 4.66309 4.96908 4.62646 5.15625 4.55322C5.34505 4.47835 5.47933 4.40511 5.55908 4.3335H5.5835V4.83398C5.42887 4.89909 5.271 4.95361 5.10986 4.99756C4.94873 5.0415 4.77946 5.06348 4.60205 5.06348C4.14958 5.06348 3.79639 4.94141 3.54248 4.69727C3.28857 4.4515 3.16162 4.10319 3.16162 3.65234C3.16162 3.20638 3.28288 2.85238 3.52539 2.59033C3.76953 2.32829 4.09017 2.19727 4.4873 2.19727C4.85514 2.19727 5.13835 2.30469 5.33691 2.51953C5.53711 2.73438 5.63721 3.03955 5.63721 3.43506V3.68408ZM5.19043 3.33252C5.1888 3.09163 5.12777 2.90527 5.00732 2.77344C4.88851 2.6416 4.70703 2.57568 4.46289 2.57568C4.21712 2.57568 4.021 2.64811 3.87451 2.79297C3.72965 2.93783 3.64746 3.11768 3.62793 3.33252H5.19043ZM8.61328 5H8.1543V3.44727C8.1543 3.32194 8.14697 3.20475 8.13232 3.0957C8.11768 2.98503 8.09082 2.89876 8.05176 2.83691C8.01107 2.76855 7.95247 2.7181 7.87598 2.68555C7.79948 2.65137 7.7002 2.63428 7.57812 2.63428C7.4528 2.63428 7.32178 2.6652 7.18506 2.72705C7.04834 2.7889 6.91732 2.86784 6.79199 2.96387V5H6.33301V2.27295H6.79199V2.57568C6.93522 2.45687 7.08333 2.3641 7.23633 2.29736C7.38932 2.23063 7.54639 2.19727 7.70752 2.19727C8.00212 2.19727 8.22673 2.28597 8.38135 2.46338C8.53597 2.64079 8.61328 2.89632 8.61328 3.22998V5ZM11.709 5H11.25V4.71436C11.1182 4.82829 10.9806 4.91699 10.8374 4.98047C10.6942 5.04395 10.5387 5.07568 10.3711 5.07568C10.0456 5.07568 9.78678 4.95036 9.59473 4.69971C9.4043 4.44906 9.30908 4.10156 9.30908 3.65723C9.30908 3.42611 9.34163 3.22021 9.40674 3.03955C9.47347 2.85889 9.56299 2.70508 9.67529 2.57812C9.78597 2.45443 9.91455 2.36003 10.061 2.29492C10.2091 2.22982 10.3621 2.19727 10.52 2.19727C10.6632 2.19727 10.7902 2.21273 10.9009 2.24365C11.0116 2.27295 11.1279 2.31934 11.25 2.38281V1.20117H11.709V5ZM11.25 4.32861V2.76367C11.1263 2.70833 11.0156 2.67008 10.918 2.64893C10.8203 2.62777 10.7137 2.61719 10.5981 2.61719C10.341 2.61719 10.1408 2.70671 9.99756 2.88574C9.85433 3.06478 9.78271 3.31868 9.78271 3.64746C9.78271 3.97135 9.83805 4.21794 9.94873 4.38721C10.0594 4.55485 10.2368 4.63867 10.481 4.63867C10.6112 4.63867 10.743 4.61019 10.8765 4.55322C11.0099 4.49463 11.1344 4.41976 11.25 4.32861ZM14.895 3.68408H12.8857C12.8857 3.85173 12.911 3.99821 12.9614 4.12354C13.0119 4.24723 13.0811 4.34896 13.1689 4.42871C13.2536 4.50684 13.3537 4.56543 13.4692 4.60449C13.5864 4.64355 13.715 4.66309 13.855 4.66309C14.0405 4.66309 14.2269 4.62646 14.4141 4.55322C14.6029 4.47835 14.7371 4.40511 14.8169 4.3335H14.8413V4.83398C14.6867 4.89909 14.5288 4.95361 14.3677 4.99756C14.2065 5.0415 14.0373 5.06348 13.8599 5.06348C13.4074 5.06348 13.0542 4.94141 12.8003 4.69727C12.5464 4.4515 12.4194 4.10319 12.4194 3.65234C12.4194 3.20638 12.5407 2.85238 12.7832 2.59033C13.0273 2.32829 13.348 2.19727 13.7451 2.19727C14.113 2.19727 14.3962 2.30469 14.5947 2.51953C14.7949 2.73438 14.895 3.03955 14.895 3.43506V3.68408ZM14.4482 3.33252C14.4466 3.09163 14.3856 2.90527 14.2651 2.77344C14.1463 2.6416 13.9648 2.57568 13.7207 2.57568C13.4749 2.57568 13.2788 2.64811 13.1323 2.79297C12.9875 2.93783 12.9053 3.11768 12.8857 3.33252H14.4482ZM17.2925 2.77344H17.2681C17.1997 2.75716 17.133 2.74577 17.0679 2.73926C17.0044 2.73112 16.9287 2.72705 16.8408 2.72705C16.6992 2.72705 16.5625 2.75879 16.4307 2.82227C16.2988 2.88411 16.1719 2.96468 16.0498 3.06396V5H15.5908V2.27295H16.0498V2.67578C16.2321 2.5293 16.3924 2.42594 16.5308 2.36572C16.6707 2.30387 16.8132 2.27295 16.958 2.27295C17.0378 2.27295 17.0955 2.27539 17.1313 2.28027C17.1672 2.28353 17.2209 2.29085 17.2925 2.30225V2.77344ZM19.6729 4.21387C19.6729 4.46289 19.5695 4.66715 19.3628 4.82666C19.1577 4.98617 18.877 5.06592 18.5205 5.06592C18.3187 5.06592 18.1331 5.04232 17.9639 4.99512C17.7962 4.94629 17.6554 4.89339 17.5415 4.83643V4.32129H17.5659C17.7108 4.43034 17.8719 4.51742 18.0493 4.58252C18.2267 4.646 18.3968 4.67773 18.5596 4.67773C18.7614 4.67773 18.9193 4.64518 19.0332 4.58008C19.1471 4.51497 19.2041 4.41243 19.2041 4.27246C19.2041 4.16504 19.1732 4.08366 19.1113 4.02832C19.0495 3.97298 18.9307 3.92578 18.7549 3.88672C18.6898 3.87207 18.6043 3.85498 18.4985 3.83545C18.3944 3.81592 18.2992 3.79476 18.2129 3.77197C17.9736 3.7085 17.8035 3.61572 17.7026 3.49365C17.6034 3.36995 17.5537 3.21859 17.5537 3.03955C17.5537 2.92725 17.5765 2.82145 17.6221 2.72217C17.6693 2.62288 17.7401 2.53418 17.8345 2.45605C17.9256 2.37956 18.0412 2.31934 18.1812 2.27539C18.3228 2.22982 18.4806 2.20703 18.6548 2.20703C18.8175 2.20703 18.9819 2.22738 19.1479 2.26807C19.3156 2.30713 19.4548 2.35514 19.5654 2.41211V2.90283H19.541C19.4238 2.81657 19.2814 2.74414 19.1138 2.68555C18.9461 2.62533 18.7817 2.59521 18.6206 2.59521C18.453 2.59521 18.3114 2.62777 18.1958 2.69287C18.0802 2.75635 18.0225 2.85156 18.0225 2.97852C18.0225 3.09082 18.0575 3.17546 18.1274 3.23242C18.1958 3.28939 18.3065 3.33577 18.4595 3.37158C18.5441 3.39111 18.6385 3.41064 18.7427 3.43018C18.8485 3.44971 18.9364 3.46761 19.0063 3.48389C19.2196 3.53271 19.384 3.61654 19.4995 3.73535C19.6151 3.85579 19.6729 4.0153 19.6729 4.21387Z" fill="#646B73"/>
<path d="M104.439 37.8818C104.439 38.0625 104.405 38.222 104.337 38.3604C104.269 38.4987 104.177 38.6126 104.061 38.7021C103.924 38.8096 103.774 38.8861 103.609 38.9316C103.447 38.9772 103.239 39 102.987 39H101.698V35.3647H102.774C103.04 35.3647 103.238 35.3745 103.37 35.394C103.502 35.4136 103.628 35.4543 103.749 35.5161C103.882 35.5861 103.979 35.6764 104.039 35.7871C104.099 35.8962 104.129 36.0272 104.129 36.1802C104.129 36.3527 104.085 36.5 103.998 36.6221C103.91 36.7425 103.792 36.8394 103.646 36.9126V36.9321C103.892 36.9826 104.085 37.0908 104.227 37.2568C104.369 37.4212 104.439 37.6296 104.439 37.8818ZM103.626 36.2437C103.626 36.1558 103.612 36.0817 103.583 36.0215C103.553 35.9613 103.506 35.9124 103.441 35.875C103.364 35.8311 103.272 35.8042 103.163 35.7944C103.054 35.783 102.918 35.7773 102.757 35.7773H102.181V36.8271H102.806C102.958 36.8271 103.078 36.8198 103.167 36.8052C103.257 36.7889 103.34 36.7563 103.417 36.7075C103.493 36.6587 103.547 36.596 103.578 36.5195C103.61 36.4414 103.626 36.3494 103.626 36.2437ZM103.937 37.9014C103.937 37.7549 103.915 37.6385 103.871 37.5522C103.827 37.466 103.747 37.3927 103.631 37.3325C103.553 37.2918 103.458 37.2658 103.346 37.2544C103.235 37.2414 103.1 37.2349 102.94 37.2349H102.181V38.5874H102.821C103.032 38.5874 103.206 38.5768 103.341 38.5557C103.476 38.5329 103.587 38.4922 103.673 38.4336C103.764 38.3701 103.831 38.2977 103.873 38.2163C103.915 38.1349 103.937 38.0299 103.937 37.9014ZM107.413 37.6377C107.413 38.082 107.299 38.4328 107.071 38.6899C106.843 38.9471 106.538 39.0757 106.156 39.0757C105.77 39.0757 105.463 38.9471 105.235 38.6899C105.009 38.4328 104.896 38.082 104.896 37.6377C104.896 37.1934 105.009 36.8426 105.235 36.5854C105.463 36.3267 105.77 36.1973 106.156 36.1973C106.538 36.1973 106.843 36.3267 107.071 36.5854C107.299 36.8426 107.413 37.1934 107.413 37.6377ZM106.939 37.6377C106.939 37.2845 106.87 37.0225 106.732 36.8516C106.594 36.679 106.402 36.5928 106.156 36.5928C105.907 36.5928 105.713 36.679 105.575 36.8516C105.438 37.0225 105.37 37.2845 105.37 37.6377C105.37 37.9795 105.439 38.2391 105.577 38.4165C105.715 38.5923 105.908 38.6802 106.156 38.6802C106.4 38.6802 106.591 38.5931 106.729 38.4189C106.869 38.2432 106.939 37.9827 106.939 37.6377ZM109.828 36.7734H109.803C109.735 36.7572 109.668 36.7458 109.603 36.7393C109.54 36.7311 109.464 36.7271 109.376 36.7271C109.234 36.7271 109.098 36.7588 108.966 36.8223C108.834 36.8841 108.707 36.9647 108.585 37.064V39H108.126V36.2729H108.585V36.6758C108.767 36.5293 108.928 36.4259 109.066 36.3657C109.206 36.3039 109.348 36.2729 109.493 36.2729C109.573 36.2729 109.631 36.2754 109.667 36.2803C109.702 36.2835 109.756 36.2909 109.828 36.3022V36.7734ZM111.961 36.7734H111.937C111.869 36.7572 111.802 36.7458 111.737 36.7393C111.673 36.7311 111.598 36.7271 111.51 36.7271C111.368 36.7271 111.231 36.7588 111.1 36.8223C110.968 36.8841 110.841 36.9647 110.719 37.064V39H110.26V36.2729H110.719V36.6758C110.901 36.5293 111.061 36.4259 111.2 36.3657C111.34 36.3039 111.482 36.2729 111.627 36.2729C111.707 36.2729 111.764 36.2754 111.8 36.2803C111.836 36.2835 111.89 36.2909 111.961 36.3022V36.7734ZM114.718 37.6377C114.718 38.082 114.604 38.4328 114.376 38.6899C114.148 38.9471 113.843 39.0757 113.46 39.0757C113.075 39.0757 112.768 38.9471 112.54 38.6899C112.314 38.4328 112.201 38.082 112.201 37.6377C112.201 37.1934 112.314 36.8426 112.54 36.5854C112.768 36.3267 113.075 36.1973 113.46 36.1973C113.843 36.1973 114.148 36.3267 114.376 36.5854C114.604 36.8426 114.718 37.1934 114.718 37.6377ZM114.244 37.6377C114.244 37.2845 114.175 37.0225 114.037 36.8516C113.898 36.679 113.706 36.5928 113.46 36.5928C113.211 36.5928 113.018 36.679 112.879 36.8516C112.743 37.0225 112.674 37.2845 112.674 37.6377C112.674 37.9795 112.743 38.2391 112.882 38.4165C113.02 38.5923 113.213 38.6802 113.46 38.6802C113.705 38.6802 113.896 38.5931 114.034 38.4189C114.174 38.2432 114.244 37.9827 114.244 37.6377ZM118.861 36.2729L118.15 39H117.726L117.025 36.8979L116.329 39H115.907L115.189 36.2729H115.667L116.168 38.3848L116.849 36.2729H117.228L117.926 38.3848L118.399 36.2729H118.861ZM121.805 37.6841H119.796C119.796 37.8517 119.821 37.9982 119.872 38.1235C119.922 38.2472 119.991 38.349 120.079 38.4287C120.164 38.5068 120.264 38.5654 120.379 38.6045C120.497 38.6436 120.625 38.6631 120.765 38.6631C120.951 38.6631 121.137 38.6265 121.324 38.5532C121.513 38.4784 121.647 38.4051 121.727 38.3335H121.751V38.834C121.597 38.8991 121.439 38.9536 121.278 38.9976C121.117 39.0415 120.947 39.0635 120.77 39.0635C120.318 39.0635 119.964 38.9414 119.71 38.6973C119.457 38.4515 119.33 38.1032 119.33 37.6523C119.33 37.2064 119.451 36.8524 119.693 36.5903C119.938 36.3283 120.258 36.1973 120.655 36.1973C121.023 36.1973 121.306 36.3047 121.505 36.5195C121.705 36.7344 121.805 37.0396 121.805 37.4351V37.6841ZM121.358 37.3325C121.357 37.0916 121.296 36.9053 121.175 36.7734C121.056 36.6416 120.875 36.5757 120.631 36.5757C120.385 36.5757 120.189 36.6481 120.042 36.793C119.898 36.9378 119.815 37.1177 119.796 37.3325H121.358ZM124.203 36.7734H124.178C124.11 36.7572 124.043 36.7458 123.978 36.7393C123.915 36.7311 123.839 36.7271 123.751 36.7271C123.609 36.7271 123.473 36.7588 123.341 36.8223C123.209 36.8841 123.082 36.9647 122.96 37.064V39H122.501V36.2729H122.96V36.6758C123.142 36.5293 123.303 36.4259 123.441 36.3657C123.581 36.3039 123.723 36.2729 123.868 36.2729C123.948 36.2729 124.006 36.2754 124.042 36.2803C124.077 36.2835 124.131 36.2909 124.203 36.3022V36.7734ZM126.583 38.2139C126.583 38.4629 126.48 38.6672 126.273 38.8267C126.068 38.9862 125.787 39.0659 125.431 39.0659C125.229 39.0659 125.043 39.0423 124.874 38.9951C124.706 38.9463 124.566 38.8934 124.452 38.8364V38.3213H124.476C124.621 38.4303 124.782 38.5174 124.959 38.5825C125.137 38.646 125.307 38.6777 125.47 38.6777C125.672 38.6777 125.829 38.6452 125.943 38.5801C126.057 38.515 126.114 38.4124 126.114 38.2725C126.114 38.165 126.083 38.0837 126.021 38.0283C125.96 37.973 125.841 37.9258 125.665 37.8867C125.6 37.8721 125.514 37.855 125.409 37.8354C125.305 37.8159 125.209 37.7948 125.123 37.772C124.884 37.7085 124.714 37.6157 124.613 37.4937C124.514 37.37 124.464 37.2186 124.464 37.0396C124.464 36.9272 124.487 36.8215 124.532 36.7222C124.579 36.6229 124.65 36.5342 124.745 36.4561C124.836 36.3796 124.951 36.3193 125.091 36.2754C125.233 36.2298 125.391 36.207 125.565 36.207C125.728 36.207 125.892 36.2274 126.058 36.2681C126.226 36.3071 126.365 36.3551 126.476 36.4121V36.9028H126.451C126.334 36.8166 126.192 36.7441 126.024 36.6855C125.856 36.6253 125.692 36.5952 125.531 36.5952C125.363 36.5952 125.222 36.6278 125.106 36.6929C124.99 36.7563 124.933 36.8516 124.933 36.9785C124.933 37.0908 124.968 37.1755 125.038 37.2324C125.106 37.2894 125.217 37.3358 125.37 37.3716C125.454 37.3911 125.549 37.4106 125.653 37.4302C125.759 37.4497 125.847 37.4676 125.917 37.4839C126.13 37.5327 126.294 37.6165 126.41 37.7354C126.525 37.8558 126.583 38.0153 126.583 38.2139Z" fill="#646B73"/>
</svg>
