<svg width="135" height="48" viewBox="0 0 135 48" fill="none" xmlns="http://www.w3.org/2000/svg">
<path d="M71.2841 2.51953L63.5088 7.18471L71.2841 11.3315L78.541 6.66635L71.2841 2.51953Z" fill="#F88340" stroke="#F88340" stroke-width="1.03671"/>
<path d="M43.5433 21.6953L36.0361 26.1996L43.5433 30.2034L50.55 25.6991L43.5433 21.6953Z" fill="#F88340" stroke="#F88340" stroke-width="1.00096"/>
<path d="M71.4275 34.1367L67.1377 36.7106L71.4275 38.9985L75.4313 36.4246L71.4275 34.1367Z" fill="#F88340" stroke="#F88340" stroke-width="0.571975"/>
<path d="M96.7453 12.3672L91.2568 15.6603L96.7453 18.5874L101.868 15.2944L96.7453 12.3672Z" fill="#F88340" stroke="#F88340" stroke-width="0.731792"/>
<path d="M62.9375 7.14664L71.2089 2L78.9288 6.4114V6.59521M62.9375 7.14664V16.1533L71.2089 20.5647M62.9375 7.14664L71.2089 11.558M71.2089 20.5647L78.9288 16.1533V6.59521M71.2089 20.5647V11.558M71.2089 11.558L78.9288 6.59521" stroke="#F88340" stroke-width="0.735234"/>
<path d="M66.6152 37.5449L71.559 34.4688L76.1733 37.1055V37.2153M66.6152 37.5449V42.9282L71.559 45.5649M66.6152 37.5449L71.559 40.1816M71.559 45.5649L76.1733 42.9282V37.2153M71.559 45.5649V40.1816M71.559 40.1816L76.1733 37.2153" stroke="#F88340" stroke-width="0.735234"/>
<path d="M90.877 16.079L96.9617 12.293L102.641 15.5381V15.6734M90.877 16.079V22.7046L96.9617 25.9497M90.877 16.079L96.9617 19.3242M96.9617 25.9497L102.641 22.7046V15.6734M96.9617 25.9497V19.3242M96.9617 19.3242L102.641 15.6734" stroke="#F88340" stroke-width="0.735234"/>
<path d="M51.1748 28.8367L66.6147 18.1758" stroke="#F88340" stroke-width="0.367617"/>
<path d="M85.7133 30.9736L94.2036 37.2618" stroke="#F88340" stroke-width="0.367617"/>
<path d="M35 26.6271L43.2714 21.4805L50.9913 25.8919V26.0757M35 26.6271V35.6337L43.2714 40.0451M35 26.6271L43.2714 31.0385M43.2714 40.0451L50.9913 35.6337V26.0757M43.2714 40.0451V31.0385M43.2714 31.0385L50.9913 26.0757" stroke="#F88340" stroke-width="0.735234"/>
<path d="M46.9463 37.8477C46.9463 37.8477 52.4605 41.7076 58.1586 45.5676C63.8567 49.4276 68.8195 44.281 68.8195 44.281" stroke="#F88340" stroke-width="0.367617"/>
<path d="M76.1729 38.5767L94.1861 24.2422" stroke="#F88340" stroke-width="0.253708"/>
<path d="M98.9634 39.1259C98.9634 37.9883 97.738 36.9202 96.0224 36.9202C94.3069 36.9202 93.0815 37.9883 93.0815 39.1259C93.0815 40.2634 94.3069 41.3316 96.0224 41.3316C97.738 41.3316 98.9634 40.2634 98.9634 39.1259Z" stroke="#F88340" stroke-width="0.735234"/>
<path d="M64.4092 10.4531L68.0854 12.2912" stroke="#F88340" stroke-width="0.367617"/>
<path d="M91.6123 20.75L95.2885 22.5881" stroke="#F88340" stroke-width="0.367617"/>
<path d="M91.6123 21.8555L93.818 22.9583" stroke="#F88340" stroke-width="0.367617"/>
<path d="M64.4092 12.293L68.0854 14.1311" stroke="#F88340" stroke-width="0.367617"/>
<path d="M64.4092 14.1328L68.0854 15.9709" stroke="#F88340" stroke-width="0.367617"/>
<path d="M91.9805 18.9312C92.3485 17.3865 93.4509 20.9547 94.5538 20.2178" stroke="#F88340" stroke-width="0.367617"/>
<path d="M39.9198 33.4401C39.9198 33.6818 39.8195 33.88 39.6188 34.0349C39.4198 34.1897 39.1472 34.2671 38.8013 34.2671C38.6054 34.2671 38.4253 34.2442 38.2609 34.1984C38.0982 34.151 37.9616 34.0996 37.851 34.0444V33.5443H37.8747C38.0153 33.6502 38.1717 33.7347 38.3439 33.7979C38.5161 33.8595 38.6812 33.8903 38.8392 33.8903C39.0351 33.8903 39.1883 33.8587 39.2989 33.7955C39.4095 33.7323 39.4648 33.6328 39.4648 33.4969C39.4648 33.3927 39.4348 33.3137 39.3747 33.26C39.3147 33.2062 39.1994 33.1604 39.0287 33.1225C38.9656 33.1083 38.8826 33.0917 38.7799 33.0727C38.6788 33.0538 38.5864 33.0333 38.5027 33.0111C38.2704 32.9495 38.1053 32.8595 38.0074 32.741C37.911 32.6209 37.8628 32.474 37.8628 32.3002C37.8628 32.1912 37.8849 32.0885 37.9292 31.9921C37.975 31.8958 38.0437 31.8097 38.1353 31.7338C38.2238 31.6596 38.336 31.6011 38.4719 31.5585C38.6093 31.5142 38.7625 31.4921 38.9316 31.4921C39.0896 31.4921 39.2491 31.5119 39.4103 31.5514C39.573 31.5893 39.7081 31.6359 39.8155 31.6912V32.1675H39.7918C39.6781 32.0838 39.5398 32.0135 39.3771 31.9566C39.2144 31.8981 39.0548 31.8689 38.8984 31.8689C38.7357 31.8689 38.5982 31.9005 38.4861 31.9637C38.3739 32.0253 38.3178 32.1177 38.3178 32.241C38.3178 32.35 38.3518 32.4321 38.4197 32.4874C38.4861 32.5427 38.5935 32.5877 38.742 32.6225C38.8242 32.6415 38.9158 32.6604 39.0169 32.6794C39.1196 32.6983 39.2049 32.7157 39.2728 32.7315C39.4798 32.7789 39.6394 32.8603 39.7515 32.9756C39.8637 33.0925 39.9198 33.2473 39.9198 33.4401Z" fill="#F88340"/>
<line x1="38.8606" y1="31.4102" x2="38.8606" y2="35.0863" stroke="#F88340" stroke-width="0.367617"/>
</svg>
